<ttFont>
<head>
    <!-- Most of this table will be recalculated by the compiler -->
    <tableVersion value="1.0"/>
    <fontRevision value="2.003"/>
    <checkSumAdjustment value="0xc03118fa"/>
    <magicNumber value="0x5f0f3cf5"/>
    <flags value="00001000 00000011"/>
    <unitsPerEm value="1000"/>
    <created value="Thu Jul 25 06:21:33 2024"/>
    <modified value="Wed Mar 25 22:29:24 2026"/>
    <xMin value="-291"/>
    <yMin value="-271"/>
    <xMax value="1108"/>
    <yMax value="897"/>
    <macStyle value="00000000 00000000"/>
    <lowestRecPPEM value="6"/>
    <fontDirectionHint value="2"/>
    <indexToLocFormat value="0"/>
    <glyphDataFormat value="0"/>
  </head>
    <TTGlyph name="A" xMin="14" yMin="0" xMax="749" yMax="750">
      <contour>
        <pt x="14" y="0" on="1"/>
        <pt x="14" y="34" on="1"/>
        <pt x="114" y="49" on="1"/>
        <pt x="133" y="49" on="1"/>
        <pt x="242" y="34" on="1"/>
        <pt x="242" y="0" on="1"/>
      </contour>
      <contour>
        <pt x="82" y="0" on="1"/>
        <pt x="333" y="750" on="1"/>
        <pt x="437" y="750" on="1"/>
        <pt x="693" y="0" on="1"/>
        <pt x="520" y="0" on="1"/>
        <pt x="314" y="647" on="1"/>
        <pt x="335" y="647" on="1"/>
        <pt x="332" y="633" on="1"/>
        <pt x="135" y="0" on="1"/>
      </contour>
      <contour>
        <pt x="194" y="237" on="1"/>
        <pt x="203" y="272" on="1"/>
        <pt x="527" y="272" on="1"/>
        <pt x="536" y="237" on="1"/>
      </contour>
      <contour>
        <pt x="408" y="0" on="1"/>
        <pt x="408" y="35" on="1"/>
        <pt x="544" y="50" on="1"/>
        <pt x="606" y="50" on="1"/>
        <pt x="749" y="35" on="1"/>
        <pt x="749" y="0" on="1"/>
      </contour>
    </TTGlyph>
    <TTGlyph name="B" xMin="41" yMin="0" xMax="699" yMax="747">
      <contour>
        <pt x="41" y="0" on="1"/>
        <pt x="41" y="34" on="1"/>
        <pt x="202" y="50" on="1"/>
        <pt x="218" y="50" on="1"/>
        <pt x="218" y="0" on="1"/>
      </contour>
      <contour>
        <pt x="130" y="0" on="1"/>
        <pt x="132" y="89" on="0"/>
        <pt x="133" y="272" on="0"/>
        <pt x="133" y="364" on="1"/>
        <pt x="133" y="400" on="1"/>
        <pt x="133" y="487" on="0"/>
        <pt x="132" y="660" on="0"/>
        <pt x="130" y="747" on="1"/>
        <pt x="304" y="747" on="1"/>
        <pt x="301" y="662" on="0"/>
        <pt x="300" y="488" on="0"/>
        <pt x="300" y="398" on="1"/>
        <pt x="300" y="376" on="1"/>
        <pt x="300" y="276" on="0"/>
        <pt x="301" y="90" on="0"/>
        <pt x="304" y="0" on="1"/>
      </contour>
      <contour>
        <pt x="218" y="0" on="1"/>
        <pt x="218" y="37" on="1"/>
        <pt x="353" y="37" on="1"/>
        <pt x="433" y="37" on="0"/>
        <pt x="525" y="123" on="0"/>
        <pt x="525" y="205" on="1"/>
        <pt x="525" y="292" on="0"/>
        <pt x="438" y="373" on="0"/>
        <pt x="347" y="373" on="1"/>
        <pt x="218" y="373" on="1"/>
        <pt x="218" y="409" on="1"/>
        <pt x="339" y="409" on="1"/>
        <pt x="416" y="409" on="0"/>
        <pt x="492" y="491" on="0"/>
        <pt x="492" y="567" on="1"/>
        <pt x="492" y="635" on="0"/>
        <pt x="425" y="709" on="0"/>
        <pt x="349" y="709" on="1"/>
        <pt x="218" y="709" on="1"/>
        <pt x="218" y="747" on="1"/>
        <pt x="393" y="747" on="1"/>
        <pt x="489" y="747" on="0"/>
        <pt x="604" y="702" on="0"/>
        <pt x="655" y="623" on="0"/>
        <pt x="655" y="572" on="1"/>
        <pt x="655" y="531" on="0"/>
        <pt x="609" y="457" on="0"/>
        <pt x="498" y="404" on="0"/>
        <pt x="399" y="393" on="1"/>
        <pt x="401" y="403" on="1"/>
        <pt x="508" y="397" on="0"/>
        <pt x="639" y="347" on="0"/>
        <pt x="699" y="264" on="0"/>
        <pt x="699" y="208" on="1"/>
        <pt x="699" y="171" on="0"/>
        <pt x="668" y="98" on="0"/>
        <pt x="592" y="37" on="0"/>
        <pt x="459" y="0" on="0"/>
        <pt x="358" y="0" on="1"/>
      </contour>
      <contour>
        <pt x="41" y="713" on="1"/>
        <pt x="41" y="747" on="1"/>
        <pt x="218" y="747" on="1"/>
        <pt x="218" y="698" on="1"/>
        <pt x="202" y="698" on="1"/>
      </contour>
    </TTGlyph>
    <TTGlyph name="C" xMin="43" yMin="-20" xMax="668" yMax="767">
      <contour>
        <pt x="441" y="-20" on="1"/>
        <pt x="357" y="-20" on="0"/>
        <pt x="213" y="26" on="0"/>
        <pt x="104" y="122" on="0"/>
        <pt x="43" y="267" on="0"/>
        <pt x="43" y="366" on="1"/>
        <pt x="43" y="467" on="0"/>
        <pt x="105" y="618" on="0"/>
        <pt x="215" y="718" on="0"/>
        <pt x="360" y="767" on="0"/>
        <pt x="442" y="767" on="1"/>
        <pt x="513" y="767" on="0"/>
        <pt x="613" y="737" on="0"/>
        <pt x="661" y="710" on="1"/>
        <pt x="657" y="528" on="1"/>
        <pt x="598" y="528" on="1"/>
        <pt x="536" y="741" on="1"/>
        <pt x="619" y="713" on="1"/>
        <pt x="619" y="680" on="1"/>
        <pt x="582" y="706" on="0"/>
        <pt x="512" y="729" on="0"/>
        <pt x="470" y="729" on="1"/>
        <pt x="400" y="729" on="0"/>
        <pt x="287" y="654" on="0"/>
        <pt x="221" y="496" on="0"/>
        <pt x="221" y="373" on="1"/>
        <pt x="221" y="250" on="0"/>
        <pt x="288" y="93" on="0"/>
        <pt x="402" y="19" on="0"/>
        <pt x="474" y="19" on="1"/>
        <pt x="515" y="19" on="0"/>
        <pt x="585" y="44" on="0"/>
        <pt x="625" y="73" on="1"/>
        <pt x="625" y="36" on="1"/>
        <pt x="544" y="8" on="1"/>
        <pt x="605" y="219" on="1"/>
        <pt x="664" y="219" on="1"/>
        <pt x="668" y="39" on="1"/>
        <pt x="622" y="12" on="0"/>
        <pt x="512" y="-20" on="0"/>
      </contour>
    </TTGlyph>
    <TTGlyph name="D" xMin="41" yMin="0" xMax="756" yMax="747">
      <contour>
        <pt x="41" y="0" on="1"/>
        <pt x="41" y="34" on="1"/>
        <pt x="202" y="50" on="1"/>
        <pt x="218" y="50" on="1"/>
        <pt x="218" y="0" on="1"/>
      </contour>
      <contour>
        <pt x="130" y="0" on="1"/>
        <pt x="132" y="86" on="0"/>
        <pt x="133" y="264" on="0"/>
        <pt x="133" y="360" on="1"/>
        <pt x="133" y="393" on="1"/>
        <pt x="133" y="483" on="0"/>
        <pt x="132" y="659" on="0"/>
        <pt x="130" y="747" on="1"/>
        <pt x="306" y="747" on="1"/>
        <pt x="304" y="661" on="0"/>
        <pt x="303" y="484" on="0"/>
        <pt x="303" y="393" on="1"/>
        <pt x="303" y="360" on="1"/>
        <pt x="303" y="266" on="0"/>
        <pt x="304" y="88" on="0"/>
        <pt x="306" y="0" on="1"/>
      </contour>
      <contour>
        <pt x="218" y="0" on="1"/>
        <pt x="218" y="37" on="1"/>
        <pt x="349" y="37" on="1"/>
        <pt x="459" y="37" on="0"/>
        <pt x="582" y="215" on="0"/>
        <pt x="582" y="374" on="1"/>
        <pt x="582" y="538" on="0"/>
        <pt x="460" y="709" on="0"/>
        <pt x="353" y="709" on="1"/>
        <pt x="218" y="709" on="1"/>
        <pt x="218" y="747" on="1"/>
        <pt x="368" y="747" on="1"/>
        <pt x="491" y="747" on="0"/>
        <pt x="664" y="657" on="0"/>
        <pt x="756" y="491" on="0"/>
        <pt x="756" y="376" on="1"/>
        <pt x="756" y="259" on="0"/>
        <pt x="659" y="91" on="0"/>
        <pt x="477" y="0" on="0"/>
        <pt x="351" y="0" on="1"/>
      </contour>
      <contour>
        <pt x="41" y="713" on="1"/>
        <pt x="41" y="747" on="1"/>
        <pt x="218" y="747" on="1"/>
        <pt x="218" y="698" on="1"/>
        <pt x="202" y="698" on="1"/>
      </contour>
    </TTGlyph>
    <TTGlyph name="E" xMin="41" yMin="0" xMax="634" yMax="747">
      <contour>
        <pt x="41" y="0" on="1"/>
        <pt x="41" y="34" on="1"/>
        <pt x="202" y="50" on="1"/>
        <pt x="218" y="50" on="1"/>
        <pt x="218" y="0" on="1"/>
      </contour>
      <contour>
        <pt x="130" y="0" on="1"/>
        <pt x="132" y="86" on="0"/>
        <pt x="133" y="262" on="0"/>
        <pt x="133" y="351" on="1"/>
        <pt x="133" y="395" on="1"/>
        <pt x="133" y="484" on="0"/>
        <pt x="132" y="659" on="0"/>
        <pt x="130" y="747" on="1"/>
        <pt x="306" y="747" on="1"/>
        <pt x="304" y="661" on="0"/>
        <pt x="303" y="483" on="0"/>
        <pt x="303" y="391" on="1"/>
        <pt x="303" y="360" on="1"/>
        <pt x="303" y="266" on="0"/>
        <pt x="304" y="88" on="0"/>
        <pt x="306" y="0" on="1"/>
      </contour>
      <contour>
        <pt x="218" y="0" on="1"/>
        <pt x="218" y="39" on="1"/>
        <pt x="605" y="39" on="1"/>
        <pt x="519" y="1" on="1"/>
        <pt x="576" y="207" on="1"/>
        <pt x="632" y="207" on="1"/>
        <pt x="634" y="0" on="1"/>
      </contour>
      <contour>
        <pt x="218" y="363" on="1"/>
        <pt x="218" y="399" on="1"/>
        <pt x="467" y="399" on="1"/>
        <pt x="467" y="363" on="1"/>
      </contour>
      <contour>
        <pt x="454" y="263" on="1"/>
        <pt x="438" y="374" on="1"/>
        <pt x="438" y="395" on="1"/>
        <pt x="454" y="505" on="1"/>
        <pt x="504" y="505" on="1"/>
        <pt x="504" y="263" on="1"/>
      </contour>
      <contour>
        <pt x="41" y="713" on="1"/>
        <pt x="41" y="747" on="1"/>
        <pt x="218" y="747" on="1"/>
        <pt x="218" y="698" on="1"/>
        <pt x="202" y="698" on="1"/>
      </contour>
      <contour>
        <pt x="554" y="548" on="1"/>
        <pt x="499" y="747" on="1"/>
        <pt x="583" y="708" on="1"/>
        <pt x="218" y="708" on="1"/>
        <pt x="218" y="747" on="1"/>
        <pt x="613" y="747" on="1"/>
        <pt x="612" y="548" on="1"/>
      </contour>
    </TTGlyph>
    <TTGlyph name="F" xMin="41" yMin="0" xMax="621" yMax="747">
      <contour>
        <pt x="41" y="0" on="1"/>
        <pt x="41" y="34" on="1"/>
        <pt x="202" y="50" on="1"/>
        <pt x="250" y="50" on="1"/>
        <pt x="412" y="34" on="1"/>
        <pt x="412" y="0" on="1"/>
      </contour>
      <contour>
        <pt x="130" y="0" on="1"/>
        <pt x="132" y="86" on="0"/>
        <pt x="133" y="262" on="0"/>
        <pt x="133" y="351" on="1"/>
        <pt x="133" y="395" on="1"/>
        <pt x="133" y="484" on="0"/>
        <pt x="132" y="659" on="0"/>
        <pt x="130" y="747" on="1"/>
        <pt x="306" y="747" on="1"/>
        <pt x="304" y="661" on="0"/>
        <pt x="303" y="483" on="0"/>
        <pt x="303" y="391" on="1"/>
        <pt x="303" y="360" on="1"/>
        <pt x="303" y="266" on="0"/>
        <pt x="304" y="88" on="0"/>
        <pt x="306" y="0" on="1"/>
      </contour>
      <contour>
        <pt x="218" y="363" on="1"/>
        <pt x="218" y="399" on="1"/>
        <pt x="469" y="399" on="1"/>
        <pt x="469" y="363" on="1"/>
      </contour>
      <contour>
        <pt x="455" y="255" on="1"/>
        <pt x="440" y="367" on="1"/>
        <pt x="440" y="398" on="1"/>
        <pt x="455" y="505" on="1"/>
        <pt x="505" y="505" on="1"/>
        <pt x="505" y="255" on="1"/>
      </contour>
      <contour>
        <pt x="41" y="713" on="1"/>
        <pt x="41" y="747" on="1"/>
        <pt x="218" y="747" on="1"/>
        <pt x="218" y="698" on="1"/>
        <pt x="202" y="698" on="1"/>
      </contour>
      <contour>
        <pt x="562" y="548" on="1"/>
        <pt x="505" y="747" on="1"/>
        <pt x="591" y="708" on="1"/>
        <pt x="218" y="708" on="1"/>
        <pt x="218" y="747" on="1"/>
        <pt x="621" y="747" on="1"/>
        <pt x="619" y="548" on="1"/>
      </contour>
    </TTGlyph>
    <TTGlyph name="G" xMin="43" yMin="-20" xMax="750" yMax="767">
      <contour>
        <pt x="441" y="-20" on="1"/>
        <pt x="323" y="-20" on="0"/>
        <pt x="143" y="75" on="0"/>
        <pt x="43" y="252" on="0"/>
        <pt x="43" y="376" on="1"/>
        <pt x="43" y="497" on="0"/>
        <pt x="145" y="672" on="0"/>
        <pt x="328" y="767" on="0"/>
        <pt x="448" y="767" on="1"/>
        <pt x="513" y="767" on="0"/>
        <pt x="619" y="739" on="0"/>
        <pt x="665" y="713" on="1"/>
        <pt x="661" y="530" on="1"/>
        <pt x="599" y="530" on="1"/>
        <pt x="539" y="743" on="1"/>
        <pt x="622" y="712" on="1"/>
        <pt x="622" y="670" on="1"/>
        <pt x="581" y="702" on="0"/>
        <pt x="513" y="729" on="0"/>
        <pt x="470" y="729" on="1"/>
        <pt x="400" y="729" on="0"/>
        <pt x="287" y="652" on="0"/>
        <pt x="221" y="494" on="0"/>
        <pt x="221" y="374" on="1"/>
        <pt x="221" y="263" on="0"/>
        <pt x="285" y="103" on="0"/>
        <pt x="393" y="18" on="0"/>
        <pt x="460" y="18" on="1"/>
        <pt x="492" y="18" on="0"/>
        <pt x="552" y="30" on="0"/>
        <pt x="581" y="40" on="1"/>
        <pt x="525" y="9" on="1"/>
        <pt x="525" y="100" on="1"/>
        <pt x="525" y="168" on="0"/>
        <pt x="523" y="298" on="0"/>
        <pt x="521" y="367" on="1"/>
        <pt x="689" y="367" on="1"/>
        <pt x="688" y="302" on="0"/>
        <pt x="685" y="169" on="0"/>
        <pt x="685" y="95" on="1"/>
        <pt x="685" y="46" on="1"/>
        <pt x="627" y="12" on="0"/>
        <pt x="512" y="-20" on="0"/>
      </contour>
      <contour>
        <pt x="416" y="333" on="1"/>
        <pt x="416" y="367" on="1"/>
        <pt x="750" y="367" on="1"/>
        <pt x="750" y="333" on="1"/>
        <pt x="624" y="316" on="1"/>
        <pt x="555" y="316" on="1"/>
      </contour>
    </TTGlyph>
    <TTGlyph name="H" xMin="41" yMin="0" xMax="829" yMax="747">
      <contour>
        <pt x="41" y="0" on="1"/>
        <pt x="41" y="34" on="1"/>
        <pt x="196" y="50" on="1"/>
        <pt x="227" y="50" on="1"/>
        <pt x="387" y="34" on="1"/>
        <pt x="387" y="0" on="1"/>
      </contour>
      <contour>
        <pt x="128" y="0" on="1"/>
        <pt x="130" y="86" on="0"/>
        <pt x="131" y="262" on="0"/>
        <pt x="131" y="351" on="1"/>
        <pt x="131" y="395" on="1"/>
        <pt x="131" y="484" on="0"/>
        <pt x="130" y="659" on="0"/>
        <pt x="128" y="747" on="1"/>
        <pt x="305" y="747" on="1"/>
        <pt x="302" y="661" on="0"/>
        <pt x="301" y="484" on="0"/>
        <pt x="301" y="395" on="1"/>
        <pt x="301" y="365" on="1"/>
        <pt x="301" y="268" on="0"/>
        <pt x="302" y="88" on="0"/>
        <pt x="305" y="0" on="1"/>
      </contour>
      <contour>
        <pt x="216" y="361" on="1"/>
        <pt x="216" y="399" on="1"/>
        <pt x="654" y="399" on="1"/>
        <pt x="654" y="361" on="1"/>
      </contour>
      <contour>
        <pt x="482" y="0" on="1"/>
        <pt x="482" y="34" on="1"/>
        <pt x="641" y="50" on="1"/>
        <pt x="671" y="50" on="1"/>
        <pt x="829" y="34" on="1"/>
        <pt x="829" y="0" on="1"/>
      </contour>
      <contour>
        <pt x="565" y="0" on="1"/>
        <pt x="568" y="86" on="0"/>
        <pt x="569" y="265" on="0"/>
        <pt x="569" y="365" on="1"/>
        <pt x="569" y="395" on="1"/>
        <pt x="569" y="484" on="0"/>
        <pt x="568" y="659" on="0"/>
        <pt x="565" y="747" on="1"/>
        <pt x="742" y="747" on="1"/>
        <pt x="740" y="661" on="0"/>
        <pt x="739" y="484" on="0"/>
        <pt x="739" y="395" on="1"/>
        <pt x="739" y="351" on="1"/>
        <pt x="739" y="264" on="0"/>
        <pt x="740" y="88" on="0"/>
        <pt x="742" y="0" on="1"/>
      </contour>
      <contour>
        <pt x="41" y="713" on="1"/>
        <pt x="41" y="747" on="1"/>
        <pt x="387" y="747" on="1"/>
        <pt x="387" y="713" on="1"/>
        <pt x="227" y="698" on="1"/>
        <pt x="196" y="698" on="1"/>
      </contour>
      <contour>
        <pt x="482" y="713" on="1"/>
        <pt x="482" y="747" on="1"/>
        <pt x="829" y="747" on="1"/>
        <pt x="829" y="713" on="1"/>
        <pt x="671" y="698" on="1"/>
        <pt x="641" y="698" on="1"/>
      </contour>
    </TTGlyph>
    <TTGlyph name="I" xMin="41" yMin="0" xMax="395" yMax="747">
      <contour>
        <pt x="41" y="0" on="1"/>
        <pt x="41" y="34" on="1"/>
        <pt x="202" y="50" on="1"/>
        <pt x="233" y="50" on="1"/>
        <pt x="395" y="34" on="1"/>
        <pt x="395" y="0" on="1"/>
      </contour>
      <contour>
        <pt x="130" y="0" on="1"/>
        <pt x="133" y="86" on="0"/>
        <pt x="134" y="262" on="0"/>
        <pt x="134" y="351" on="1"/>
        <pt x="134" y="395" on="1"/>
        <pt x="134" y="484" on="0"/>
        <pt x="133" y="659" on="0"/>
        <pt x="130" y="747" on="1"/>
        <pt x="307" y="747" on="1"/>
        <pt x="305" y="661" on="0"/>
        <pt x="304" y="484" on="0"/>
        <pt x="304" y="395" on="1"/>
        <pt x="304" y="352" on="1"/>
        <pt x="304" y="264" on="0"/>
        <pt x="305" y="88" on="0"/>
        <pt x="307" y="0" on="1"/>
      </contour>
      <contour>
        <pt x="41" y="713" on="1"/>
        <pt x="41" y="747" on="1"/>
        <pt x="395" y="747" on="1"/>
        <pt x="395" y="713" on="1"/>
        <pt x="233" y="698" on="1"/>
        <pt x="202" y="698" on="1"/>
      </contour>
    </TTGlyph>
    <TTGlyph name="J" xMin="-51" yMin="-162" xMax="409" yMax="747">
      <contour>
        <pt x="74" y="-162" on="1"/>
        <pt x="18" y="-162" on="0"/>
        <pt x="-46" y="-130" on="0"/>
        <pt x="-51" y="-93" on="1"/>
        <pt x="-44" y="-60" on="0"/>
        <pt x="-5" y="-33" on="0"/>
        <pt x="23" y="-33" on="1"/>
        <pt x="49" y="-33" on="0"/>
        <pt x="85" y="-50" on="0"/>
        <pt x="111" y="-79" on="1"/>
        <pt x="157" y="-136" on="1"/>
        <pt x="157" y="-142" on="1"/>
        <pt x="142" y="-142" on="1"/>
        <pt x="142" y="-134" on="1"/>
        <pt x="155" y="-66" on="0"/>
        <pt x="155" y="97" on="0"/>
        <pt x="155" y="208" on="1"/>
        <pt x="155" y="242" on="0"/>
        <pt x="155" y="328" on="0"/>
        <pt x="154" y="451" on="0"/>
        <pt x="152" y="626" on="0"/>
        <pt x="151" y="747" on="1"/>
        <pt x="321" y="747" on="1"/>
        <pt x="318" y="664" on="0"/>
        <pt x="317" y="491" on="0"/>
        <pt x="317" y="404" on="1"/>
        <pt x="317" y="201" on="1"/>
        <pt x="317" y="125" on="0"/>
        <pt x="302" y="23" on="0"/>
        <pt x="272" y="-46" on="0"/>
        <pt x="248" y="-75" on="1"/>
        <pt x="208" y="-124" on="0"/>
        <pt x="117" y="-162" on="0"/>
      </contour>
      <contour>
        <pt x="43" y="713" on="1"/>
        <pt x="43" y="747" on="1"/>
        <pt x="409" y="747" on="1"/>
        <pt x="409" y="713" on="1"/>
        <pt x="246" y="698" on="1"/>
        <pt x="204" y="698" on="1"/>
      </contour>
    </TTGlyph>
    <TTGlyph name="K" xMin="41" yMin="0" xMax="783" yMax="747">
      <contour>
        <pt x="130" y="0" on="1"/>
        <pt x="132" y="86" on="0"/>
        <pt x="133" y="262" on="0"/>
        <pt x="133" y="351" on="1"/>
        <pt x="133" y="395" on="1"/>
        <pt x="133" y="484" on="0"/>
        <pt x="132" y="659" on="0"/>
        <pt x="130" y="747" on="1"/>
        <pt x="299" y="747" on="1"/>
        <pt x="297" y="661" on="0"/>
        <pt x="296" y="484" on="0"/>
        <pt x="296" y="395" on="1"/>
        <pt x="296" y="330" on="1"/>
        <pt x="296" y="255" on="0"/>
        <pt x="297" y="88" on="0"/>
        <pt x="299" y="0" on="1"/>
      </contour>
      <contour>
        <pt x="41" y="0" on="1"/>
        <pt x="41" y="34" on="1"/>
        <pt x="202" y="50" on="1"/>
        <pt x="232" y="50" on="1"/>
        <pt x="376" y="34" on="1"/>
        <pt x="376" y="0" on="1"/>
      </contour>
      <contour>
        <pt x="41" y="713" on="1"/>
        <pt x="41" y="747" on="1"/>
        <pt x="387" y="747" on="1"/>
        <pt x="387" y="713" on="1"/>
        <pt x="232" y="698" on="1"/>
        <pt x="202" y="698" on="1"/>
      </contour>
      <contour>
        <pt x="465" y="0" on="1"/>
        <pt x="465" y="34" on="1"/>
        <pt x="614" y="50" on="1"/>
        <pt x="639" y="50" on="1"/>
        <pt x="783" y="34" on="1"/>
        <pt x="783" y="0" on="1"/>
      </contour>
      <contour>
        <pt x="484" y="713" on="1"/>
        <pt x="484" y="747" on="1"/>
        <pt x="746" y="747" on="1"/>
        <pt x="746" y="713" on="1"/>
        <pt x="631" y="698" on="1"/>
        <pt x="600" y="697" on="1"/>
      </contour>
      <contour>
        <pt x="210" y="187" on="1"/>
        <pt x="208" y="257" on="1"/>
        <pt x="230" y="257" on="1"/>
        <pt x="256" y="291" on="1"/>
        <pt x="625" y="747" on="1"/>
        <pt x="680" y="747" on="1"/>
      </contour>
      <contour>
        <pt x="556" y="0" on="1"/>
        <pt x="359" y="384" on="1"/>
        <pt x="466" y="509" on="1"/>
        <pt x="741" y="0" on="1"/>
      </contour>
    </TTGlyph>
    <TTGlyph name="L" xMin="41" yMin="0" xMax="619" yMax="747">
      <contour>
        <pt x="41" y="0" on="1"/>
        <pt x="42" y="34" on="1"/>
        <pt x="202" y="50" on="1"/>
        <pt x="219" y="50" on="1"/>
        <pt x="218" y="0" on="1"/>
      </contour>
      <contour>
        <pt x="130" y="0" on="1"/>
        <pt x="132" y="86" on="0"/>
        <pt x="133" y="255" on="0"/>
        <pt x="133" y="324" on="1"/>
        <pt x="133" y="395" on="1"/>
        <pt x="133" y="484" on="0"/>
        <pt x="132" y="660" on="0"/>
        <pt x="130" y="747" on="1"/>
        <pt x="306" y="747" on="1"/>
        <pt x="304" y="661" on="0"/>
        <pt x="303" y="488" on="0"/>
        <pt x="303" y="411" on="1"/>
        <pt x="303" y="346" on="1"/>
        <pt x="303" y="263" on="0"/>
        <pt x="304" y="88" on="0"/>
        <pt x="306" y="0" on="1"/>
      </contour>
      <contour>
        <pt x="218" y="0" on="1"/>
        <pt x="219" y="39" on="1"/>
        <pt x="588" y="39" on="1"/>
        <pt x="503" y="2" on="1"/>
        <pt x="562" y="224" on="1"/>
        <pt x="617" y="224" on="1"/>
        <pt x="619" y="0" on="1"/>
      </contour>
      <contour>
        <pt x="41" y="713" on="1"/>
        <pt x="41" y="747" on="1"/>
        <pt x="403" y="747" on="1"/>
        <pt x="403" y="713" on="1"/>
        <pt x="240" y="698" on="1"/>
        <pt x="202" y="698" on="1"/>
      </contour>
    </TTGlyph>
    <TTGlyph name="M" xMin="24" yMin="0" xMax="973" yMax="747">
      <contour>
        <pt x="24" y="0" on="1"/>
        <pt x="24" y="34" on="1"/>
        <pt x="148" y="50" on="1"/>
        <pt x="172" y="50" on="1"/>
        <pt x="295" y="34" on="1"/>
        <pt x="295" y="0" on="1"/>
      </contour>
      <contour>
        <pt x="40" y="713" on="1"/>
        <pt x="40" y="747" on="1"/>
        <pt x="198" y="747" on="1"/>
        <pt x="198" y="698" on="1"/>
        <pt x="182" y="698" on="1"/>
      </contour>
      <contour>
        <pt x="133" y="0" on="1"/>
        <pt x="137" y="747" on="1"/>
        <pt x="176" y="747" on="1"/>
        <pt x="182" y="346" on="1"/>
        <pt x="182" y="0" on="1"/>
      </contour>
      <contour>
        <pt x="424" y="0" on="1"/>
        <pt x="157" y="700" on="1"/>
        <pt x="150" y="700" on="1"/>
        <pt x="150" y="747" on="1"/>
        <pt x="313" y="747" on="1"/>
        <pt x="525" y="179" on="1"/>
        <pt x="497" y="179" on="1"/>
        <pt x="504" y="198" on="1"/>
        <pt x="709" y="747" on="1"/>
        <pt x="767" y="747" on="1"/>
        <pt x="767" y="700" on="1"/>
        <pt x="735" y="700" on="1"/>
        <pt x="722" y="665" on="1"/>
        <pt x="476" y="0" on="1"/>
      </contour>
      <contour>
        <pt x="621" y="0" on="1"/>
        <pt x="621" y="34" on="1"/>
        <pt x="782" y="50" on="1"/>
        <pt x="811" y="50" on="1"/>
        <pt x="973" y="34" on="1"/>
        <pt x="973" y="0" on="1"/>
      </contour>
      <contour>
        <pt x="708" y="0" on="1"/>
        <pt x="711" y="88" on="0"/>
        <pt x="711" y="258" on="0"/>
        <pt x="712" y="327" on="1"/>
        <pt x="716" y="747" on="1"/>
        <pt x="884" y="747" on="1"/>
        <pt x="881" y="660" on="0"/>
        <pt x="880" y="484" on="0"/>
        <pt x="880" y="395" on="1"/>
        <pt x="880" y="351" on="1"/>
        <pt x="880" y="262" on="0"/>
        <pt x="881" y="86" on="0"/>
        <pt x="884" y="0" on="1"/>
      </contour>
      <contour>
        <pt x="795" y="698" on="1"/>
        <pt x="795" y="747" on="1"/>
        <pt x="970" y="747" on="1"/>
        <pt x="970" y="713" on="1"/>
        <pt x="812" y="698" on="1"/>
      </contour>
    </TTGlyph>
    <TTGlyph name="N" xMin="35" yMin="-2" xMax="792" yMax="747">
      <contour>
        <pt x="35" y="0" on="1"/>
        <pt x="35" y="34" on="1"/>
        <pt x="140" y="50" on="1"/>
        <pt x="171" y="50" on="1"/>
        <pt x="312" y="34" on="1"/>
        <pt x="312" y="0" on="1"/>
      </contour>
      <contour>
        <pt x="133" y="0" on="1"/>
        <pt x="133" y="718" on="1"/>
        <pt x="171" y="718" on="1"/>
        <pt x="185" y="230" on="1"/>
        <pt x="185" y="0" on="1"/>
      </contour>
      <contour>
        <pt x="514" y="713" on="1"/>
        <pt x="514" y="747" on="1"/>
        <pt x="792" y="747" on="1"/>
        <pt x="792" y="713" on="1"/>
        <pt x="687" y="698" on="1"/>
        <pt x="657" y="698" on="1"/>
      </contour>
      <contour>
        <pt x="605" y="-2" on="1"/>
        <pt x="159" y="642" on="1"/>
        <pt x="156" y="646" on="1"/>
        <pt x="117" y="705" on="1"/>
        <pt x="41" y="713" on="1"/>
        <pt x="41" y="747" on="1"/>
        <pt x="287" y="747" on="1"/>
        <pt x="673" y="189" on="1"/>
        <pt x="653" y="182" on="1"/>
        <pt x="649" y="478" on="1"/>
        <pt x="649" y="747" on="1"/>
        <pt x="693" y="747" on="1"/>
        <pt x="693" y="-2" on="1"/>
      </contour>
    </TTGlyph>
    <TTGlyph name="O" xMin="43" yMin="-20" xMax="752" yMax="767">
      <contour>
        <pt x="398" y="-20" on="1"/>
        <pt x="328" y="-20" on="0"/>
        <pt x="200" y="30" on="0"/>
        <pt x="100" y="129" on="0"/>
        <pt x="43" y="276" on="0"/>
        <pt x="43" y="374" on="1"/>
        <pt x="43" y="471" on="0"/>
        <pt x="100" y="618" on="0"/>
        <pt x="200" y="717" on="0"/>
        <pt x="328" y="767" on="0"/>
        <pt x="398" y="767" on="1"/>
        <pt x="469" y="767" on="0"/>
        <pt x="596" y="717" on="0"/>
        <pt x="695" y="618" on="0"/>
        <pt x="752" y="471" on="0"/>
        <pt x="752" y="374" on="1"/>
        <pt x="752" y="277" on="0"/>
        <pt x="695" y="129" on="0"/>
        <pt x="596" y="30" on="0"/>
        <pt x="469" y="-20" on="0"/>
      </contour>
      <contour>
        <pt x="398" y="18" on="1"/>
        <pt x="444" y="18" on="0"/>
        <pt x="510" y="71" on="0"/>
        <pt x="553" y="167" on="0"/>
        <pt x="574" y="297" on="0"/>
        <pt x="574" y="374" on="1"/>
        <pt x="574" y="451" on="0"/>
        <pt x="553" y="580" on="0"/>
        <pt x="510" y="676" on="0"/>
        <pt x="444" y="729" on="0"/>
        <pt x="398" y="729" on="1"/>
        <pt x="352" y="729" on="0"/>
        <pt x="285" y="676" on="0"/>
        <pt x="242" y="580" on="0"/>
        <pt x="221" y="451" on="0"/>
        <pt x="221" y="374" on="1"/>
        <pt x="221" y="297" on="0"/>
        <pt x="242" y="167" on="0"/>
        <pt x="285" y="71" on="0"/>
        <pt x="352" y="18" on="0"/>
      </contour>
    </TTGlyph>
    <TTGlyph name="P" xMin="41" yMin="0" xMax="665" yMax="747">
      <contour>
        <pt x="41" y="0" on="1"/>
        <pt x="41" y="34" on="1"/>
        <pt x="202" y="50" on="1"/>
        <pt x="250" y="50" on="1"/>
        <pt x="412" y="34" on="1"/>
        <pt x="412" y="0" on="1"/>
      </contour>
      <contour>
        <pt x="130" y="0" on="1"/>
        <pt x="132" y="86" on="0"/>
        <pt x="133" y="262" on="0"/>
        <pt x="133" y="351" on="1"/>
        <pt x="133" y="395" on="1"/>
        <pt x="133" y="484" on="0"/>
        <pt x="132" y="659" on="0"/>
        <pt x="130" y="747" on="1"/>
        <pt x="306" y="747" on="1"/>
        <pt x="304" y="661" on="0"/>
        <pt x="303" y="484" on="0"/>
        <pt x="303" y="395" on="1"/>
        <pt x="303" y="325" on="1"/>
        <pt x="303" y="256" on="0"/>
        <pt x="304" y="88" on="0"/>
        <pt x="306" y="0" on="1"/>
      </contour>
      <contour>
        <pt x="218" y="299" on="1"/>
        <pt x="218" y="337" on="1"/>
        <pt x="337" y="337" on="1"/>
        <pt x="395" y="337" on="0"/>
        <pt x="469" y="385" on="0"/>
        <pt x="506" y="470" on="0"/>
        <pt x="506" y="526" on="1"/>
        <pt x="506" y="617" on="0"/>
        <pt x="424" y="709" on="0"/>
        <pt x="344" y="709" on="1"/>
        <pt x="218" y="709" on="1"/>
        <pt x="218" y="747" on="1"/>
        <pt x="344" y="747" on="1"/>
        <pt x="516" y="747" on="0"/>
        <pt x="665" y="631" on="0"/>
        <pt x="665" y="525" on="1"/>
        <pt x="665" y="463" on="0"/>
        <pt x="602" y="360" on="0"/>
        <pt x="460" y="299" on="0"/>
        <pt x="341" y="299" on="1"/>
      </contour>
      <contour>
        <pt x="41" y="713" on="1"/>
        <pt x="41" y="747" on="1"/>
        <pt x="218" y="747" on="1"/>
        <pt x="218" y="698" on="1"/>
        <pt x="202" y="698" on="1"/>
      </contour>
    </TTGlyph>
    <TTGlyph name="Q" xMin="43" yMin="-230" xMax="752" yMax="767">
      <contour>
        <pt x="560" y="-230" on="1"/>
        <pt x="476" y="-230" on="0"/>
        <pt x="367" y="-167" on="0"/>
        <pt x="313" y="-64" on="0"/>
        <pt x="313" y="-3" on="1"/>
        <pt x="313" y="5" on="1"/>
        <pt x="475" y="5" on="1"/>
        <pt x="465" y="-80" on="0"/>
        <pt x="544" y="-180" on="0"/>
        <pt x="616" y="-180" on="1"/>
        <pt x="638" y="-180" on="0"/>
        <pt x="674" y="-174" on="0"/>
        <pt x="695" y="-164" on="1"/>
        <pt x="707" y="-193" on="1"/>
        <pt x="677" y="-210" on="0"/>
        <pt x="601" y="-230" on="0"/>
      </contour>
      <contour>
        <pt x="398" y="-20" on="1"/>
        <pt x="328" y="-20" on="0"/>
        <pt x="200" y="30" on="0"/>
        <pt x="100" y="129" on="0"/>
        <pt x="43" y="276" on="0"/>
        <pt x="43" y="374" on="1"/>
        <pt x="43" y="471" on="0"/>
        <pt x="100" y="618" on="0"/>
        <pt x="200" y="717" on="0"/>
        <pt x="328" y="767" on="0"/>
        <pt x="398" y="767" on="1"/>
        <pt x="469" y="767" on="0"/>
        <pt x="596" y="717" on="0"/>
        <pt x="695" y="618" on="0"/>
        <pt x="752" y="471" on="0"/>
        <pt x="752" y="374" on="1"/>
        <pt x="752" y="277" on="0"/>
        <pt x="695" y="129" on="0"/>
        <pt x="596" y="30" on="0"/>
        <pt x="469" y="-20" on="0"/>
      </contour>
      <contour>
        <pt x="398" y="18" on="1"/>
        <pt x="444" y="18" on="0"/>
        <pt x="510" y="71" on="0"/>
        <pt x="553" y="167" on="0"/>
        <pt x="574" y="297" on="0"/>
        <pt x="574" y="374" on="1"/>
        <pt x="574" y="451" on="0"/>
        <pt x="553" y="580" on="0"/>
        <pt x="510" y="676" on="0"/>
        <pt x="444" y="729" on="0"/>
        <pt x="398" y="729" on="1"/>
        <pt x="352" y="729" on="0"/>
        <pt x="285" y="676" on="0"/>
        <pt x="242" y="580" on="0"/>
        <pt x="221" y="451" on="0"/>
        <pt x="221" y="374" on="1"/>
        <pt x="221" y="297" on="0"/>
        <pt x="242" y="167" on="0"/>
        <pt x="285" y="71" on="0"/>
        <pt x="352" y="18" on="0"/>
      </contour>
    </TTGlyph>
    <TTGlyph name="R" xMin="41" yMin="-15" xMax="764" yMax="747">
      <contour>
        <pt x="41" y="0" on="1"/>
        <pt x="41" y="34" on="1"/>
        <pt x="202" y="50" on="1"/>
        <pt x="235" y="50" on="1"/>
        <pt x="395" y="34" on="1"/>
        <pt x="395" y="0" on="1"/>
      </contour>
      <contour>
        <pt x="130" y="0" on="1"/>
        <pt x="132" y="86" on="0"/>
        <pt x="133" y="262" on="0"/>
        <pt x="133" y="351" on="1"/>
        <pt x="133" y="395" on="1"/>
        <pt x="133" y="484" on="0"/>
        <pt x="132" y="659" on="0"/>
        <pt x="130" y="747" on="1"/>
        <pt x="304" y="747" on="1"/>
        <pt x="301" y="661" on="0"/>
        <pt x="300" y="483" on="0"/>
        <pt x="300" y="385" on="1"/>
        <pt x="300" y="356" on="1"/>
        <pt x="300" y="265" on="0"/>
        <pt x="301" y="88" on="0"/>
        <pt x="304" y="0" on="1"/>
      </contour>
      <contour>
        <pt x="645" y="-15" on="1"/>
        <pt x="576" y="-15" on="0"/>
        <pt x="500" y="32" on="0"/>
        <pt x="492" y="93" on="1"/>
        <pt x="463" y="231" on="1"/>
        <pt x="456" y="272" on="0"/>
        <pt x="432" y="326" on="0"/>
        <pt x="387" y="353" on="0"/>
        <pt x="348" y="353" on="1"/>
        <pt x="220" y="353" on="1"/>
        <pt x="220" y="390" on="1"/>
        <pt x="358" y="390" on="1"/>
        <pt x="414" y="390" on="0"/>
        <pt x="482" y="435" on="0"/>
        <pt x="513" y="510" on="0"/>
        <pt x="513" y="556" on="1"/>
        <pt x="513" y="630" on="0"/>
        <pt x="435" y="709" on="0"/>
        <pt x="359" y="709" on="1"/>
        <pt x="218" y="709" on="1"/>
        <pt x="218" y="747" on="1"/>
        <pt x="402" y="747" on="1"/>
        <pt x="533" y="747" on="0"/>
        <pt x="673" y="648" on="0"/>
        <pt x="673" y="559" on="1"/>
        <pt x="673" y="513" on="0"/>
        <pt x="621" y="431" on="0"/>
        <pt x="499" y="375" on="0"/>
        <pt x="395" y="369" on="1"/>
        <pt x="395" y="381" on="1"/>
        <pt x="488" y="378" on="0"/>
        <pt x="588" y="337" on="0"/>
        <pt x="634" y="261" on="0"/>
        <pt x="644" y="204" on="1"/>
        <pt x="681" y="9" on="1"/>
        <pt x="596" y="45" on="1"/>
        <pt x="764" y="34" on="1"/>
        <pt x="764" y="0" on="1"/>
        <pt x="733" y="-7" on="0"/>
        <pt x="683" y="-15" on="0"/>
      </contour>
      <contour>
        <pt x="41" y="713" on="1"/>
        <pt x="41" y="747" on="1"/>
        <pt x="218" y="747" on="1"/>
        <pt x="218" y="698" on="1"/>
        <pt x="202" y="698" on="1"/>
      </contour>
    </TTGlyph>
    <TTGlyph name="S" xMin="51" yMin="-20" xMax="574" yMax="767">
      <contour>
        <pt x="284" y="-20" on="1"/>
        <pt x="223" y="-20" on="0"/>
        <pt x="96" y="11" on="0"/>
        <pt x="51" y="40" on="1"/>
        <pt x="58" y="212" on="1"/>
        <pt x="116" y="212" on="1"/>
        <pt x="177" y="10" on="1"/>
        <pt x="107" y="39" on="1"/>
        <pt x="93" y="79" on="1"/>
        <pt x="143" y="45" on="0"/>
        <pt x="218" y="23" on="0"/>
        <pt x="267" y="23" on="1"/>
        <pt x="341" y="23" on="0"/>
        <pt x="420" y="90" on="0"/>
        <pt x="420" y="148" on="1"/>
        <pt x="420" y="182" on="0"/>
        <pt x="399" y="230" on="0"/>
        <pt x="352" y="268" on="0"/>
        <pt x="312" y="286" on="1"/>
        <pt x="264" y="307" on="1"/>
        <pt x="164" y="353" on="0"/>
        <pt x="59" y="465" on="0"/>
        <pt x="59" y="555" on="1"/>
        <pt x="59" y="623" on="0"/>
        <pt x="128" y="717" on="0"/>
        <pt x="251" y="767" on="0"/>
        <pt x="332" y="767" on="1"/>
        <pt x="391" y="767" on="0"/>
        <pt x="495" y="737" on="0"/>
        <pt x="535" y="710" on="1"/>
        <pt x="527" y="546" on="1"/>
        <pt x="469" y="546" on="1"/>
        <pt x="411" y="738" on="1"/>
        <pt x="487" y="707" on="1"/>
        <pt x="497" y="663" on="1"/>
        <pt x="453" y="698" on="0"/>
        <pt x="394" y="725" on="0"/>
        <pt x="353" y="725" on="1"/>
        <pt x="288" y="725" on="0"/>
        <pt x="208" y="662" on="0"/>
        <pt x="208" y="606" on="1"/>
        <pt x="208" y="554" on="0"/>
        <pt x="264" y="492" on="0"/>
        <pt x="317" y="468" on="1"/>
        <pt x="369" y="444" on="1"/>
        <pt x="444" y="411" on="0"/>
        <pt x="534" y="343" on="0"/>
        <pt x="574" y="261" on="0"/>
        <pt x="574" y="204" on="1"/>
        <pt x="574" y="138" on="0"/>
        <pt x="507" y="37" on="0"/>
        <pt x="378" y="-20" on="0"/>
      </contour>
    </TTGlyph>
    <TTGlyph name="T" xMin="23" yMin="0" xMax="691" yMax="747">
      <contour>
        <pt x="169" y="0" on="1"/>
        <pt x="169" y="34" on="1"/>
        <pt x="332" y="50" on="1"/>
        <pt x="378" y="50" on="1"/>
        <pt x="546" y="34" on="1"/>
        <pt x="546" y="0" on="1"/>
      </contour>
      <contour>
        <pt x="269" y="0" on="1"/>
        <pt x="271" y="86" on="0"/>
        <pt x="272" y="262" on="0"/>
        <pt x="272" y="351" on="1"/>
        <pt x="272" y="395" on="1"/>
        <pt x="272" y="484" on="0"/>
        <pt x="271" y="659" on="0"/>
        <pt x="269" y="747" on="1"/>
        <pt x="445" y="747" on="1"/>
        <pt x="443" y="661" on="0"/>
        <pt x="442" y="484" on="0"/>
        <pt x="442" y="395" on="1"/>
        <pt x="442" y="352" on="1"/>
        <pt x="442" y="264" on="0"/>
        <pt x="443" y="88" on="0"/>
        <pt x="445" y="0" on="1"/>
      </contour>
      <contour>
        <pt x="23" y="531" on="1"/>
        <pt x="27" y="747" on="1"/>
        <pt x="687" y="747" on="1"/>
        <pt x="691" y="531" on="1"/>
        <pt x="633" y="531" on="1"/>
        <pt x="571" y="747" on="1"/>
        <pt x="651" y="708" on="1"/>
        <pt x="62" y="708" on="1"/>
        <pt x="143" y="747" on="1"/>
        <pt x="82" y="531" on="1"/>
      </contour>
    </TTGlyph>
    <TTGlyph name="U" xMin="36" yMin="-20" xMax="802" yMax="747">
      <contour>
        <pt x="417" y="-20" on="1"/>
        <pt x="331" y="-20" on="0"/>
        <pt x="199" y="40" on="0"/>
        <pt x="125" y="179" on="0"/>
        <pt x="125" y="297" on="1"/>
        <pt x="125" y="406" on="1"/>
        <pt x="125" y="490" on="0"/>
        <pt x="124" y="662" on="0"/>
        <pt x="121" y="747" on="1"/>
        <pt x="297" y="747" on="1"/>
        <pt x="296" y="662" on="0"/>
        <pt x="295" y="492" on="0"/>
        <pt x="295" y="406" on="1"/>
        <pt x="295" y="312" on="1"/>
        <pt x="295" y="221" on="0"/>
        <pt x="335" y="111" on="0"/>
        <pt x="413" y="62" on="0"/>
        <pt x="470" y="62" on="1"/>
        <pt x="557" y="62" on="0"/>
        <pt x="653" y="180" on="0"/>
        <pt x="651" y="316" on="1"/>
        <pt x="647" y="747" on="1"/>
        <pt x="699" y="747" on="1"/>
        <pt x="695" y="314" on="1"/>
        <pt x="693" y="142" on="0"/>
        <pt x="551" y="-20" on="0"/>
      </contour>
      <contour>
        <pt x="36" y="713" on="1"/>
        <pt x="36" y="747" on="1"/>
        <pt x="392" y="747" on="1"/>
        <pt x="392" y="713" on="1"/>
        <pt x="228" y="698" on="1"/>
        <pt x="198" y="698" on="1"/>
      </contour>
      <contour>
        <pt x="533" y="713" on="1"/>
        <pt x="533" y="747" on="1"/>
        <pt x="802" y="747" on="1"/>
        <pt x="802" y="713" on="1"/>
        <pt x="689" y="697" on="1"/>
        <pt x="657" y="697" on="1"/>
      </contour>
    </TTGlyph>
    <TTGlyph name="V" xMin="6" yMin="-2" xMax="740" yMax="747">
      <contour>
        <pt x="320" y="-2" on="1"/>
        <pt x="56" y="747" on="1"/>
        <pt x="238" y="747" on="1"/>
        <pt x="437" y="138" on="1"/>
        <pt x="421" y="138" on="1"/>
        <pt x="426" y="152" on="1"/>
        <pt x="616" y="747" on="1"/>
        <pt x="675" y="747" on="1"/>
        <pt x="412" y="-2" on="1"/>
      </contour>
      <contour>
        <pt x="6" y="713" on="1"/>
        <pt x="6" y="747" on="1"/>
        <pt x="360" y="747" on="1"/>
        <pt x="360" y="716" on="1"/>
        <pt x="199" y="698" on="1"/>
        <pt x="163" y="698" on="1"/>
      </contour>
      <contour>
        <pt x="494" y="716" on="1"/>
        <pt x="494" y="747" on="1"/>
        <pt x="740" y="747" on="1"/>
        <pt x="740" y="717" on="1"/>
        <pt x="634" y="698" on="1"/>
        <pt x="619" y="698" on="1"/>
      </contour>
    </TTGlyph>
    <TTGlyph name="W" xMin="9" yMin="-2" xMax="1108" yMax="747">
      <contour>
        <pt x="284" y="-2" on="1"/>
        <pt x="63" y="747" on="1"/>
        <pt x="244" y="747" on="1"/>
        <pt x="399" y="145" on="1"/>
        <pt x="381" y="145" on="1"/>
        <pt x="385" y="160" on="1"/>
        <pt x="553" y="747" on="1"/>
        <pt x="655" y="747" on="1"/>
        <pt x="826" y="140" on="1"/>
        <pt x="808" y="140" on="1"/>
        <pt x="811" y="157" on="1"/>
        <pt x="972" y="747" on="1"/>
        <pt x="1030" y="747" on="1"/>
        <pt x="806" y="-2" on="1"/>
        <pt x="713" y="-2" on="1"/>
        <pt x="534" y="590" on="1"/>
        <pt x="554" y="590" on="1"/>
        <pt x="550" y="576" on="1"/>
        <pt x="377" y="-2" on="1"/>
      </contour>
      <contour>
        <pt x="9" y="713" on="1"/>
        <pt x="9" y="747" on="1"/>
        <pt x="347" y="747" on="1"/>
        <pt x="347" y="713" on="1"/>
        <pt x="196" y="698" on="1"/>
        <pt x="161" y="698" on="1"/>
      </contour>
      <contour>
        <pt x="446" y="713" on="1"/>
        <pt x="446" y="747" on="1"/>
        <pt x="774" y="747" on="1"/>
        <pt x="774" y="713" on="1"/>
        <pt x="637" y="698" on="1"/>
        <pt x="572" y="698" on="1"/>
      </contour>
      <contour>
        <pt x="867" y="713" on="1"/>
        <pt x="867" y="747" on="1"/>
        <pt x="1108" y="747" on="1"/>
        <pt x="1108" y="713" on="1"/>
        <pt x="1002" y="698" on="1"/>
        <pt x="973" y="698" on="1"/>
      </contour>
    </TTGlyph>
    <TTGlyph name="X" xMin="10" yMin="0" xMax="727" yMax="747">
      <contour>
        <pt x="10" y="0" on="1"/>
        <pt x="10" y="34" on="1"/>
        <pt x="121" y="50" on="1"/>
        <pt x="147" y="50" on="1"/>
        <pt x="253" y="34" on="1"/>
        <pt x="253" y="0" on="1"/>
      </contour>
      <contour>
        <pt x="67" y="0" on="1"/>
        <pt x="337" y="401" on="1"/>
        <pt x="366" y="382" on="1"/>
        <pt x="360" y="382" on="1"/>
        <pt x="340" y="347" on="1"/>
        <pt x="127" y="0" on="1"/>
      </contour>
      <contour>
        <pt x="370" y="0" on="1"/>
        <pt x="370" y="34" on="1"/>
        <pt x="530" y="50" on="1"/>
        <pt x="579" y="50" on="1"/>
        <pt x="727" y="34" on="1"/>
        <pt x="727" y="0" on="1"/>
      </contour>
      <contour>
        <pt x="402" y="395" on="1"/>
        <pt x="370" y="410" on="1"/>
        <pt x="376" y="410" on="1"/>
        <pt x="395" y="444" on="1"/>
        <pt x="579" y="747" on="1"/>
        <pt x="634" y="747" on="1"/>
      </contour>
      <contour>
        <pt x="493" y="0" on="1"/>
        <pt x="59" y="747" on="1"/>
        <pt x="246" y="747" on="1"/>
        <pt x="680" y="0" on="1"/>
      </contour>
      <contour>
        <pt x="19" y="713" on="1"/>
        <pt x="19" y="747" on="1"/>
        <pt x="368" y="747" on="1"/>
        <pt x="368" y="713" on="1"/>
        <pt x="220" y="698" on="1"/>
        <pt x="167" y="698" on="1"/>
      </contour>
      <contour>
        <pt x="457" y="713" on="1"/>
        <pt x="457" y="747" on="1"/>
        <pt x="695" y="747" on="1"/>
        <pt x="695" y="713" on="1"/>
        <pt x="586" y="699" on="1"/>
        <pt x="559" y="699" on="1"/>
      </contour>
    </TTGlyph>
    <TTGlyph name="Y" xMin="15" yMin="0" xMax="709" yMax="747">
      <contour>
        <pt x="169" y="0" on="1"/>
        <pt x="169" y="34" on="1"/>
        <pt x="332" y="50" on="1"/>
        <pt x="378" y="50" on="1"/>
        <pt x="545" y="34" on="1"/>
        <pt x="545" y="0" on="1"/>
      </contour>
      <contour>
        <pt x="269" y="0" on="1"/>
        <pt x="270" y="39" on="0"/>
        <pt x="271" y="106" on="0"/>
        <pt x="272" y="181" on="0"/>
        <pt x="272" y="278" on="0"/>
        <pt x="272" y="347" on="1"/>
        <pt x="442" y="347" on="1"/>
        <pt x="442" y="279" on="0"/>
        <pt x="442" y="182" on="0"/>
        <pt x="442" y="107" on="0"/>
        <pt x="443" y="39" on="0"/>
        <pt x="444" y="0" on="1"/>
      </contour>
      <contour>
        <pt x="293" y="250" on="1"/>
        <pt x="49" y="747" on="1"/>
        <pt x="242" y="747" on="1"/>
        <pt x="434" y="330" on="1"/>
        <pt x="404" y="330" on="1"/>
        <pt x="412" y="348" on="1"/>
        <pt x="594" y="747" on="1"/>
        <pt x="650" y="747" on="1"/>
        <pt x="406" y="250" on="1"/>
      </contour>
      <contour>
        <pt x="15" y="713" on="1"/>
        <pt x="15" y="747" on="1"/>
        <pt x="361" y="747" on="1"/>
        <pt x="361" y="713" on="1"/>
        <pt x="221" y="698" on="1"/>
        <pt x="174" y="698" on="1"/>
      </contour>
      <contour>
        <pt x="475" y="713" on="1"/>
        <pt x="475" y="747" on="1"/>
        <pt x="709" y="747" on="1"/>
        <pt x="709" y="713" on="1"/>
        <pt x="610" y="698" on="1"/>
        <pt x="585" y="698" on="1"/>
      </contour>
    </TTGlyph>
    <TTGlyph name="Z" xMin="25" yMin="0" xMax="607" yMax="747">
      <contour>
        <pt x="25" y="0" on="1"/>
        <pt x="25" y="48" on="1"/>
        <pt x="433" y="733" on="1"/>
        <pt x="423" y="691" on="1"/>
        <pt x="423" y="708" on="1"/>
        <pt x="267" y="708" on="1"/>
        <pt x="118" y="708" on="1"/>
        <pt x="157" y="736" on="1"/>
        <pt x="102" y="531" on="1"/>
        <pt x="40" y="531" on="1"/>
        <pt x="49" y="747" on="1"/>
        <pt x="600" y="747" on="1"/>
        <pt x="600" y="699" on="1"/>
        <pt x="193" y="12" on="1"/>
        <pt x="201" y="68" on="1"/>
        <pt x="201" y="39" on="1"/>
        <pt x="370" y="39" on="1"/>
        <pt x="528" y="39" on="1"/>
        <pt x="488" y="10" on="1"/>
        <pt x="553" y="223" on="1"/>
        <pt x="607" y="223" on="1"/>
        <pt x="604" y="0" on="1"/>
      </contour>
    </TTGlyph>
    <TTGlyph name="a" xMin="39" yMin="-17" xMax="600" yMax="563">
      <contour>
        <pt x="185" y="-17" on="1"/>
        <pt x="121" y="-17" on="0"/>
        <pt x="39" y="56" on="0"/>
        <pt x="39" y="119" on="1"/>
        <pt x="39" y="165" on="0"/>
        <pt x="78" y="232" on="0"/>
        <pt x="172" y="284" on="0"/>
        <pt x="253" y="306" on="1"/>
        <pt x="291" y="317" on="0"/>
        <pt x="394" y="343" on="0"/>
        <pt x="434" y="353" on="1"/>
        <pt x="434" y="327" on="1"/>
        <pt x="394" y="317" on="0"/>
        <pt x="315" y="295" on="0"/>
        <pt x="292" y="287" on="1"/>
        <pt x="243" y="266" on="0"/>
        <pt x="188" y="195" on="0"/>
        <pt x="188" y="140" on="1"/>
        <pt x="188" y="95" on="0"/>
        <pt x="229" y="51" on="0"/>
        <pt x="263" y="51" on="1"/>
        <pt x="276" y="51" on="0"/>
        <pt x="309" y="64" on="0"/>
        <pt x="354" y="101" on="0"/>
        <pt x="385" y="136" on="1"/>
        <pt x="404" y="80" on="1"/>
        <pt x="363" y="80" on="1"/>
        <pt x="335" y="49" on="0"/>
        <pt x="286" y="6" on="0"/>
        <pt x="227" y="-17" on="0"/>
      </contour>
      <contour>
        <pt x="471" y="-16" on="1"/>
        <pt x="416" y="-16" on="0"/>
        <pt x="358" y="42" on="0"/>
        <pt x="350" y="91" on="1"/>
        <pt x="350" y="93" on="1"/>
        <pt x="350" y="393" on="1"/>
        <pt x="350" y="445" on="0"/>
        <pt x="332" y="504" on="0"/>
        <pt x="288" y="528" on="0"/>
        <pt x="250" y="528" on="1"/>
        <pt x="226" y="528" on="0"/>
        <pt x="174" y="518" on="0"/>
        <pt x="136" y="505" on="1"/>
        <pt x="208" y="529" on="1"/>
        <pt x="201" y="453" on="1"/>
        <pt x="199" y="401" on="0"/>
        <pt x="155" y="358" on="0"/>
        <pt x="126" y="358" on="1"/>
        <pt x="70" y="358" on="0"/>
        <pt x="56" y="410" on="1"/>
        <pt x="63" y="480" on="0"/>
        <pt x="191" y="563" on="0"/>
        <pt x="307" y="563" on="1"/>
        <pt x="414" y="563" on="0"/>
        <pt x="508" y="466" on="0"/>
        <pt x="508" y="357" on="1"/>
        <pt x="508" y="88" on="1"/>
        <pt x="508" y="60" on="0"/>
        <pt x="523" y="37" on="0"/>
        <pt x="537" y="37" on="1"/>
        <pt x="548" y="37" on="0"/>
        <pt x="568" y="53" on="0"/>
        <pt x="582" y="75" on="1"/>
        <pt x="600" y="62" on="1"/>
        <pt x="581" y="21" on="0"/>
        <pt x="520" y="-16" on="0"/>
      </contour>
    </TTGlyph>
    <TTGlyph name="b" xMin="31" yMin="-17" xMax="654" yMax="826">
      <contour>
        <pt x="36" y="0" on="1"/>
        <pt x="36" y="31" on="1"/>
        <pt x="102" y="36" on="1"/>
        <pt x="103" y="66" on="0"/>
        <pt x="103" y="138" on="0"/>
        <pt x="104" y="210" on="0"/>
        <pt x="104" y="238" on="1"/>
        <pt x="104" y="749" on="1"/>
        <pt x="31" y="756" on="1"/>
        <pt x="31" y="783" on="1"/>
        <pt x="253" y="826" on="1"/>
        <pt x="266" y="817" on="1"/>
        <pt x="263" y="656" on="1"/>
        <pt x="263" y="479" on="1"/>
        <pt x="266" y="469" on="1"/>
        <pt x="266" y="78" on="1"/>
        <pt x="266" y="76" on="1"/>
        <pt x="240" y="-15" on="1"/>
      </contour>
      <contour>
        <pt x="420" y="-17" on="1"/>
        <pt x="366" y="-17" on="0"/>
        <pt x="274" y="37" on="0"/>
        <pt x="239" y="91" on="1"/>
        <pt x="228" y="91" on="1"/>
        <pt x="249" y="104" on="1"/>
        <pt x="274" y="76" on="0"/>
        <pt x="322" y="54" on="0"/>
        <pt x="349" y="54" on="1"/>
        <pt x="384" y="54" on="0"/>
        <pt x="445" y="90" on="0"/>
        <pt x="482" y="188" on="0"/>
        <pt x="482" y="279" on="1"/>
        <pt x="482" y="396" on="0"/>
        <pt x="408" y="494" on="0"/>
        <pt x="352" y="494" on="1"/>
        <pt x="333" y="494" on="0"/>
        <pt x="295" y="486" on="0"/>
        <pt x="251" y="456" on="0"/>
        <pt x="221" y="423" on="1"/>
        <pt x="207" y="452" on="1"/>
        <pt x="230" y="452" on="1"/>
        <pt x="272" y="509" on="0"/>
        <pt x="374" y="563" on="0"/>
        <pt x="432" y="563" on="1"/>
        <pt x="495" y="563" on="0"/>
        <pt x="595" y="497" on="0"/>
        <pt x="654" y="369" on="0"/>
        <pt x="654" y="275" on="1"/>
        <pt x="654" y="193" on="0"/>
        <pt x="594" y="61" on="0"/>
        <pt x="489" y="-17" on="0"/>
      </contour>
    </TTGlyph>
    <TTGlyph name="c" xMin="35" yMin="-17" xMax="545" yMax="563">
      <contour>
        <pt x="314" y="-17" on="1"/>
        <pt x="238" y="-17" on="0"/>
        <pt x="111" y="48" on="0"/>
        <pt x="35" y="173" on="0"/>
        <pt x="35" y="264" on="1"/>
        <pt x="35" y="362" on="0"/>
        <pt x="118" y="495" on="0"/>
        <pt x="256" y="563" on="0"/>
        <pt x="339" y="563" on="1"/>
        <pt x="394" y="563" on="0"/>
        <pt x="483" y="521" on="0"/>
        <pt x="539" y="449" on="0"/>
        <pt x="545" y="404" on="1"/>
        <pt x="529" y="351" on="0"/>
        <pt x="478" y="351" on="1"/>
        <pt x="447" y="351" on="0"/>
        <pt x="400" y="394" on="0"/>
        <pt x="398" y="449" on="1"/>
        <pt x="384" y="545" on="1"/>
        <pt x="461" y="499" on="1"/>
        <pt x="433" y="514" on="0"/>
        <pt x="386" y="528" on="0"/>
        <pt x="360" y="528" on="1"/>
        <pt x="316" y="528" on="0"/>
        <pt x="246" y="471" on="0"/>
        <pt x="206" y="363" on="0"/>
        <pt x="206" y="286" on="1"/>
        <pt x="206" y="176" on="0"/>
        <pt x="304" y="54" on="0"/>
        <pt x="386" y="54" on="1"/>
        <pt x="430" y="54" on="0"/>
        <pt x="500" y="94" on="0"/>
        <pt x="525" y="129" on="1"/>
        <pt x="544" y="116" on="1"/>
        <pt x="507" y="47" on="0"/>
        <pt x="399" y="-17" on="0"/>
      </contour>
    </TTGlyph>
    <TTGlyph name="colon" xMin="78" yMin="-17" xMax="262" yMax="552">
      <contour>
        <pt x="170" y="-17" on="1"/>
        <pt x="131" y="-17" on="0"/>
        <pt x="78" y="37" on="0"/>
        <pt x="78" y="74" on="1"/>
        <pt x="78" y="112" on="0"/>
        <pt x="131" y="167" on="0"/>
        <pt x="170" y="167" on="1"/>
        <pt x="209" y="167" on="0"/>
        <pt x="262" y="112" on="0"/>
        <pt x="262" y="74" on="1"/>
        <pt x="262" y="37" on="0"/>
        <pt x="209" y="-17" on="0"/>
      </contour>
      <contour>
        <pt x="170" y="368" on="1"/>
        <pt x="131" y="368" on="0"/>
        <pt x="78" y="422" on="0"/>
        <pt x="78" y="459" on="1"/>
        <pt x="78" y="497" on="0"/>
        <pt x="131" y="552" on="0"/>
        <pt x="170" y="552" on="1"/>
        <pt x="209" y="552" on="0"/>
        <pt x="262" y="497" on="0"/>
        <pt x="262" y="459" on="1"/>
        <pt x="262" y="422" on="0"/>
        <pt x="209" y="368" on="0"/>
      </contour>
    </TTGlyph>
    <TTGlyph name="comma" xMin="67" yMin="-189" xMax="262" yMax="162">
      <contour>
        <pt x="78" y="-189" on="1"/>
        <pt x="67" y="-161" on="1"/>
        <pt x="122" y="-134" on="0"/>
        <pt x="185" y="-69" on="0"/>
        <pt x="198" y="-11" on="1"/>
        <pt x="211" y="-49" on="1"/>
        <pt x="139" y="-12" on="1"/>
        <pt x="106" y="5" on="0"/>
        <pt x="79" y="49" on="0"/>
        <pt x="79" y="71" on="1"/>
        <pt x="79" y="109" on="0"/>
        <pt x="132" y="162" on="0"/>
        <pt x="171" y="162" on="1"/>
        <pt x="194" y="162" on="0"/>
        <pt x="230" y="150" on="0"/>
        <pt x="247" y="134" on="1"/>
        <pt x="255" y="112" on="0"/>
        <pt x="262" y="76" on="0"/>
        <pt x="262" y="52" on="1"/>
        <pt x="262" y="-39" on="0"/>
        <pt x="163" y="-166" on="0"/>
      </contour>
    </TTGlyph>
    <TTGlyph name="d" xMin="35" yMin="-17" xMax="646" yMax="826">
      <contour>
        <pt x="269" y="-17" on="1"/>
        <pt x="204" y="-17" on="0"/>
        <pt x="97" y="51" on="0"/>
        <pt x="35" y="179" on="0"/>
        <pt x="35" y="269" on="1"/>
        <pt x="35" y="360" on="0"/>
        <pt x="104" y="492" on="0"/>
        <pt x="217" y="563" on="0"/>
        <pt x="283" y="563" on="1"/>
        <pt x="337" y="563" on="0"/>
        <pt x="417" y="513" on="0"/>
        <pt x="450" y="462" on="1"/>
        <pt x="459" y="462" on="1"/>
        <pt x="440" y="450" on="1"/>
        <pt x="417" y="474" on="0"/>
        <pt x="370" y="494" on="0"/>
        <pt x="347" y="494" on="1"/>
        <pt x="309" y="494" on="0"/>
        <pt x="246" y="455" on="0"/>
        <pt x="208" y="359" on="0"/>
        <pt x="208" y="275" on="1"/>
        <pt x="208" y="194" on="0"/>
        <pt x="243" y="97" on="0"/>
        <pt x="304" y="54" on="0"/>
        <pt x="342" y="54" on="1"/>
        <pt x="368" y="54" on="0"/>
        <pt x="415" y="74" on="0"/>
        <pt x="437" y="96" on="1"/>
        <pt x="459" y="80" on="1"/>
        <pt x="448" y="80" on="1"/>
        <pt x="415" y="35" on="0"/>
        <pt x="325" y="-17" on="0"/>
      </contour>
      <contour>
        <pt x="432" y="-12" on="1"/>
        <pt x="420" y="77" on="1"/>
        <pt x="420" y="79" on="1"/>
        <pt x="420" y="471" on="1"/>
        <pt x="426" y="483" on="1"/>
        <pt x="426" y="749" on="1"/>
        <pt x="344" y="756" on="1"/>
        <pt x="344" y="783" on="1"/>
        <pt x="571" y="826" on="1"/>
        <pt x="585" y="817" on="1"/>
        <pt x="582" y="657" on="1"/>
        <pt x="582" y="35" on="1"/>
        <pt x="646" y="31" on="1"/>
        <pt x="646" y="0" on="1"/>
      </contour>
    </TTGlyph>
    <TTGlyph name="e" xMin="35" yMin="-17" xMax="553" yMax="563">
      <contour>
        <pt x="323" y="-17" on="1"/>
        <pt x="239" y="-17" on="0"/>
        <pt x="109" y="51" on="0"/>
        <pt x="35" y="182" on="0"/>
        <pt x="35" y="275" on="1"/>
        <pt x="35" y="368" on="0"/>
        <pt x="115" y="497" on="0"/>
        <pt x="244" y="563" on="0"/>
        <pt x="317" y="563" on="1"/>
        <pt x="395" y="563" on="0"/>
        <pt x="500" y="502" on="0"/>
        <pt x="553" y="399" on="0"/>
        <pt x="553" y="335" on="1"/>
        <pt x="553" y="301" on="0"/>
        <pt x="546" y="274" on="1"/>
        <pt x="104" y="274" on="1"/>
        <pt x="104" y="310" on="1"/>
        <pt x="341" y="310" on="1"/>
        <pt x="376" y="310" on="0"/>
        <pt x="401" y="349" on="0"/>
        <pt x="401" y="395" on="1"/>
        <pt x="401" y="462" on="0"/>
        <pt x="351" y="528" on="0"/>
        <pt x="310" y="528" on="1"/>
        <pt x="282" y="528" on="0"/>
        <pt x="234" y="480" on="0"/>
        <pt x="206" y="376" on="0"/>
        <pt x="206" y="290" on="1"/>
        <pt x="206" y="207" on="0"/>
        <pt x="251" y="102" on="0"/>
        <pt x="330" y="54" on="0"/>
        <pt x="380" y="54" on="1"/>
        <pt x="433" y="54" on="0"/>
        <pt x="503" y="96" on="0"/>
        <pt x="528" y="131" on="1"/>
        <pt x="547" y="118" on="1"/>
        <pt x="516" y="53" on="0"/>
        <pt x="401" y="-17" on="0"/>
      </contour>
    </TTGlyph>
    <TTGlyph name="eight" xMin="53" yMin="-17" xMax="561" yMax="764">
      <contour>
        <pt x="291" y="-17" on="1"/>
        <pt x="170" y="-17" on="0"/>
        <pt x="53" y="82" on="0"/>
        <pt x="53" y="157" on="1"/>
        <pt x="53" y="226" on="0"/>
        <pt x="150" y="322" on="0"/>
        <pt x="242" y="350" on="1"/>
        <pt x="242" y="356" on="1"/>
        <pt x="254" y="344" on="1"/>
        <pt x="217" y="306" on="0"/>
        <pt x="185" y="229" on="0"/>
        <pt x="185" y="176" on="1"/>
        <pt x="185" y="95" on="0"/>
        <pt x="248" y="18" on="0"/>
        <pt x="304" y="18" on="1"/>
        <pt x="359" y="18" on="0"/>
        <pt x="416" y="81" on="0"/>
        <pt x="416" y="137" on="1"/>
        <pt x="416" y="174" on="0"/>
        <pt x="385" y="240" on="0"/>
        <pt x="310" y="302" on="0"/>
        <pt x="242" y="331" on="1"/>
        <pt x="155" y="368" on="0"/>
        <pt x="68" y="485" on="0"/>
        <pt x="68" y="560" on="1"/>
        <pt x="68" y="622" on="0"/>
        <pt x="132" y="714" on="0"/>
        <pt x="242" y="764" on="0"/>
        <pt x="312" y="764" on="1"/>
        <pt x="389" y="764" on="0"/>
        <pt x="488" y="716" on="0"/>
        <pt x="536" y="637" on="0"/>
        <pt x="536" y="591" on="1"/>
        <pt x="536" y="538" on="0"/>
        <pt x="455" y="445" on="0"/>
        <pt x="360" y="410" on="1"/>
        <pt x="360" y="407" on="1"/>
        <pt x="352" y="415" on="1"/>
        <pt x="383" y="456" on="0"/>
        <pt x="409" y="541" on="0"/>
        <pt x="409" y="596" on="1"/>
        <pt x="409" y="655" on="0"/>
        <pt x="356" y="729" on="0"/>
        <pt x="308" y="729" on="1"/>
        <pt x="281" y="729" on="0"/>
        <pt x="233" y="701" on="0"/>
        <pt x="203" y="650" on="0"/>
        <pt x="203" y="615" on="1"/>
        <pt x="203" y="584" on="0"/>
        <pt x="228" y="521" on="0"/>
        <pt x="299" y="459" on="0"/>
        <pt x="367" y="429" on="1"/>
        <pt x="467" y="385" on="0"/>
        <pt x="561" y="272" on="0"/>
        <pt x="561" y="197" on="1"/>
        <pt x="561" y="133" on="0"/>
        <pt x="499" y="36" on="0"/>
        <pt x="379" y="-17" on="0"/>
      </contour>
    </TTGlyph>
    <TTGlyph name="exclam" xMin="93" yMin="-16" xMax="286" yMax="761">
      <contour>
        <pt x="189" y="-16" on="1"/>
        <pt x="149" y="-16" on="0"/>
        <pt x="94" y="38" on="0"/>
        <pt x="94" y="78" on="1"/>
        <pt x="94" y="117" on="0"/>
        <pt x="149" y="172" on="0"/>
        <pt x="189" y="172" on="1"/>
        <pt x="230" y="172" on="0"/>
        <pt x="286" y="117" on="0"/>
        <pt x="286" y="78" on="1"/>
        <pt x="286" y="38" on="0"/>
        <pt x="230" y="-16" on="0"/>
      </contour>
      <contour>
        <pt x="189" y="761" on="1"/>
        <pt x="233" y="761" on="0"/>
        <pt x="286" y="712" on="0"/>
        <pt x="286" y="665" on="1"/>
        <pt x="286" y="629" on="0"/>
        <pt x="261" y="508" on="0"/>
        <pt x="231" y="397" on="1"/>
        <pt x="205" y="262" on="1"/>
        <pt x="173" y="262" on="1"/>
        <pt x="148" y="397" on="1"/>
        <pt x="118" y="508" on="0"/>
        <pt x="93" y="629" on="0"/>
        <pt x="93" y="665" on="1"/>
        <pt x="93" y="712" on="0"/>
        <pt x="145" y="761" on="0"/>
      </contour>
    </TTGlyph>
    <TTGlyph name="f" xMin="26" yMin="0" xMax="510" yMax="837">
      <contour>
        <pt x="33" y="0" on="1"/>
        <pt x="33" y="31" on="1"/>
        <pt x="145" y="41" on="1"/>
        <pt x="252" y="41" on="1"/>
        <pt x="360" y="31" on="1"/>
        <pt x="360" y="0" on="1"/>
      </contour>
      <contour>
        <pt x="101" y="0" on="1"/>
        <pt x="103" y="59" on="0"/>
        <pt x="104" y="179" on="0"/>
        <pt x="104" y="238" on="1"/>
        <pt x="104" y="505" on="1"/>
        <pt x="26" y="505" on="1"/>
        <pt x="26" y="537" on="1"/>
        <pt x="160" y="552" on="1"/>
        <pt x="104" y="522" on="1"/>
        <pt x="105" y="535" on="1"/>
        <pt x="114" y="630" on="0"/>
        <pt x="167" y="737" on="0"/>
        <pt x="203" y="768" on="1"/>
        <pt x="244" y="806" on="0"/>
        <pt x="334" y="837" on="0"/>
        <pt x="381" y="837" on="1"/>
        <pt x="426" y="837" on="0"/>
        <pt x="500" y="804" on="0"/>
        <pt x="510" y="763" on="1"/>
        <pt x="509" y="733" on="0"/>
        <pt x="472" y="695" on="0"/>
        <pt x="437" y="695" on="1"/>
        <pt x="408" y="695" on="0"/>
        <pt x="362" y="728" on="0"/>
        <pt x="342" y="770" on="1"/>
        <pt x="318" y="815" on="1"/>
        <pt x="318" y="824" on="1"/>
        <pt x="368" y="824" on="1"/>
        <pt x="368" y="816" on="1"/>
        <pt x="345" y="812" on="0"/>
        <pt x="309" y="789" on="0"/>
        <pt x="299" y="775" on="1"/>
        <pt x="282" y="747" on="0"/>
        <pt x="265" y="674" on="0"/>
        <pt x="263" y="580" on="0"/>
        <pt x="266" y="521" on="1"/>
        <pt x="266" y="238" on="1"/>
        <pt x="266" y="179" on="0"/>
        <pt x="268" y="59" on="0"/>
        <pt x="270" y="0" on="1"/>
      </contour>
      <contour>
        <pt x="186" y="505" on="1"/>
        <pt x="186" y="546" on="1"/>
        <pt x="394" y="546" on="1"/>
        <pt x="394" y="505" on="1"/>
      </contour>
    </TTGlyph>
    <TTGlyph name="five" xMin="37" yMin="-17" xMax="564" yMax="747">
      <contour>
        <pt x="269" y="-17" on="1"/>
        <pt x="164" y="-17" on="0"/>
        <pt x="43" y="79" on="0"/>
        <pt x="37" y="161" on="1"/>
        <pt x="45" y="184" on="0"/>
        <pt x="81" y="206" on="0"/>
        <pt x="102" y="206" on="1"/>
        <pt x="133" y="206" on="0"/>
        <pt x="169" y="169" on="0"/>
        <pt x="173" y="125" on="1"/>
        <pt x="189" y="15" on="1"/>
        <pt x="155" y="40" on="1"/>
        <pt x="178" y="28" on="0"/>
        <pt x="213" y="18" on="0"/>
        <pt x="240" y="18" on="1"/>
        <pt x="309" y="18" on="0"/>
        <pt x="393" y="117" on="0"/>
        <pt x="393" y="212" on="1"/>
        <pt x="393" y="298" on="0"/>
        <pt x="311" y="392" on="0"/>
        <pt x="241" y="392" on="1"/>
        <pt x="213" y="392" on="0"/>
        <pt x="161" y="383" on="0"/>
        <pt x="135" y="375" on="1"/>
        <pt x="105" y="395" on="1"/>
        <pt x="129" y="747" on="1"/>
        <pt x="538" y="747" on="1"/>
        <pt x="538" y="623" on="1"/>
        <pt x="150" y="623" on="1"/>
        <pt x="176" y="715" on="1"/>
        <pt x="154" y="399" on="1"/>
        <pt x="112" y="412" on="1"/>
        <pt x="156" y="431" on="0"/>
        <pt x="243" y="446" on="0"/>
        <pt x="291" y="446" on="1"/>
        <pt x="418" y="446" on="0"/>
        <pt x="564" y="331" on="0"/>
        <pt x="564" y="219" on="1"/>
        <pt x="564" y="142" on="0"/>
        <pt x="488" y="37" on="0"/>
        <pt x="355" y="-17" on="0"/>
      </contour>
    </TTGlyph>
    <TTGlyph name="four" xMin="33" yMin="-15" xMax="585" yMax="760">
      <contour>
        <pt x="333" y="-15" on="1"/>
        <pt x="333" y="203" on="1"/>
        <pt x="333" y="224" on="1"/>
        <pt x="333" y="670" on="1"/>
        <pt x="315" y="670" on="1"/>
        <pt x="350" y="679" on="1"/>
        <pt x="220" y="478" on="1"/>
        <pt x="71" y="248" on="1"/>
        <pt x="82" y="292" on="1"/>
        <pt x="82" y="273" on="1"/>
        <pt x="585" y="273" on="1"/>
        <pt x="585" y="169" on="1"/>
        <pt x="33" y="169" on="1"/>
        <pt x="33" y="253" on="1"/>
        <pt x="364" y="760" on="1"/>
        <pt x="476" y="760" on="1"/>
        <pt x="476" y="-15" on="1"/>
      </contour>
    </TTGlyph>
    <TTGlyph name="g" xMin="23" yMin="-259" xMax="596" yMax="563">
      <contour>
        <pt x="258" y="-259" on="1"/>
        <pt x="166" y="-259" on="0"/>
        <pt x="63" y="-223" on="0"/>
        <pt x="23" y="-163" on="0"/>
        <pt x="23" y="-128" on="1"/>
        <pt x="23" y="-87" on="0"/>
        <pt x="91" y="-17" on="0"/>
        <pt x="161" y="5" on="1"/>
        <pt x="163" y="0" on="1"/>
        <pt x="141" y="-27" on="0"/>
        <pt x="116" y="-70" on="0"/>
        <pt x="116" y="-102" on="1"/>
        <pt x="116" y="-157" on="0"/>
        <pt x="191" y="-215" on="0"/>
        <pt x="257" y="-215" on="1"/>
        <pt x="358" y="-215" on="0"/>
        <pt x="458" y="-151" on="0"/>
        <pt x="458" y="-95" on="1"/>
        <pt x="458" y="-71" on="0"/>
        <pt x="419" y="-25" on="0"/>
        <pt x="369" y="-25" on="1"/>
        <pt x="258" y="-25" on="1"/>
        <pt x="212" y="-25" on="0"/>
        <pt x="161" y="-22" on="0"/>
        <pt x="137" y="-14" on="1"/>
        <pt x="137" y="-10" on="1"/>
        <pt x="52" y="16" on="0"/>
        <pt x="52" y="91" on="1"/>
        <pt x="52" y="127" on="0"/>
        <pt x="96" y="200" on="0"/>
        <pt x="154" y="237" on="1"/>
        <pt x="154" y="246" on="1"/>
        <pt x="172" y="237" on="1"/>
        <pt x="156" y="214" on="0"/>
        <pt x="140" y="179" on="0"/>
        <pt x="140" y="157" on="1"/>
        <pt x="140" y="133" on="0"/>
        <pt x="175" y="108" on="0"/>
        <pt x="215" y="108" on="1"/>
        <pt x="361" y="108" on="1"/>
        <pt x="444" y="108" on="0"/>
        <pt x="542" y="68" on="0"/>
        <pt x="586" y="-1" on="0"/>
        <pt x="586" y="-45" on="1"/>
        <pt x="586" y="-99" on="0"/>
        <pt x="509" y="-197" on="0"/>
        <pt x="362" y="-259" on="0"/>
      </contour>
      <contour>
        <pt x="278" y="197" on="1"/>
        <pt x="200" y="197" on="0"/>
        <pt x="97" y="245" on="0"/>
        <pt x="46" y="327" on="0"/>
        <pt x="46" y="378" on="1"/>
        <pt x="46" y="458" on="0"/>
        <pt x="161" y="563" on="0"/>
        <pt x="279" y="563" on="1"/>
        <pt x="344" y="563" on="0"/>
        <pt x="436" y="530" on="0"/>
        <pt x="463" y="501" on="1"/>
        <pt x="468" y="496" on="1"/>
        <pt x="510" y="449" on="0"/>
        <pt x="510" y="378" on="1"/>
        <pt x="510" y="327" on="0"/>
        <pt x="459" y="245" on="0"/>
        <pt x="357" y="197" on="0"/>
      </contour>
      <contour>
        <pt x="278" y="229" on="1"/>
        <pt x="321" y="229" on="0"/>
        <pt x="366" y="309" on="0"/>
        <pt x="366" y="378" on="1"/>
        <pt x="366" y="452" on="0"/>
        <pt x="320" y="531" on="0"/>
        <pt x="279" y="531" on="1"/>
        <pt x="237" y="531" on="0"/>
        <pt x="191" y="451" on="0"/>
        <pt x="191" y="378" on="1"/>
        <pt x="191" y="309" on="0"/>
        <pt x="235" y="229" on="0"/>
      </contour>
      <contour>
        <pt x="428" y="491" on="1"/>
        <pt x="428" y="506" on="1"/>
        <pt x="434" y="506" on="1"/>
        <pt x="578" y="563" on="1"/>
        <pt x="596" y="552" on="1"/>
        <pt x="596" y="474" on="1"/>
      </contour>
    </TTGlyph>
    <TTGlyph name="glyph02241" xMin="26" yMin="0" xMax="868" yMax="837">
      <contour>
        <pt x="33" y="0" on="1"/>
        <pt x="33" y="31" on="1"/>
        <pt x="145" y="41" on="1"/>
        <pt x="245" y="41" on="1"/>
        <pt x="349" y="31" on="1"/>
        <pt x="349" y="0" on="1"/>
      </contour>
      <contour>
        <pt x="101" y="0" on="1"/>
        <pt x="103" y="59" on="0"/>
        <pt x="104" y="179" on="0"/>
        <pt x="104" y="238" on="1"/>
        <pt x="104" y="505" on="1"/>
        <pt x="26" y="505" on="1"/>
        <pt x="26" y="537" on="1"/>
        <pt x="160" y="552" on="1"/>
        <pt x="104" y="522" on="1"/>
        <pt x="105" y="537" on="1"/>
        <pt x="113" y="620" on="0"/>
        <pt x="156" y="722" on="0"/>
        <pt x="195" y="761" on="1"/>
        <pt x="234" y="800" on="0"/>
        <pt x="333" y="837" on="0"/>
        <pt x="378" y="837" on="1"/>
        <pt x="422" y="837" on="0"/>
        <pt x="492" y="803" on="0"/>
        <pt x="502" y="765" on="1"/>
        <pt x="502" y="737" on="0"/>
        <pt x="466" y="700" on="0"/>
        <pt x="433" y="700" on="1"/>
        <pt x="408" y="700" on="0"/>
        <pt x="364" y="733" on="0"/>
        <pt x="339" y="778" on="1"/>
        <pt x="318" y="807" on="1"/>
        <pt x="318" y="824" on="1"/>
        <pt x="368" y="824" on="1"/>
        <pt x="368" y="816" on="1"/>
        <pt x="352" y="813" on="0"/>
        <pt x="320" y="800" on="0"/>
        <pt x="306" y="783" on="1"/>
        <pt x="286" y="761" on="0"/>
        <pt x="266" y="690" on="0"/>
        <pt x="263" y="579" on="0"/>
        <pt x="266" y="495" on="1"/>
        <pt x="266" y="238" on="1"/>
        <pt x="266" y="179" on="0"/>
        <pt x="268" y="59" on="0"/>
        <pt x="270" y="0" on="1"/>
      </contour>
      <contour>
        <pt x="186" y="505" on="1"/>
        <pt x="186" y="546" on="1"/>
        <pt x="427" y="546" on="1"/>
        <pt x="427" y="505" on="1"/>
      </contour>
      <contour>
        <pt x="391" y="0" on="1"/>
        <pt x="391" y="31" on="1"/>
        <pt x="503" y="41" on="1"/>
        <pt x="610" y="41" on="1"/>
        <pt x="718" y="31" on="1"/>
        <pt x="718" y="0" on="1"/>
      </contour>
      <contour>
        <pt x="459" y="0" on="1"/>
        <pt x="461" y="59" on="0"/>
        <pt x="462" y="179" on="0"/>
        <pt x="462" y="238" on="1"/>
        <pt x="462" y="505" on="1"/>
        <pt x="384" y="505" on="1"/>
        <pt x="384" y="537" on="1"/>
        <pt x="518" y="552" on="1"/>
        <pt x="462" y="522" on="1"/>
        <pt x="463" y="535" on="1"/>
        <pt x="472" y="630" on="0"/>
        <pt x="525" y="737" on="0"/>
        <pt x="561" y="768" on="1"/>
        <pt x="602" y="806" on="0"/>
        <pt x="692" y="837" on="0"/>
        <pt x="739" y="837" on="1"/>
        <pt x="784" y="837" on="0"/>
        <pt x="858" y="804" on="0"/>
        <pt x="868" y="763" on="1"/>
        <pt x="867" y="733" on="0"/>
        <pt x="830" y="695" on="0"/>
        <pt x="795" y="695" on="1"/>
        <pt x="766" y="695" on="0"/>
        <pt x="720" y="728" on="0"/>
        <pt x="700" y="770" on="1"/>
        <pt x="676" y="815" on="1"/>
        <pt x="676" y="824" on="1"/>
        <pt x="726" y="824" on="1"/>
        <pt x="726" y="816" on="1"/>
        <pt x="703" y="812" on="0"/>
        <pt x="667" y="789" on="0"/>
        <pt x="657" y="775" on="1"/>
        <pt x="640" y="747" on="0"/>
        <pt x="623" y="674" on="0"/>
        <pt x="621" y="580" on="0"/>
        <pt x="624" y="521" on="1"/>
        <pt x="624" y="238" on="1"/>
        <pt x="624" y="179" on="0"/>
        <pt x="626" y="59" on="0"/>
        <pt x="628" y="0" on="1"/>
      </contour>
      <contour>
        <pt x="544" y="505" on="1"/>
        <pt x="544" y="546" on="1"/>
        <pt x="752" y="546" on="1"/>
        <pt x="752" y="505" on="1"/>
      </contour>
    </TTGlyph>
    <TTGlyph name="glyph02242" xMin="26" yMin="0" xMax="681" yMax="837">
      <contour>
        <pt x="33" y="0" on="1"/>
        <pt x="33" y="31" on="1"/>
        <pt x="145" y="41" on="1"/>
        <pt x="255" y="41" on="1"/>
        <pt x="338" y="31" on="1"/>
        <pt x="338" y="0" on="1"/>
      </contour>
      <contour>
        <pt x="101" y="0" on="1"/>
        <pt x="103" y="59" on="0"/>
        <pt x="104" y="179" on="0"/>
        <pt x="104" y="238" on="1"/>
        <pt x="104" y="505" on="1"/>
        <pt x="26" y="505" on="1"/>
        <pt x="26" y="537" on="1"/>
        <pt x="160" y="552" on="1"/>
        <pt x="104" y="522" on="1"/>
        <pt x="109" y="589" on="0"/>
        <pt x="142" y="680" on="0"/>
        <pt x="192" y="743" on="0"/>
        <pt x="220" y="767" on="1"/>
        <pt x="262" y="803" on="0"/>
        <pt x="379" y="837" on="0"/>
        <pt x="444" y="837" on="1"/>
        <pt x="497" y="837" on="0"/>
        <pt x="581" y="794" on="0"/>
        <pt x="589" y="753" on="1"/>
        <pt x="588" y="724" on="0"/>
        <pt x="552" y="684" on="0"/>
        <pt x="520" y="684" on="1"/>
        <pt x="493" y="684" on="0"/>
        <pt x="446" y="723" on="0"/>
        <pt x="420" y="765" on="1"/>
        <pt x="386" y="819" on="1"/>
        <pt x="386" y="825" on="1"/>
        <pt x="417" y="825" on="1"/>
        <pt x="417" y="817" on="1"/>
        <pt x="388" y="809" on="0"/>
        <pt x="325" y="760" on="0"/>
        <pt x="304" y="719" on="1"/>
        <pt x="285" y="687" on="0"/>
        <pt x="265" y="590" on="0"/>
        <pt x="266" y="512" on="1"/>
        <pt x="266" y="238" on="1"/>
        <pt x="266" y="179" on="0"/>
        <pt x="268" y="59" on="0"/>
        <pt x="270" y="0" on="1"/>
      </contour>
      <contour>
        <pt x="390" y="0" on="1"/>
        <pt x="390" y="31" on="1"/>
        <pt x="494" y="41" on="1"/>
        <pt x="572" y="41" on="1"/>
        <pt x="681" y="31" on="1"/>
        <pt x="681" y="0" on="1"/>
      </contour>
      <contour>
        <pt x="454" y="0" on="1"/>
        <pt x="456" y="26" on="0"/>
        <pt x="457" y="111" on="0"/>
        <pt x="458" y="203" on="0"/>
        <pt x="458" y="238" on="1"/>
        <pt x="458" y="348" on="1"/>
        <pt x="458" y="400" on="0"/>
        <pt x="456" y="468" on="0"/>
        <pt x="454" y="505" on="1"/>
        <pt x="186" y="505" on="1"/>
        <pt x="186" y="546" on="1"/>
        <pt x="469" y="546" on="1"/>
        <pt x="610" y="562" on="1"/>
        <pt x="622" y="553" on="1"/>
        <pt x="620" y="393" on="1"/>
        <pt x="620" y="238" on="1"/>
        <pt x="620" y="203" on="0"/>
        <pt x="621" y="111" on="0"/>
        <pt x="622" y="26" on="0"/>
        <pt x="623" y="0" on="1"/>
      </contour>
    </TTGlyph>
    <TTGlyph name="glyph02243" xMin="26" yMin="0" xMax="692" yMax="837">
      <contour>
        <pt x="33" y="0" on="1"/>
        <pt x="33" y="31" on="1"/>
        <pt x="145" y="41" on="1"/>
        <pt x="252" y="41" on="1"/>
        <pt x="349" y="31" on="1"/>
        <pt x="349" y="0" on="1"/>
      </contour>
      <contour>
        <pt x="101" y="0" on="1"/>
        <pt x="103" y="59" on="0"/>
        <pt x="104" y="179" on="0"/>
        <pt x="104" y="238" on="1"/>
        <pt x="104" y="505" on="1"/>
        <pt x="26" y="505" on="1"/>
        <pt x="26" y="537" on="1"/>
        <pt x="160" y="552" on="1"/>
        <pt x="104" y="522" on="1"/>
        <pt x="109" y="590" on="0"/>
        <pt x="137" y="681" on="0"/>
        <pt x="179" y="743" on="0"/>
        <pt x="202" y="764" on="1"/>
        <pt x="246" y="803" on="0"/>
        <pt x="343" y="837" on="0"/>
        <pt x="394" y="837" on="1"/>
        <pt x="442" y="837" on="0"/>
        <pt x="513" y="804" on="0"/>
        <pt x="523" y="764" on="1"/>
        <pt x="522" y="736" on="0"/>
        <pt x="494" y="701" on="0"/>
        <pt x="460" y="701" on="1"/>
        <pt x="434" y="701" on="0"/>
        <pt x="380" y="731" on="0"/>
        <pt x="358" y="773" on="1"/>
        <pt x="338" y="811" on="1"/>
        <pt x="338" y="823" on="1"/>
        <pt x="384" y="823" on="1"/>
        <pt x="384" y="813" on="1"/>
        <pt x="358" y="809" on="0"/>
        <pt x="319" y="791" on="0"/>
        <pt x="304" y="775" on="1"/>
        <pt x="276" y="739" on="0"/>
        <pt x="261" y="613" on="0"/>
        <pt x="266" y="512" on="1"/>
        <pt x="266" y="238" on="1"/>
        <pt x="266" y="179" on="0"/>
        <pt x="268" y="59" on="0"/>
        <pt x="270" y="0" on="1"/>
      </contour>
      <contour>
        <pt x="186" y="505" on="1"/>
        <pt x="186" y="546" on="1"/>
        <pt x="394" y="546" on="1"/>
        <pt x="394" y="505" on="1"/>
      </contour>
      <contour>
        <pt x="393" y="0" on="1"/>
        <pt x="393" y="31" on="1"/>
        <pt x="497" y="41" on="1"/>
        <pt x="577" y="41" on="1"/>
        <pt x="692" y="31" on="1"/>
        <pt x="692" y="0" on="1"/>
      </contour>
      <contour>
        <pt x="457" y="0" on="1"/>
        <pt x="458" y="37" on="0"/>
        <pt x="459" y="118" on="0"/>
        <pt x="460" y="200" on="0"/>
        <pt x="460" y="238" on="1"/>
        <pt x="460" y="785" on="1"/>
        <pt x="613" y="826" on="1"/>
        <pt x="624" y="817" on="1"/>
        <pt x="622" y="656" on="1"/>
        <pt x="622" y="238" on="1"/>
        <pt x="622" y="200" on="0"/>
        <pt x="623" y="118" on="0"/>
        <pt x="624" y="37" on="0"/>
        <pt x="625" y="0" on="1"/>
      </contour>
    </TTGlyph>
    <TTGlyph name="glyph02244" xMin="26" yMin="0" xMax="1039" yMax="837">
      <contour>
        <pt x="33" y="0" on="1"/>
        <pt x="33" y="31" on="1"/>
        <pt x="145" y="41" on="1"/>
        <pt x="245" y="41" on="1"/>
        <pt x="349" y="31" on="1"/>
        <pt x="349" y="0" on="1"/>
      </contour>
      <contour>
        <pt x="101" y="0" on="1"/>
        <pt x="103" y="59" on="0"/>
        <pt x="104" y="179" on="0"/>
        <pt x="104" y="238" on="1"/>
        <pt x="104" y="505" on="1"/>
        <pt x="26" y="505" on="1"/>
        <pt x="26" y="537" on="1"/>
        <pt x="160" y="552" on="1"/>
        <pt x="104" y="522" on="1"/>
        <pt x="105" y="537" on="1"/>
        <pt x="113" y="620" on="0"/>
        <pt x="156" y="722" on="0"/>
        <pt x="195" y="761" on="1"/>
        <pt x="234" y="800" on="0"/>
        <pt x="333" y="837" on="0"/>
        <pt x="378" y="837" on="1"/>
        <pt x="422" y="837" on="0"/>
        <pt x="492" y="803" on="0"/>
        <pt x="502" y="765" on="1"/>
        <pt x="502" y="737" on="0"/>
        <pt x="466" y="700" on="0"/>
        <pt x="433" y="700" on="1"/>
        <pt x="408" y="700" on="0"/>
        <pt x="364" y="733" on="0"/>
        <pt x="339" y="778" on="1"/>
        <pt x="318" y="807" on="1"/>
        <pt x="318" y="824" on="1"/>
        <pt x="368" y="824" on="1"/>
        <pt x="368" y="816" on="1"/>
        <pt x="352" y="813" on="0"/>
        <pt x="320" y="800" on="0"/>
        <pt x="306" y="783" on="1"/>
        <pt x="286" y="761" on="0"/>
        <pt x="266" y="690" on="0"/>
        <pt x="263" y="579" on="0"/>
        <pt x="266" y="495" on="1"/>
        <pt x="266" y="238" on="1"/>
        <pt x="266" y="179" on="0"/>
        <pt x="268" y="59" on="0"/>
        <pt x="270" y="0" on="1"/>
      </contour>
      <contour>
        <pt x="186" y="505" on="1"/>
        <pt x="186" y="546" on="1"/>
        <pt x="427" y="546" on="1"/>
        <pt x="427" y="505" on="1"/>
      </contour>
      <contour>
        <pt x="391" y="0" on="1"/>
        <pt x="391" y="31" on="1"/>
        <pt x="503" y="41" on="1"/>
        <pt x="613" y="41" on="1"/>
        <pt x="696" y="31" on="1"/>
        <pt x="696" y="0" on="1"/>
      </contour>
      <contour>
        <pt x="459" y="0" on="1"/>
        <pt x="461" y="59" on="0"/>
        <pt x="462" y="179" on="0"/>
        <pt x="462" y="238" on="1"/>
        <pt x="462" y="505" on="1"/>
        <pt x="384" y="505" on="1"/>
        <pt x="384" y="537" on="1"/>
        <pt x="518" y="552" on="1"/>
        <pt x="462" y="522" on="1"/>
        <pt x="467" y="589" on="0"/>
        <pt x="500" y="680" on="0"/>
        <pt x="550" y="743" on="0"/>
        <pt x="578" y="767" on="1"/>
        <pt x="620" y="803" on="0"/>
        <pt x="737" y="837" on="0"/>
        <pt x="802" y="837" on="1"/>
        <pt x="855" y="837" on="0"/>
        <pt x="939" y="794" on="0"/>
        <pt x="947" y="753" on="1"/>
        <pt x="946" y="724" on="0"/>
        <pt x="910" y="684" on="0"/>
        <pt x="878" y="684" on="1"/>
        <pt x="851" y="684" on="0"/>
        <pt x="804" y="723" on="0"/>
        <pt x="778" y="765" on="1"/>
        <pt x="744" y="819" on="1"/>
        <pt x="744" y="825" on="1"/>
        <pt x="775" y="825" on="1"/>
        <pt x="775" y="817" on="1"/>
        <pt x="746" y="809" on="0"/>
        <pt x="683" y="760" on="0"/>
        <pt x="662" y="719" on="1"/>
        <pt x="643" y="687" on="0"/>
        <pt x="623" y="590" on="0"/>
        <pt x="624" y="512" on="1"/>
        <pt x="624" y="238" on="1"/>
        <pt x="624" y="179" on="0"/>
        <pt x="626" y="59" on="0"/>
        <pt x="628" y="0" on="1"/>
      </contour>
      <contour>
        <pt x="748" y="0" on="1"/>
        <pt x="748" y="31" on="1"/>
        <pt x="852" y="41" on="1"/>
        <pt x="930" y="41" on="1"/>
        <pt x="1039" y="31" on="1"/>
        <pt x="1039" y="0" on="1"/>
      </contour>
      <contour>
        <pt x="812" y="0" on="1"/>
        <pt x="814" y="26" on="0"/>
        <pt x="815" y="111" on="0"/>
        <pt x="816" y="203" on="0"/>
        <pt x="816" y="238" on="1"/>
        <pt x="816" y="348" on="1"/>
        <pt x="816" y="400" on="0"/>
        <pt x="814" y="468" on="0"/>
        <pt x="812" y="505" on="1"/>
        <pt x="544" y="505" on="1"/>
        <pt x="544" y="546" on="1"/>
        <pt x="827" y="546" on="1"/>
        <pt x="968" y="562" on="1"/>
        <pt x="980" y="553" on="1"/>
        <pt x="978" y="393" on="1"/>
        <pt x="978" y="238" on="1"/>
        <pt x="978" y="203" on="0"/>
        <pt x="979" y="111" on="0"/>
        <pt x="980" y="26" on="0"/>
        <pt x="981" y="0" on="1"/>
      </contour>
    </TTGlyph>
    <TTGlyph name="glyph02245" xMin="26" yMin="0" xMax="1050" yMax="837">
      <contour>
        <pt x="33" y="0" on="1"/>
        <pt x="33" y="31" on="1"/>
        <pt x="145" y="41" on="1"/>
        <pt x="245" y="41" on="1"/>
        <pt x="349" y="31" on="1"/>
        <pt x="349" y="0" on="1"/>
      </contour>
      <contour>
        <pt x="101" y="0" on="1"/>
        <pt x="103" y="59" on="0"/>
        <pt x="104" y="179" on="0"/>
        <pt x="104" y="238" on="1"/>
        <pt x="104" y="505" on="1"/>
        <pt x="26" y="505" on="1"/>
        <pt x="26" y="537" on="1"/>
        <pt x="160" y="552" on="1"/>
        <pt x="104" y="522" on="1"/>
        <pt x="105" y="537" on="1"/>
        <pt x="113" y="620" on="0"/>
        <pt x="156" y="722" on="0"/>
        <pt x="195" y="761" on="1"/>
        <pt x="234" y="800" on="0"/>
        <pt x="333" y="837" on="0"/>
        <pt x="378" y="837" on="1"/>
        <pt x="422" y="837" on="0"/>
        <pt x="492" y="803" on="0"/>
        <pt x="502" y="765" on="1"/>
        <pt x="502" y="737" on="0"/>
        <pt x="466" y="700" on="0"/>
        <pt x="433" y="700" on="1"/>
        <pt x="408" y="700" on="0"/>
        <pt x="364" y="733" on="0"/>
        <pt x="339" y="778" on="1"/>
        <pt x="318" y="807" on="1"/>
        <pt x="318" y="824" on="1"/>
        <pt x="368" y="824" on="1"/>
        <pt x="368" y="816" on="1"/>
        <pt x="352" y="813" on="0"/>
        <pt x="320" y="800" on="0"/>
        <pt x="306" y="783" on="1"/>
        <pt x="286" y="761" on="0"/>
        <pt x="266" y="690" on="0"/>
        <pt x="263" y="579" on="0"/>
        <pt x="266" y="495" on="1"/>
        <pt x="266" y="238" on="1"/>
        <pt x="266" y="179" on="0"/>
        <pt x="268" y="59" on="0"/>
        <pt x="270" y="0" on="1"/>
      </contour>
      <contour>
        <pt x="186" y="505" on="1"/>
        <pt x="186" y="546" on="1"/>
        <pt x="427" y="546" on="1"/>
        <pt x="427" y="505" on="1"/>
      </contour>
      <contour>
        <pt x="391" y="0" on="1"/>
        <pt x="391" y="31" on="1"/>
        <pt x="503" y="41" on="1"/>
        <pt x="610" y="41" on="1"/>
        <pt x="707" y="31" on="1"/>
        <pt x="707" y="0" on="1"/>
      </contour>
      <contour>
        <pt x="459" y="0" on="1"/>
        <pt x="461" y="59" on="0"/>
        <pt x="462" y="179" on="0"/>
        <pt x="462" y="238" on="1"/>
        <pt x="462" y="505" on="1"/>
        <pt x="384" y="505" on="1"/>
        <pt x="384" y="537" on="1"/>
        <pt x="518" y="552" on="1"/>
        <pt x="462" y="522" on="1"/>
        <pt x="467" y="590" on="0"/>
        <pt x="495" y="681" on="0"/>
        <pt x="537" y="743" on="0"/>
        <pt x="560" y="764" on="1"/>
        <pt x="604" y="803" on="0"/>
        <pt x="701" y="837" on="0"/>
        <pt x="752" y="837" on="1"/>
        <pt x="800" y="837" on="0"/>
        <pt x="871" y="804" on="0"/>
        <pt x="881" y="764" on="1"/>
        <pt x="880" y="736" on="0"/>
        <pt x="852" y="701" on="0"/>
        <pt x="818" y="701" on="1"/>
        <pt x="792" y="701" on="0"/>
        <pt x="739" y="731" on="0"/>
        <pt x="716" y="773" on="1"/>
        <pt x="696" y="811" on="1"/>
        <pt x="696" y="823" on="1"/>
        <pt x="742" y="823" on="1"/>
        <pt x="742" y="813" on="1"/>
        <pt x="716" y="809" on="0"/>
        <pt x="677" y="791" on="0"/>
        <pt x="662" y="775" on="1"/>
        <pt x="634" y="739" on="0"/>
        <pt x="619" y="613" on="0"/>
        <pt x="624" y="512" on="1"/>
        <pt x="624" y="238" on="1"/>
        <pt x="624" y="179" on="0"/>
        <pt x="626" y="59" on="0"/>
        <pt x="628" y="0" on="1"/>
      </contour>
      <contour>
        <pt x="544" y="505" on="1"/>
        <pt x="544" y="546" on="1"/>
        <pt x="752" y="546" on="1"/>
        <pt x="752" y="505" on="1"/>
      </contour>
      <contour>
        <pt x="751" y="0" on="1"/>
        <pt x="751" y="31" on="1"/>
        <pt x="855" y="41" on="1"/>
        <pt x="935" y="41" on="1"/>
        <pt x="1050" y="31" on="1"/>
        <pt x="1050" y="0" on="1"/>
      </contour>
      <contour>
        <pt x="815" y="0" on="1"/>
        <pt x="816" y="37" on="0"/>
        <pt x="817" y="118" on="0"/>
        <pt x="818" y="200" on="0"/>
        <pt x="818" y="238" on="1"/>
        <pt x="818" y="785" on="1"/>
        <pt x="971" y="826" on="1"/>
        <pt x="982" y="817" on="1"/>
        <pt x="980" y="656" on="1"/>
        <pt x="980" y="238" on="1"/>
        <pt x="980" y="200" on="0"/>
        <pt x="981" y="118" on="0"/>
        <pt x="982" y="37" on="0"/>
        <pt x="983" y="0" on="1"/>
      </contour>
    </TTGlyph>
    <TTGlyph name="glyph02247" xMin="665" yMin="587" xMax="942" yMax="848">
      <contour>
        <pt x="868" y="587" on="1"/>
        <pt x="844" y="587" on="0"/>
        <pt x="808" y="608" on="0"/>
        <pt x="797" y="632" on="1"/>
        <pt x="785" y="658" on="0"/>
        <pt x="757" y="725" on="0"/>
        <pt x="709" y="800" on="0"/>
        <pt x="665" y="837" on="1"/>
        <pt x="672" y="848" on="1"/>
        <pt x="776" y="836" on="0"/>
        <pt x="896" y="774" on="0"/>
        <pt x="924" y="729" on="1"/>
        <pt x="936" y="712" on="0"/>
        <pt x="942" y="679" on="0"/>
        <pt x="942" y="663" on="1"/>
        <pt x="942" y="629" on="0"/>
        <pt x="902" y="587" on="0"/>
      </contour>
    </TTGlyph>
    <TTGlyph name="glyph02248" xMin="671" yMin="537" xMax="956" yMax="822">
      <contour>
        <pt x="814" y="537" on="1"/>
        <pt x="775" y="537" on="0"/>
        <pt x="710" y="576" on="0"/>
        <pt x="671" y="641" on="0"/>
        <pt x="671" y="680" on="1"/>
        <pt x="671" y="720" on="0"/>
        <pt x="710" y="784" on="0"/>
        <pt x="775" y="822" on="0"/>
        <pt x="814" y="822" on="1"/>
        <pt x="854" y="822" on="0"/>
        <pt x="918" y="784" on="0"/>
        <pt x="956" y="720" on="0"/>
        <pt x="956" y="680" on="1"/>
        <pt x="956" y="641" on="0"/>
        <pt x="918" y="576" on="0"/>
        <pt x="854" y="537" on="0"/>
      </contour>
      <contour>
        <pt x="814" y="575" on="1"/>
        <pt x="857" y="575" on="0"/>
        <pt x="918" y="637" on="0"/>
        <pt x="918" y="680" on="1"/>
        <pt x="918" y="723" on="0"/>
        <pt x="857" y="784" on="0"/>
        <pt x="814" y="784" on="1"/>
        <pt x="771" y="784" on="0"/>
        <pt x="709" y="723" on="0"/>
        <pt x="709" y="680" on="1"/>
        <pt x="709" y="637" on="0"/>
        <pt x="771" y="575" on="0"/>
      </contour>
    </TTGlyph>
    <TTGlyph name="glyph02249" xMin="25" yMin="-62" xMax="975" yMax="244">
      <contour>
        <pt x="958" y="-62" on="1"/>
        <pt x="909" y="-6" on="0"/>
        <pt x="780" y="81" on="0"/>
        <pt x="611" y="132" on="0"/>
        <pt x="500" y="132" on="1"/>
        <pt x="389" y="132" on="0"/>
        <pt x="220" y="81" on="0"/>
        <pt x="92" y="-6" on="0"/>
        <pt x="42" y="-62" on="1"/>
        <pt x="25" y="-49" on="1"/>
        <pt x="58" y="8" on="0"/>
        <pt x="146" y="113" on="0"/>
        <pt x="261" y="196" on="0"/>
        <pt x="409" y="244" on="0"/>
        <pt x="500" y="244" on="1"/>
        <pt x="592" y="244" on="0"/>
        <pt x="739" y="196" on="0"/>
        <pt x="854" y="113" on="0"/>
        <pt x="942" y="8" on="0"/>
        <pt x="975" y="-49" on="1"/>
      </contour>
    </TTGlyph>
    <TTGlyph name="glyph02250" xMin="25" yMin="517" xMax="975" yMax="823">
      <contour>
        <pt x="975" y="810" on="1"/>
        <pt x="942" y="753" on="0"/>
        <pt x="854" y="648" on="0"/>
        <pt x="739" y="565" on="0"/>
        <pt x="592" y="517" on="0"/>
        <pt x="500" y="517" on="1"/>
        <pt x="409" y="517" on="0"/>
        <pt x="261" y="565" on="0"/>
        <pt x="146" y="648" on="0"/>
        <pt x="58" y="753" on="0"/>
        <pt x="25" y="810" on="1"/>
        <pt x="42" y="823" on="1"/>
        <pt x="92" y="768" on="0"/>
        <pt x="220" y="680" on="0"/>
        <pt x="389" y="629" on="0"/>
        <pt x="500" y="629" on="1"/>
        <pt x="611" y="629" on="0"/>
        <pt x="780" y="680" on="0"/>
        <pt x="909" y="768" on="0"/>
        <pt x="958" y="823" on="1"/>
      </contour>
    </TTGlyph>
    <TTGlyph name="glyph02259" xMin="290" yMin="-95" xMax="975" yMax="235">
      <contour>
        <pt x="975" y="235" on="1"/>
        <pt x="975" y="-95" on="1"/>
        <pt x="932" y="-95" on="1"/>
        <pt x="932" y="194" on="1"/>
        <pt x="290" y="194" on="1"/>
        <pt x="290" y="235" on="1"/>
      </contour>
    </TTGlyph>
    <TTGlyph name="glyph02260" xMin="25" yMin="505" xMax="710" yMax="835">
      <contour>
        <pt x="25" y="505" on="1"/>
        <pt x="25" y="835" on="1"/>
        <pt x="68" y="835" on="1"/>
        <pt x="68" y="546" on="1"/>
        <pt x="710" y="546" on="1"/>
        <pt x="710" y="505" on="1"/>
      </contour>
    </TTGlyph>
    <TTGlyph name="glyph02376" xMin="44" yMin="-17" xMax="567" yMax="734">
      <contour>
        <pt x="304" y="-17" on="1"/>
        <pt x="235" y="-17" on="0"/>
        <pt x="116" y="62" on="0"/>
        <pt x="44" y="228" on="0"/>
        <pt x="44" y="358" on="1"/>
        <pt x="44" y="489" on="0"/>
        <pt x="116" y="655" on="0"/>
        <pt x="235" y="734" on="0"/>
        <pt x="304" y="734" on="1"/>
        <pt x="373" y="734" on="0"/>
        <pt x="493" y="655" on="0"/>
        <pt x="567" y="489" on="0"/>
        <pt x="567" y="358" on="1"/>
        <pt x="567" y="228" on="0"/>
        <pt x="493" y="62" on="0"/>
        <pt x="373" y="-17" on="0"/>
      </contour>
      <contour>
        <pt x="304" y="18" on="1"/>
        <pt x="326" y="18" on="0"/>
        <pt x="366" y="50" on="0"/>
        <pt x="396" y="126" on="0"/>
        <pt x="414" y="258" on="0"/>
        <pt x="414" y="358" on="1"/>
        <pt x="414" y="459" on="0"/>
        <pt x="396" y="592" on="0"/>
        <pt x="366" y="668" on="0"/>
        <pt x="326" y="700" on="0"/>
        <pt x="304" y="700" on="1"/>
        <pt x="282" y="700" on="0"/>
        <pt x="244" y="668" on="0"/>
        <pt x="214" y="592" on="0"/>
        <pt x="197" y="459" on="0"/>
        <pt x="197" y="358" on="1"/>
        <pt x="197" y="258" on="0"/>
        <pt x="214" y="125" on="0"/>
        <pt x="244" y="50" on="0"/>
        <pt x="282" y="18" on="0"/>
      </contour>
    </TTGlyph>
    <TTGlyph name="glyph02377" xMin="85" yMin="0" xMax="531" yMax="730">
      <contour>
        <pt x="85" y="0" on="1"/>
        <pt x="85" y="31" on="1"/>
        <pt x="238" y="50" on="1"/>
        <pt x="390" y="50" on="1"/>
        <pt x="531" y="31" on="1"/>
        <pt x="531" y="0" on="1"/>
      </contour>
      <contour>
        <pt x="227" y="0" on="1"/>
        <pt x="230" y="119" on="0"/>
        <pt x="230" y="237" on="1"/>
        <pt x="230" y="642" on="1"/>
        <pt x="112" y="631" on="1"/>
        <pt x="112" y="668" on="1"/>
        <pt x="384" y="730" on="1"/>
        <pt x="398" y="719" on="1"/>
        <pt x="394" y="556" on="1"/>
        <pt x="394" y="237" on="1"/>
        <pt x="394" y="179" on="0"/>
        <pt x="396" y="59" on="0"/>
        <pt x="398" y="0" on="1"/>
      </contour>
    </TTGlyph>
    <TTGlyph name="glyph02378" xMin="57" yMin="0" xMax="561" yMax="734">
      <contour>
        <pt x="59" y="0" on="1"/>
        <pt x="59" y="90" on="1"/>
        <pt x="100" y="135" on="0"/>
        <pt x="184" y="220" on="0"/>
        <pt x="221" y="258" on="1"/>
        <pt x="277" y="314" on="0"/>
        <pt x="347" y="407" on="0"/>
        <pt x="380" y="497" on="0"/>
        <pt x="380" y="550" on="1"/>
        <pt x="380" y="622" on="0"/>
        <pt x="314" y="700" on="0"/>
        <pt x="256" y="700" on="1"/>
        <pt x="235" y="700" on="0"/>
        <pt x="191" y="690" on="0"/>
        <pt x="168" y="680" on="1"/>
        <pt x="218" y="700" on="1"/>
        <pt x="197" y="594" on="1"/>
        <pt x="189" y="543" on="0"/>
        <pt x="145" y="510" on="0"/>
        <pt x="122" y="510" on="1"/>
        <pt x="100" y="510" on="0"/>
        <pt x="65" y="534" on="0"/>
        <pt x="57" y="553" on="1"/>
        <pt x="60" y="612" on="0"/>
        <pt x="132" y="693" on="0"/>
        <pt x="246" y="734" on="0"/>
        <pt x="312" y="734" on="1"/>
        <pt x="431" y="734" on="0"/>
        <pt x="543" y="625" on="0"/>
        <pt x="543" y="540" on="1"/>
        <pt x="543" y="488" on="0"/>
        <pt x="485" y="388" on="0"/>
        <pt x="363" y="281" on="0"/>
        <pt x="267" y="218" on="1"/>
        <pt x="247" y="204" on="0"/>
        <pt x="194" y="166" on="0"/>
        <pt x="137" y="124" on="0"/>
        <pt x="110" y="103" on="1"/>
        <pt x="122" y="138" on="1"/>
        <pt x="123" y="123" on="1"/>
        <pt x="561" y="123" on="1"/>
        <pt x="561" y="0" on="1"/>
      </contour>
    </TTGlyph>
    <TTGlyph name="glyph02379" xMin="49" yMin="-17" xMax="565" yMax="734">
      <contour>
        <pt x="290" y="-17" on="1"/>
        <pt x="175" y="-17" on="0"/>
        <pt x="55" y="77" on="0"/>
        <pt x="49" y="161" on="1"/>
        <pt x="57" y="186" on="0"/>
        <pt x="93" y="207" on="0"/>
        <pt x="112" y="207" on="1"/>
        <pt x="142" y="207" on="0"/>
        <pt x="179" y="170" on="0"/>
        <pt x="186" y="120" on="1"/>
        <pt x="202" y="14" on="1"/>
        <pt x="152" y="41" on="1"/>
        <pt x="174" y="30" on="0"/>
        <pt x="213" y="18" on="0"/>
        <pt x="238" y="18" on="1"/>
        <pt x="316" y="18" on="0"/>
        <pt x="399" y="102" on="0"/>
        <pt x="399" y="186" on="1"/>
        <pt x="399" y="269" on="0"/>
        <pt x="318" y="353" on="0"/>
        <pt x="242" y="353" on="1"/>
        <pt x="203" y="353" on="1"/>
        <pt x="203" y="392" on="1"/>
        <pt x="237" y="392" on="1"/>
        <pt x="304" y="392" on="0"/>
        <pt x="384" y="470" on="0"/>
        <pt x="384" y="553" on="1"/>
        <pt x="384" y="626" on="0"/>
        <pt x="321" y="700" on="0"/>
        <pt x="263" y="700" on="1"/>
        <pt x="225" y="700" on="0"/>
        <pt x="169" y="679" on="1"/>
        <pt x="230" y="701" on="1"/>
        <pt x="212" y="600" on="1"/>
        <pt x="206" y="563" on="0"/>
        <pt x="164" y="533" on="0"/>
        <pt x="137" y="533" on="1"/>
        <pt x="119" y="533" on="0"/>
        <pt x="90" y="549" on="0"/>
        <pt x="82" y="563" on="1"/>
        <pt x="82" y="623" on="0"/>
        <pt x="145" y="698" on="0"/>
        <pt x="248" y="734" on="0"/>
        <pt x="309" y="734" on="1"/>
        <pt x="428" y="734" on="0"/>
        <pt x="544" y="635" on="0"/>
        <pt x="544" y="557" on="1"/>
        <pt x="544" y="508" on="0"/>
        <pt x="494" y="429" on="0"/>
        <pt x="381" y="377" on="0"/>
        <pt x="287" y="368" on="1"/>
        <pt x="287" y="384" on="1"/>
        <pt x="391" y="379" on="0"/>
        <pt x="513" y="327" on="0"/>
        <pt x="565" y="243" on="0"/>
        <pt x="565" y="188" on="1"/>
        <pt x="565" y="127" on="0"/>
        <pt x="499" y="35" on="0"/>
        <pt x="376" y="-17" on="0"/>
      </contour>
    </TTGlyph>
    <TTGlyph name="glyph02380" xMin="26" yMin="-15" xMax="579" yMax="729">
      <contour>
        <pt x="326" y="-15" on="1"/>
        <pt x="326" y="196" on="1"/>
        <pt x="326" y="222" on="1"/>
        <pt x="326" y="634" on="1"/>
        <pt x="315" y="634" on="1"/>
        <pt x="342" y="644" on="1"/>
        <pt x="202" y="437" on="1"/>
        <pt x="65" y="236" on="1"/>
        <pt x="74" y="279" on="1"/>
        <pt x="74" y="261" on="1"/>
        <pt x="579" y="261" on="1"/>
        <pt x="579" y="156" on="1"/>
        <pt x="26" y="156" on="1"/>
        <pt x="26" y="240" on="1"/>
        <pt x="358" y="729" on="1"/>
        <pt x="470" y="729" on="1"/>
        <pt x="470" y="-15" on="1"/>
      </contour>
    </TTGlyph>
    <TTGlyph name="glyph02381" xMin="45" yMin="-17" xMax="572" yMax="717">
      <contour>
        <pt x="278" y="-17" on="1"/>
        <pt x="173" y="-17" on="0"/>
        <pt x="51" y="79" on="0"/>
        <pt x="45" y="161" on="1"/>
        <pt x="54" y="184" on="0"/>
        <pt x="90" y="206" on="0"/>
        <pt x="110" y="206" on="1"/>
        <pt x="141" y="206" on="0"/>
        <pt x="177" y="169" on="0"/>
        <pt x="181" y="125" on="1"/>
        <pt x="198" y="15" on="1"/>
        <pt x="164" y="40" on="1"/>
        <pt x="187" y="28" on="0"/>
        <pt x="221" y="18" on="0"/>
        <pt x="249" y="18" on="1"/>
        <pt x="317" y="18" on="0"/>
        <pt x="401" y="113" on="0"/>
        <pt x="401" y="199" on="1"/>
        <pt x="401" y="288" on="0"/>
        <pt x="325" y="374" on="0"/>
        <pt x="258" y="374" on="1"/>
        <pt x="197" y="374" on="0"/>
        <pt x="143" y="357" on="1"/>
        <pt x="114" y="378" on="1"/>
        <pt x="138" y="717" on="1"/>
        <pt x="546" y="717" on="1"/>
        <pt x="546" y="594" on="1"/>
        <pt x="159" y="594" on="1"/>
        <pt x="184" y="685" on="1"/>
        <pt x="163" y="381" on="1"/>
        <pt x="121" y="394" on="1"/>
        <pt x="165" y="414" on="0"/>
        <pt x="251" y="429" on="0"/>
        <pt x="299" y="429" on="1"/>
        <pt x="427" y="429" on="0"/>
        <pt x="572" y="320" on="0"/>
        <pt x="572" y="215" on="1"/>
        <pt x="572" y="139" on="0"/>
        <pt x="496" y="36" on="0"/>
        <pt x="364" y="-17" on="0"/>
      </contour>
    </TTGlyph>
    <TTGlyph name="glyph02382" xMin="36" yMin="-17" xMax="570" yMax="734">
      <contour>
        <pt x="314" y="-17" on="1"/>
        <pt x="187" y="-17" on="0"/>
        <pt x="36" y="141" on="0"/>
        <pt x="36" y="286" on="1"/>
        <pt x="36" y="373" on="0"/>
        <pt x="107" y="527" on="0"/>
        <pt x="236" y="648" on="0"/>
        <pt x="414" y="724" on="0"/>
        <pt x="522" y="734" on="1"/>
        <pt x="529" y="709" on="1"/>
        <pt x="422" y="684" on="0"/>
        <pt x="275" y="570" on="0"/>
        <pt x="199" y="408" on="0"/>
        <pt x="199" y="309" on="1"/>
        <pt x="199" y="205" on="0"/>
        <pt x="229" y="76" on="0"/>
        <pt x="282" y="18" on="0"/>
        <pt x="315" y="18" on="1"/>
        <pt x="356" y="18" on="0"/>
        <pt x="411" y="109" on="0"/>
        <pt x="411" y="213" on="1"/>
        <pt x="411" y="298" on="0"/>
        <pt x="357" y="389" on="0"/>
        <pt x="304" y="389" on="1"/>
        <pt x="273" y="389" on="0"/>
        <pt x="213" y="365" on="0"/>
        <pt x="187" y="334" on="1"/>
        <pt x="165" y="350" on="1"/>
        <pt x="174" y="350" on="1"/>
        <pt x="244" y="445" on="0"/>
        <pt x="367" y="445" on="1"/>
        <pt x="466" y="445" on="0"/>
        <pt x="570" y="321" on="0"/>
        <pt x="570" y="220" on="1"/>
        <pt x="570" y="153" on="0"/>
        <pt x="507" y="46" on="0"/>
        <pt x="392" y="-17" on="0"/>
      </contour>
    </TTGlyph>
    <TTGlyph name="glyph02383" xMin="60" yMin="0" xMax="556" yMax="717">
      <contour>
        <pt x="137" y="0" on="1"/>
        <pt x="127" y="10" on="1"/>
        <pt x="514" y="639" on="1"/>
        <pt x="514" y="576" on="1"/>
        <pt x="502" y="594" on="1"/>
        <pt x="60" y="594" on="1"/>
        <pt x="60" y="717" on="1"/>
        <pt x="556" y="717" on="1"/>
        <pt x="556" y="640" on="1"/>
        <pt x="287" y="0" on="1"/>
      </contour>
    </TTGlyph>
    <TTGlyph name="glyph02384" xMin="51" yMin="-17" xMax="559" yMax="734">
      <contour>
        <pt x="289" y="-17" on="1"/>
        <pt x="168" y="-17" on="0"/>
        <pt x="51" y="73" on="0"/>
        <pt x="51" y="145" on="1"/>
        <pt x="51" y="210" on="0"/>
        <pt x="160" y="304" on="0"/>
        <pt x="261" y="335" on="1"/>
        <pt x="261" y="344" on="1"/>
        <pt x="272" y="329" on="1"/>
        <pt x="220" y="289" on="0"/>
        <pt x="184" y="204" on="0"/>
        <pt x="184" y="153" on="1"/>
        <pt x="184" y="94" on="0"/>
        <pt x="249" y="18" on="0"/>
        <pt x="303" y="18" on="1"/>
        <pt x="358" y="18" on="0"/>
        <pt x="415" y="89" on="0"/>
        <pt x="415" y="135" on="1"/>
        <pt x="415" y="170" on="0"/>
        <pt x="383" y="231" on="0"/>
        <pt x="307" y="288" on="0"/>
        <pt x="240" y="317" on="1"/>
        <pt x="154" y="355" on="0"/>
        <pt x="66" y="464" on="0"/>
        <pt x="66" y="534" on="1"/>
        <pt x="66" y="595" on="0"/>
        <pt x="130" y="685" on="0"/>
        <pt x="240" y="734" on="0"/>
        <pt x="310" y="734" on="1"/>
        <pt x="385" y="734" on="0"/>
        <pt x="483" y="692" on="0"/>
        <pt x="530" y="621" on="0"/>
        <pt x="530" y="578" on="1"/>
        <pt x="530" y="529" on="0"/>
        <pt x="444" y="441" on="0"/>
        <pt x="334" y="403" on="1"/>
        <pt x="334" y="397" on="1"/>
        <pt x="326" y="411" on="1"/>
        <pt x="376" y="459" on="0"/>
        <pt x="408" y="536" on="0"/>
        <pt x="408" y="582" on="1"/>
        <pt x="408" y="615" on="0"/>
        <pt x="384" y="668" on="0"/>
        <pt x="338" y="699" on="0"/>
        <pt x="306" y="699" on="1"/>
        <pt x="278" y="699" on="0"/>
        <pt x="230" y="672" on="0"/>
        <pt x="201" y="623" on="0"/>
        <pt x="201" y="589" on="1"/>
        <pt x="201" y="560" on="0"/>
        <pt x="226" y="503" on="0"/>
        <pt x="297" y="446" on="0"/>
        <pt x="365" y="416" on="1"/>
        <pt x="464" y="373" on="0"/>
        <pt x="559" y="259" on="0"/>
        <pt x="559" y="185" on="1"/>
        <pt x="559" y="123" on="0"/>
        <pt x="495" y="32" on="0"/>
        <pt x="375" y="-17" on="0"/>
      </contour>
    </TTGlyph>
    <TTGlyph name="glyph02385" xMin="36" yMin="-20" xMax="571" yMax="734">
      <contour>
        <pt x="104" y="-20" on="1"/>
        <pt x="99" y="9" on="1"/>
        <pt x="208" y="47" on="0"/>
        <pt x="344" y="160" on="0"/>
        <pt x="407" y="330" on="0"/>
        <pt x="407" y="451" on="1"/>
        <pt x="407" y="546" on="0"/>
        <pt x="381" y="655" on="0"/>
        <pt x="333" y="700" on="0"/>
        <pt x="301" y="700" on="1"/>
        <pt x="273" y="700" on="0"/>
        <pt x="225" y="662" on="0"/>
        <pt x="196" y="581" on="0"/>
        <pt x="196" y="516" on="1"/>
        <pt x="196" y="425" on="0"/>
        <pt x="265" y="324" on="0"/>
        <pt x="325" y="324" on="1"/>
        <pt x="355" y="324" on="0"/>
        <pt x="401" y="344" on="0"/>
        <pt x="425" y="365" on="1"/>
        <pt x="443" y="356" on="1"/>
        <pt x="436" y="356" on="1"/>
        <pt x="414" y="324" on="0"/>
        <pt x="326" y="278" on="0"/>
        <pt x="261" y="278" on="1"/>
        <pt x="196" y="278" on="0"/>
        <pt x="94" y="329" on="0"/>
        <pt x="36" y="426" on="0"/>
        <pt x="36" y="495" on="1"/>
        <pt x="36" y="570" on="0"/>
        <pt x="109" y="677" on="0"/>
        <pt x="229" y="734" on="0"/>
        <pt x="299" y="734" on="1"/>
        <pt x="430" y="734" on="0"/>
        <pt x="571" y="575" on="0"/>
        <pt x="571" y="431" on="1"/>
        <pt x="571" y="314" on="0"/>
        <pt x="454" y="129" on="0"/>
        <pt x="244" y="6" on="0"/>
      </contour>
    </TTGlyph>
    <TTGlyph name="glyph02388" xMin="104" yMin="-56" xMax="907" yMax="817">
      <contour>
        <pt x="424" y="-39" on="1"/>
        <pt x="556" y="-10" on="0"/>
        <pt x="711" y="90" on="0"/>
        <pt x="778" y="212" on="0"/>
        <pt x="778" y="273" on="1"/>
        <pt x="778" y="327" on="0"/>
        <pt x="732" y="409" on="0"/>
        <pt x="649" y="454" on="0"/>
        <pt x="591" y="454" on="1"/>
        <pt x="546" y="454" on="0"/>
        <pt x="447" y="424" on="0"/>
        <pt x="386" y="389" on="1"/>
        <pt x="331" y="358" on="0"/>
        <pt x="251" y="272" on="0"/>
        <pt x="207" y="184" on="0"/>
        <pt x="207" y="150" on="1"/>
        <pt x="207" y="139" on="0"/>
        <pt x="216" y="128" on="0"/>
        <pt x="226" y="128" on="1"/>
        <pt x="250" y="128" on="0"/>
        <pt x="313" y="154" on="0"/>
        <pt x="379" y="196" on="0"/>
        <pt x="407" y="220" on="1"/>
        <pt x="432" y="241" on="0"/>
        <pt x="486" y="302" on="0"/>
        <pt x="536" y="371" on="0"/>
        <pt x="573" y="438" on="0"/>
        <pt x="581" y="465" on="1"/>
        <pt x="589" y="489" on="0"/>
        <pt x="576" y="530" on="0"/>
        <pt x="551" y="549" on="1"/>
        <pt x="559" y="558" on="1"/>
        <pt x="588" y="554" on="0"/>
        <pt x="632" y="538" on="0"/>
        <pt x="647" y="523" on="1"/>
        <pt x="665" y="504" on="0"/>
        <pt x="657" y="472" on="1"/>
        <pt x="644" y="417" on="0"/>
        <pt x="573" y="291" on="0"/>
        <pt x="479" y="172" on="0"/>
        <pt x="431" y="126" on="1"/>
        <pt x="373" y="70" on="0"/>
        <pt x="245" y="9" on="0"/>
        <pt x="191" y="9" on="1"/>
        <pt x="152" y="9" on="0"/>
        <pt x="104" y="58" on="0"/>
        <pt x="104" y="105" on="1"/>
        <pt x="104" y="158" on="0"/>
        <pt x="149" y="259" on="0"/>
        <pt x="228" y="349" on="0"/>
        <pt x="333" y="423" on="0"/>
        <pt x="393" y="449" on="1"/>
        <pt x="446" y="471" on="0"/>
        <pt x="554" y="494" on="0"/>
        <pt x="609" y="494" on="1"/>
        <pt x="699" y="494" on="0"/>
        <pt x="833" y="424" on="0"/>
        <pt x="907" y="309" on="0"/>
        <pt x="907" y="240" on="1"/>
        <pt x="907" y="160" on="0"/>
        <pt x="838" y="47" on="0"/>
        <pt x="711" y="-24" on="0"/>
        <pt x="535" y="-56" on="0"/>
        <pt x="427" y="-56" on="1"/>
      </contour>
      <contour>
        <pt x="455" y="65" on="1"/>
        <pt x="427" y="65" on="0"/>
        <pt x="386" y="110" on="0"/>
        <pt x="360" y="185" on="0"/>
        <pt x="347" y="278" on="0"/>
        <pt x="347" y="327" on="1"/>
        <pt x="347" y="375" on="0"/>
        <pt x="360" y="488" on="0"/>
        <pt x="378" y="601" on="0"/>
        <pt x="391" y="697" on="0"/>
        <pt x="391" y="726" on="1"/>
        <pt x="391" y="740" on="0"/>
        <pt x="383" y="752" on="0"/>
        <pt x="371" y="757" on="1"/>
        <pt x="361" y="762" on="0"/>
        <pt x="331" y="770" on="0"/>
        <pt x="317" y="774" on="1"/>
        <pt x="316" y="784" on="1"/>
        <pt x="332" y="795" on="0"/>
        <pt x="377" y="817" on="0"/>
        <pt x="394" y="817" on="1"/>
        <pt x="423" y="817" on="0"/>
        <pt x="486" y="798" on="0"/>
        <pt x="530" y="769" on="0"/>
        <pt x="530" y="754" on="1"/>
        <pt x="530" y="740" on="0"/>
        <pt x="515" y="717" on="0"/>
        <pt x="497" y="690" on="0"/>
        <pt x="492" y="671" on="1"/>
        <pt x="483" y="631" on="0"/>
        <pt x="465" y="551" on="0"/>
        <pt x="450" y="474" on="0"/>
        <pt x="442" y="400" on="0"/>
        <pt x="442" y="366" on="1"/>
        <pt x="442" y="318" on="0"/>
        <pt x="463" y="248" on="0"/>
        <pt x="490" y="194" on="0"/>
        <pt x="511" y="146" on="0"/>
        <pt x="511" y="118" on="1"/>
        <pt x="511" y="90" on="0"/>
        <pt x="480" y="65" on="0"/>
      </contour>
      <contour>
        <pt x="277" y="538" on="1"/>
        <pt x="211" y="538" on="0"/>
        <pt x="154" y="615" on="0"/>
        <pt x="144" y="675" on="1"/>
        <pt x="153" y="682" on="1"/>
        <pt x="188" y="661" on="0"/>
        <pt x="255" y="636" on="0"/>
        <pt x="298" y="636" on="1"/>
        <pt x="336" y="636" on="0"/>
        <pt x="409" y="645" on="0"/>
        <pt x="440" y="650" on="1"/>
        <pt x="503" y="663" on="0"/>
        <pt x="595" y="699" on="0"/>
        <pt x="649" y="727" on="0"/>
        <pt x="654" y="727" on="1"/>
        <pt x="700" y="727" on="0"/>
        <pt x="747" y="700" on="0"/>
        <pt x="747" y="673" on="1"/>
        <pt x="747" y="653" on="0"/>
        <pt x="724" y="626" on="0"/>
        <pt x="703" y="618" on="1"/>
        <pt x="676" y="608" on="0"/>
        <pt x="594" y="584" on="0"/>
        <pt x="494" y="562" on="0"/>
        <pt x="438" y="552" on="1"/>
        <pt x="399" y="546" on="0"/>
        <pt x="315" y="538" on="0"/>
      </contour>
    </TTGlyph>
    <TTGlyph name="glyph02390" xMin="67" yMin="-3" xMax="921" yMax="704">
      <contour>
        <pt x="318" y="19" on="1"/>
        <pt x="288" y="32" on="0"/>
        <pt x="229" y="78" on="0"/>
        <pt x="180" y="146" on="0"/>
        <pt x="145" y="233" on="0"/>
        <pt x="139" y="287" on="1"/>
        <pt x="132" y="349" on="0"/>
        <pt x="142" y="486" on="0"/>
        <pt x="142" y="547" on="1"/>
        <pt x="142" y="576" on="0"/>
        <pt x="122" y="628" on="0"/>
        <pt x="89" y="673" on="0"/>
        <pt x="67" y="692" on="1"/>
        <pt x="70" y="702" on="1"/>
        <pt x="90" y="704" on="0"/>
        <pt x="153" y="701" on="0"/>
        <pt x="178" y="690" on="1"/>
        <pt x="206" y="678" on="0"/>
        <pt x="260" y="633" on="0"/>
        <pt x="296" y="581" on="0"/>
        <pt x="296" y="556" on="1"/>
        <pt x="296" y="537" on="0"/>
        <pt x="278" y="496" on="0"/>
        <pt x="254" y="442" on="0"/>
        <pt x="236" y="369" on="0"/>
        <pt x="236" y="318" on="1"/>
        <pt x="236" y="286" on="0"/>
        <pt x="257" y="235" on="0"/>
        <pt x="287" y="202" on="0"/>
        <pt x="300" y="197" on="1"/>
        <pt x="311" y="193" on="0"/>
        <pt x="332" y="196" on="0"/>
        <pt x="341" y="207" on="1"/>
        <pt x="367" y="242" on="0"/>
        <pt x="420" y="330" on="0"/>
        <pt x="448" y="381" on="1"/>
        <pt x="465" y="373" on="1"/>
        <pt x="455" y="332" on="0"/>
        <pt x="437" y="252" on="0"/>
        <pt x="428" y="188" on="0"/>
        <pt x="428" y="169" on="1"/>
        <pt x="429" y="135" on="0"/>
        <pt x="438" y="107" on="0"/>
        <pt x="446" y="89" on="0"/>
        <pt x="446" y="70" on="1"/>
        <pt x="446" y="30" on="0"/>
        <pt x="371" y="-3" on="0"/>
      </contour>
      <contour>
        <pt x="839" y="189" on="1"/>
        <pt x="821" y="189" on="0"/>
        <pt x="787" y="207" on="0"/>
        <pt x="779" y="229" on="1"/>
        <pt x="773" y="250" on="0"/>
        <pt x="770" y="294" on="0"/>
        <pt x="764" y="354" on="0"/>
        <pt x="752" y="399" on="1"/>
        <pt x="738" y="459" on="0"/>
        <pt x="659" y="567" on="0"/>
        <pt x="597" y="598" on="1"/>
        <pt x="600" y="611" on="1"/>
        <pt x="681" y="611" on="0"/>
        <pt x="787" y="562" on="0"/>
        <pt x="835" y="518" on="1"/>
        <pt x="866" y="491" on="0"/>
        <pt x="903" y="423" on="0"/>
        <pt x="921" y="347" on="0"/>
        <pt x="921" y="306" on="1"/>
        <pt x="921" y="251" on="0"/>
        <pt x="883" y="189" on="0"/>
      </contour>
    </TTGlyph>
    <TTGlyph name="glyph02392" xMin="191" yMin="-77" xMax="766" yMax="826">
      <contour>
        <pt x="265" y="-58" on="1"/>
        <pt x="437" y="-7" on="0"/>
        <pt x="626" y="181" on="0"/>
        <pt x="626" y="328" on="1"/>
        <pt x="626" y="400" on="0"/>
        <pt x="588" y="493" on="0"/>
        <pt x="543" y="493" on="1"/>
        <pt x="522" y="493" on="0"/>
        <pt x="480" y="473" on="0"/>
        <pt x="439" y="441" on="0"/>
        <pt x="402" y="406" on="0"/>
        <pt x="387" y="391" on="1"/>
        <pt x="371" y="374" on="0"/>
        <pt x="328" y="332" on="0"/>
        <pt x="302" y="332" on="1"/>
        <pt x="279" y="332" on="0"/>
        <pt x="234" y="367" on="0"/>
        <pt x="201" y="416" on="0"/>
        <pt x="195" y="438" on="1"/>
        <pt x="191" y="459" on="0"/>
        <pt x="205" y="523" on="0"/>
        <pt x="215" y="546" on="1"/>
        <pt x="228" y="548" on="1"/>
        <pt x="232" y="537" on="0"/>
        <pt x="250" y="507" on="0"/>
        <pt x="274" y="485" on="0"/>
        <pt x="285" y="485" on="1"/>
        <pt x="310" y="485" on="0"/>
        <pt x="371" y="506" on="0"/>
        <pt x="442" y="535" on="0"/>
        <pt x="517" y="556" on="0"/>
        <pt x="556" y="556" on="1"/>
        <pt x="654" y="556" on="0"/>
        <pt x="766" y="425" on="0"/>
        <pt x="766" y="312" on="1"/>
        <pt x="766" y="193" on="0"/>
        <pt x="652" y="31" on="0"/>
        <pt x="431" y="-62" on="0"/>
        <pt x="270" y="-77" on="1"/>
      </contour>
      <contour>
        <pt x="321" y="621" on="1"/>
        <pt x="340" y="633" on="0"/>
        <pt x="386" y="663" on="0"/>
        <pt x="430" y="691" on="0"/>
        <pt x="443" y="700" on="1"/>
        <pt x="418" y="705" on="0"/>
        <pt x="356" y="725" on="0"/>
        <pt x="301" y="773" on="0"/>
        <pt x="285" y="821" on="1"/>
        <pt x="292" y="826" on="1"/>
        <pt x="333" y="795" on="0"/>
        <pt x="427" y="782" on="0"/>
        <pt x="461" y="782" on="1"/>
        <pt x="506" y="782" on="0"/>
        <pt x="550" y="797" on="0"/>
        <pt x="563" y="797" on="1"/>
        <pt x="590" y="797" on="0"/>
        <pt x="647" y="772" on="0"/>
        <pt x="687" y="732" on="0"/>
        <pt x="687" y="710" on="1"/>
        <pt x="687" y="694" on="0"/>
        <pt x="662" y="669" on="0"/>
        <pt x="633" y="669" on="1"/>
        <pt x="614" y="669" on="0"/>
        <pt x="554" y="665" on="0"/>
        <pt x="533" y="662" on="1"/>
        <pt x="501" y="658" on="0"/>
        <pt x="423" y="637" on="0"/>
        <pt x="351" y="615" on="0"/>
        <pt x="327" y="607" on="1"/>
      </contour>
    </TTGlyph>
    <TTGlyph name="glyph02396" xMin="68" yMin="-70" xMax="950" yMax="796">
      <contour>
        <pt x="659" y="-17" on="1"/>
        <pt x="609" y="-17" on="0"/>
        <pt x="538" y="24" on="0"/>
        <pt x="489" y="95" on="0"/>
        <pt x="471" y="138" on="1"/>
        <pt x="483" y="147" on="1"/>
        <pt x="506" y="123" on="0"/>
        <pt x="577" y="88" on="0"/>
        <pt x="626" y="88" on="1"/>
        <pt x="682" y="88" on="0"/>
        <pt x="757" y="162" on="0"/>
        <pt x="757" y="224" on="1"/>
        <pt x="757" y="256" on="0"/>
        <pt x="731" y="314" on="0"/>
        <pt x="672" y="351" on="0"/>
        <pt x="622" y="351" on="1"/>
        <pt x="583" y="351" on="0"/>
        <pt x="499" y="320" on="0"/>
        <pt x="414" y="270" on="0"/>
        <pt x="375" y="243" on="1"/>
        <pt x="348" y="224" on="0"/>
        <pt x="286" y="166" on="0"/>
        <pt x="230" y="106" on="0"/>
        <pt x="211" y="85" on="1"/>
        <pt x="189" y="60" on="0"/>
        <pt x="166" y="21" on="0"/>
        <pt x="149" y="21" on="1"/>
        <pt x="135" y="21" on="0"/>
        <pt x="110" y="35" on="0"/>
        <pt x="99" y="46" on="1"/>
        <pt x="83" y="63" on="0"/>
        <pt x="68" y="103" on="0"/>
        <pt x="68" y="124" on="1"/>
        <pt x="68" y="159" on="0"/>
        <pt x="86" y="179" on="0"/>
        <pt x="110" y="179" on="1"/>
        <pt x="127" y="179" on="0"/>
        <pt x="154" y="187" on="0"/>
        <pt x="168" y="194" on="1"/>
        <pt x="184" y="202" on="0"/>
        <pt x="245" y="246" on="0"/>
        <pt x="323" y="298" on="0"/>
        <pt x="362" y="317" on="1"/>
        <pt x="430" y="351" on="0"/>
        <pt x="567" y="398" on="0"/>
        <pt x="650" y="398" on="1"/>
        <pt x="717" y="398" on="0"/>
        <pt x="820" y="350" on="0"/>
        <pt x="879" y="256" on="0"/>
        <pt x="879" y="187" on="1"/>
        <pt x="879" y="135" on="0"/>
        <pt x="826" y="41" on="0"/>
        <pt x="728" y="-17" on="0"/>
      </contour>
      <contour>
        <pt x="353" y="-70" on="1"/>
        <pt x="333" y="-70" on="0"/>
        <pt x="314" y="-45" on="0"/>
        <pt x="300" y="-9" on="0"/>
        <pt x="285" y="7" on="1"/>
        <pt x="268" y="26" on="0"/>
        <pt x="234" y="55" on="0"/>
        <pt x="202" y="81" on="0"/>
        <pt x="187" y="93" on="1"/>
        <pt x="202" y="113" on="1"/>
        <pt x="232" y="101" on="0"/>
        <pt x="288" y="83" on="0"/>
        <pt x="306" y="81" on="1"/>
        <pt x="333" y="77" on="0"/>
        <pt x="333" y="103" on="1"/>
        <pt x="333" y="151" on="0"/>
        <pt x="333" y="306" on="0"/>
        <pt x="333" y="390" on="1"/>
        <pt x="333" y="416" on="0"/>
        <pt x="334" y="498" on="0"/>
        <pt x="334" y="587" on="0"/>
        <pt x="334" y="663" on="0"/>
        <pt x="333" y="682" on="1"/>
        <pt x="332" y="707" on="0"/>
        <pt x="321" y="722" on="0"/>
        <pt x="308" y="728" on="1"/>
        <pt x="295" y="735" on="0"/>
        <pt x="258" y="741" on="0"/>
        <pt x="235" y="744" on="1"/>
        <pt x="233" y="754" on="1"/>
        <pt x="255" y="775" on="0"/>
        <pt x="301" y="796" on="0"/>
        <pt x="332" y="796" on="1"/>
        <pt x="361" y="796" on="0"/>
        <pt x="424" y="774" on="0"/>
        <pt x="468" y="743" on="0"/>
        <pt x="468" y="727" on="1"/>
        <pt x="468" y="706" on="0"/>
        <pt x="452" y="673" on="0"/>
        <pt x="447" y="648" on="1"/>
        <pt x="443" y="627" on="0"/>
        <pt x="432" y="559" on="0"/>
        <pt x="424" y="479" on="0"/>
        <pt x="418" y="400" on="0"/>
        <pt x="418" y="367" on="1"/>
        <pt x="418" y="280" on="0"/>
        <pt x="425" y="173" on="0"/>
        <pt x="433" y="110" on="0"/>
        <pt x="440" y="72" on="0"/>
        <pt x="440" y="55" on="1"/>
        <pt x="440" y="29" on="0"/>
        <pt x="414" y="-30" on="0"/>
        <pt x="375" y="-70" on="0"/>
      </contour>
      <contour>
        <pt x="235" y="430" on="1"/>
        <pt x="202" y="430" on="0"/>
        <pt x="146" y="456" on="0"/>
        <pt x="105" y="519" on="0"/>
        <pt x="93" y="574" on="1"/>
        <pt x="104" y="582" on="1"/>
        <pt x="126" y="562" on="0"/>
        <pt x="161" y="540" on="0"/>
        <pt x="195" y="532" on="0"/>
        <pt x="216" y="532" on="1"/>
        <pt x="241" y="533" on="0"/>
        <pt x="309" y="547" on="0"/>
        <pt x="375" y="568" on="0"/>
        <pt x="397" y="577" on="1"/>
        <pt x="430" y="590" on="0"/>
        <pt x="472" y="613" on="0"/>
        <pt x="496" y="629" on="0"/>
        <pt x="501" y="629" on="1"/>
        <pt x="505" y="629" on="0"/>
        <pt x="536" y="629" on="0"/>
        <pt x="572" y="619" on="0"/>
        <pt x="600" y="596" on="0"/>
        <pt x="601" y="574" on="1"/>
        <pt x="602" y="558" on="0"/>
        <pt x="579" y="530" on="0"/>
        <pt x="559" y="519" on="1"/>
        <pt x="534" y="506" on="0"/>
        <pt x="448" y="476" on="0"/>
        <pt x="408" y="463" on="1"/>
        <pt x="395" y="459" on="0"/>
        <pt x="333" y="443" on="0"/>
        <pt x="262" y="430" on="0"/>
      </contour>
      <contour>
        <pt x="886" y="444" on="1"/>
        <pt x="874" y="444" on="0"/>
        <pt x="848" y="462" on="0"/>
        <pt x="822" y="481" on="0"/>
        <pt x="810" y="480" on="1"/>
        <pt x="792" y="479" on="0"/>
        <pt x="738" y="465" on="0"/>
        <pt x="721" y="461" on="1"/>
        <pt x="715" y="471" on="1"/>
        <pt x="725" y="478" on="0"/>
        <pt x="753" y="499" on="0"/>
        <pt x="780" y="521" on="0"/>
        <pt x="785" y="527" on="1"/>
        <pt x="795" y="538" on="0"/>
        <pt x="801" y="556" on="0"/>
        <pt x="793" y="569" on="1"/>
        <pt x="781" y="592" on="0"/>
        <pt x="728" y="622" on="0"/>
        <pt x="665" y="637" on="0"/>
        <pt x="638" y="636" on="1"/>
        <pt x="635" y="650" on="1"/>
        <pt x="661" y="662" on="0"/>
        <pt x="736" y="679" on="0"/>
        <pt x="777" y="674" on="1"/>
        <pt x="829" y="668" on="0"/>
        <pt x="907" y="621" on="0"/>
        <pt x="950" y="552" on="0"/>
        <pt x="950" y="513" on="1"/>
        <pt x="950" y="485" on="0"/>
        <pt x="919" y="444" on="0"/>
      </contour>
    </TTGlyph>
    <TTGlyph name="glyph02397" xMin="67" yMin="-37" xMax="947" yMax="799">
      <contour>
        <pt x="133" y="-37" on="1"/>
        <pt x="111" y="-37" on="0"/>
        <pt x="76" y="4" on="0"/>
        <pt x="76" y="38" on="1"/>
        <pt x="76" y="64" on="0"/>
        <pt x="86" y="93" on="0"/>
        <pt x="101" y="112" on="1"/>
        <pt x="124" y="140" on="0"/>
        <pt x="175" y="215" on="0"/>
        <pt x="226" y="305" on="0"/>
        <pt x="248" y="353" on="1"/>
        <pt x="270" y="401" on="0"/>
        <pt x="306" y="491" on="0"/>
        <pt x="333" y="571" on="0"/>
        <pt x="352" y="637" on="0"/>
        <pt x="361" y="684" on="0"/>
        <pt x="361" y="696" on="1"/>
        <pt x="361" y="707" on="0"/>
        <pt x="354" y="723" on="0"/>
        <pt x="347" y="728" on="1"/>
        <pt x="334" y="737" on="0"/>
        <pt x="297" y="750" on="0"/>
        <pt x="276" y="755" on="1"/>
        <pt x="276" y="767" on="1"/>
        <pt x="293" y="778" on="0"/>
        <pt x="340" y="799" on="0"/>
        <pt x="377" y="799" on="1"/>
        <pt x="395" y="799" on="0"/>
        <pt x="444" y="785" on="0"/>
        <pt x="491" y="761" on="0"/>
        <pt x="523" y="732" on="0"/>
        <pt x="523" y="717" on="1"/>
        <pt x="523" y="702" on="0"/>
        <pt x="506" y="677" on="0"/>
        <pt x="484" y="651" on="0"/>
        <pt x="476" y="632" on="1"/>
        <pt x="467" y="610" on="0"/>
        <pt x="435" y="532" on="0"/>
        <pt x="398" y="438" on="0"/>
        <pt x="361" y="349" on="0"/>
        <pt x="347" y="316" on="1"/>
        <pt x="332" y="281" on="0"/>
        <pt x="294" y="196" on="0"/>
        <pt x="255" y="112" on="0"/>
        <pt x="220" y="41" on="0"/>
        <pt x="208" y="19" on="1"/>
        <pt x="190" y="-15" on="0"/>
        <pt x="157" y="-37" on="0"/>
      </contour>
      <contour>
        <pt x="410" y="-27" on="1"/>
        <pt x="379" y="-27" on="0"/>
        <pt x="348" y="5" on="0"/>
        <pt x="339" y="50" on="1"/>
        <pt x="337" y="61" on="0"/>
        <pt x="329" y="78" on="0"/>
        <pt x="308" y="106" on="0"/>
        <pt x="286" y="133" on="1"/>
        <pt x="293" y="145" on="1"/>
        <pt x="329" y="129" on="0"/>
        <pt x="383" y="110" on="0"/>
        <pt x="403" y="110" on="1"/>
        <pt x="427" y="110" on="0"/>
        <pt x="452" y="124" on="0"/>
        <pt x="462" y="136" on="1"/>
        <pt x="482" y="159" on="0"/>
        <pt x="511" y="233" on="0"/>
        <pt x="530" y="320" on="0"/>
        <pt x="539" y="406" on="0"/>
        <pt x="539" y="440" on="1"/>
        <pt x="539" y="472" on="0"/>
        <pt x="512" y="509" on="0"/>
        <pt x="482" y="509" on="1"/>
        <pt x="462" y="509" on="0"/>
        <pt x="399" y="491" on="0"/>
        <pt x="328" y="463" on="0"/>
        <pt x="260" y="432" on="0"/>
        <pt x="233" y="420" on="1"/>
        <pt x="213" y="410" on="0"/>
        <pt x="179" y="396" on="0"/>
        <pt x="158" y="396" on="1"/>
        <pt x="143" y="396" on="0"/>
        <pt x="104" y="428" on="0"/>
        <pt x="75" y="476" on="0"/>
        <pt x="71" y="499" on="1"/>
        <pt x="67" y="524" on="0"/>
        <pt x="80" y="557" on="0"/>
        <pt x="87" y="573" on="1"/>
        <pt x="97" y="576" on="1"/>
        <pt x="114" y="551" on="0"/>
        <pt x="139" y="526" on="0"/>
        <pt x="157" y="526" on="1"/>
        <pt x="173" y="526" on="0"/>
        <pt x="221" y="534" on="0"/>
        <pt x="283" y="545" on="0"/>
        <pt x="355" y="559" on="0"/>
        <pt x="394" y="565" on="1"/>
        <pt x="420" y="570" on="0"/>
        <pt x="487" y="578" on="0"/>
        <pt x="511" y="578" on="1"/>
        <pt x="571" y="578" on="0"/>
        <pt x="647" y="492" on="0"/>
        <pt x="647" y="387" on="1"/>
        <pt x="647" y="322" on="0"/>
        <pt x="627" y="189" on="0"/>
        <pt x="580" y="72" on="0"/>
        <pt x="541" y="30" on="1"/>
        <pt x="517" y="5" on="0"/>
        <pt x="447" y="-27" on="0"/>
      </contour>
      <contour>
        <pt x="872" y="196" on="1"/>
        <pt x="854" y="196" on="0"/>
        <pt x="833" y="214" on="0"/>
        <pt x="814" y="238" on="0"/>
        <pt x="797" y="246" on="1"/>
        <pt x="787" y="251" on="0"/>
        <pt x="752" y="261" on="0"/>
        <pt x="713" y="269" on="0"/>
        <pt x="696" y="270" on="1"/>
        <pt x="693" y="285" on="1"/>
        <pt x="716" y="292" on="0"/>
        <pt x="744" y="301" on="0"/>
        <pt x="765" y="309" on="0"/>
        <pt x="775" y="313" on="1"/>
        <pt x="792" y="321" on="0"/>
        <pt x="809" y="342" on="0"/>
        <pt x="809" y="362" on="1"/>
        <pt x="809" y="385" on="0"/>
        <pt x="796" y="452" on="0"/>
        <pt x="777" y="483" on="1"/>
        <pt x="759" y="515" on="0"/>
        <pt x="708" y="560" on="0"/>
        <pt x="673" y="571" on="1"/>
        <pt x="676" y="586" on="1"/>
        <pt x="717" y="587" on="0"/>
        <pt x="819" y="557" on="0"/>
        <pt x="859" y="521" on="1"/>
        <pt x="907" y="478" on="0"/>
        <pt x="947" y="372" on="0"/>
        <pt x="947" y="314" on="1"/>
        <pt x="947" y="262" on="0"/>
        <pt x="909" y="197" on="0"/>
      </contour>
    </TTGlyph>
    <TTGlyph name="glyph02398" xMin="57" yMin="-47" xMax="968" yMax="803">
      <contour>
        <pt x="833" y="580" on="1"/>
        <pt x="820" y="580" on="0"/>
        <pt x="800" y="596" on="0"/>
        <pt x="789" y="613" on="1"/>
        <pt x="776" y="634" on="0"/>
        <pt x="737" y="689" on="0"/>
        <pt x="702" y="722" on="1"/>
        <pt x="710" y="734" on="1"/>
        <pt x="752" y="725" on="0"/>
        <pt x="824" y="698" on="0"/>
        <pt x="849" y="675" on="1"/>
        <pt x="864" y="662" on="0"/>
        <pt x="874" y="636" on="0"/>
        <pt x="874" y="622" on="1"/>
        <pt x="874" y="605" on="0"/>
        <pt x="851" y="580" on="0"/>
      </contour>
      <contour>
        <pt x="123" y="-47" on="1"/>
        <pt x="101" y="-47" on="0"/>
        <pt x="66" y="-6" on="0"/>
        <pt x="66" y="28" on="1"/>
        <pt x="66" y="54" on="0"/>
        <pt x="76" y="83" on="0"/>
        <pt x="91" y="102" on="1"/>
        <pt x="114" y="130" on="0"/>
        <pt x="165" y="205" on="0"/>
        <pt x="216" y="295" on="0"/>
        <pt x="238" y="343" on="1"/>
        <pt x="260" y="391" on="0"/>
        <pt x="296" y="481" on="0"/>
        <pt x="323" y="561" on="0"/>
        <pt x="342" y="627" on="0"/>
        <pt x="351" y="674" on="0"/>
        <pt x="351" y="686" on="1"/>
        <pt x="351" y="697" on="0"/>
        <pt x="344" y="713" on="0"/>
        <pt x="337" y="718" on="1"/>
        <pt x="324" y="727" on="0"/>
        <pt x="287" y="740" on="0"/>
        <pt x="266" y="745" on="1"/>
        <pt x="266" y="757" on="1"/>
        <pt x="283" y="768" on="0"/>
        <pt x="330" y="789" on="0"/>
        <pt x="367" y="789" on="1"/>
        <pt x="385" y="789" on="0"/>
        <pt x="434" y="775" on="0"/>
        <pt x="481" y="751" on="0"/>
        <pt x="513" y="722" on="0"/>
        <pt x="513" y="707" on="1"/>
        <pt x="513" y="692" on="0"/>
        <pt x="496" y="667" on="0"/>
        <pt x="474" y="641" on="0"/>
        <pt x="466" y="622" on="1"/>
        <pt x="457" y="600" on="0"/>
        <pt x="425" y="522" on="0"/>
        <pt x="388" y="428" on="0"/>
        <pt x="351" y="339" on="0"/>
        <pt x="337" y="306" on="1"/>
        <pt x="322" y="271" on="0"/>
        <pt x="284" y="186" on="0"/>
        <pt x="245" y="102" on="0"/>
        <pt x="210" y="31" on="0"/>
        <pt x="198" y="9" on="1"/>
        <pt x="180" y="-25" on="0"/>
        <pt x="147" y="-47" on="0"/>
      </contour>
      <contour>
        <pt x="400" y="-37" on="1"/>
        <pt x="369" y="-37" on="0"/>
        <pt x="338" y="-5" on="0"/>
        <pt x="329" y="40" on="1"/>
        <pt x="327" y="51" on="0"/>
        <pt x="319" y="68" on="0"/>
        <pt x="298" y="96" on="0"/>
        <pt x="276" y="123" on="1"/>
        <pt x="283" y="135" on="1"/>
        <pt x="319" y="119" on="0"/>
        <pt x="373" y="100" on="0"/>
        <pt x="393" y="100" on="1"/>
        <pt x="417" y="100" on="0"/>
        <pt x="442" y="114" on="0"/>
        <pt x="452" y="126" on="1"/>
        <pt x="472" y="149" on="0"/>
        <pt x="501" y="223" on="0"/>
        <pt x="520" y="310" on="0"/>
        <pt x="529" y="396" on="0"/>
        <pt x="529" y="430" on="1"/>
        <pt x="529" y="462" on="0"/>
        <pt x="502" y="499" on="0"/>
        <pt x="472" y="499" on="1"/>
        <pt x="452" y="499" on="0"/>
        <pt x="389" y="481" on="0"/>
        <pt x="318" y="453" on="0"/>
        <pt x="250" y="422" on="0"/>
        <pt x="223" y="410" on="1"/>
        <pt x="203" y="400" on="0"/>
        <pt x="169" y="386" on="0"/>
        <pt x="148" y="386" on="1"/>
        <pt x="133" y="386" on="0"/>
        <pt x="94" y="418" on="0"/>
        <pt x="65" y="466" on="0"/>
        <pt x="61" y="489" on="1"/>
        <pt x="57" y="514" on="0"/>
        <pt x="70" y="547" on="0"/>
        <pt x="77" y="563" on="1"/>
        <pt x="87" y="566" on="1"/>
        <pt x="104" y="541" on="0"/>
        <pt x="129" y="516" on="0"/>
        <pt x="147" y="516" on="1"/>
        <pt x="163" y="516" on="0"/>
        <pt x="211" y="524" on="0"/>
        <pt x="273" y="535" on="0"/>
        <pt x="345" y="549" on="0"/>
        <pt x="384" y="555" on="1"/>
        <pt x="410" y="560" on="0"/>
        <pt x="477" y="568" on="0"/>
        <pt x="501" y="568" on="1"/>
        <pt x="561" y="568" on="0"/>
        <pt x="637" y="482" on="0"/>
        <pt x="637" y="377" on="1"/>
        <pt x="637" y="312" on="0"/>
        <pt x="617" y="179" on="0"/>
        <pt x="570" y="62" on="0"/>
        <pt x="531" y="20" on="1"/>
        <pt x="507" y="-5" on="0"/>
        <pt x="437" y="-37" on="0"/>
      </contour>
      <contour>
        <pt x="862" y="186" on="1"/>
        <pt x="844" y="186" on="0"/>
        <pt x="823" y="204" on="0"/>
        <pt x="804" y="228" on="0"/>
        <pt x="787" y="236" on="1"/>
        <pt x="777" y="241" on="0"/>
        <pt x="742" y="251" on="0"/>
        <pt x="703" y="259" on="0"/>
        <pt x="686" y="260" on="1"/>
        <pt x="683" y="275" on="1"/>
        <pt x="706" y="282" on="0"/>
        <pt x="734" y="291" on="0"/>
        <pt x="755" y="299" on="0"/>
        <pt x="765" y="303" on="1"/>
        <pt x="782" y="311" on="0"/>
        <pt x="799" y="332" on="0"/>
        <pt x="799" y="352" on="1"/>
        <pt x="799" y="375" on="0"/>
        <pt x="786" y="442" on="0"/>
        <pt x="767" y="473" on="1"/>
        <pt x="749" y="505" on="0"/>
        <pt x="698" y="550" on="0"/>
        <pt x="663" y="561" on="1"/>
        <pt x="666" y="576" on="1"/>
        <pt x="707" y="577" on="0"/>
        <pt x="809" y="547" on="0"/>
        <pt x="849" y="511" on="1"/>
        <pt x="897" y="468" on="0"/>
        <pt x="937" y="362" on="0"/>
        <pt x="937" y="304" on="1"/>
        <pt x="937" y="252" on="0"/>
        <pt x="899" y="187" on="0"/>
      </contour>
      <contour>
        <pt x="931" y="658" on="1"/>
        <pt x="915" y="658" on="0"/>
        <pt x="895" y="676" on="0"/>
        <pt x="881" y="695" on="1"/>
        <pt x="870" y="712" on="0"/>
        <pt x="834" y="759" on="0"/>
        <pt x="793" y="792" on="1"/>
        <pt x="800" y="803" on="1"/>
        <pt x="844" y="797" on="0"/>
        <pt x="913" y="775" on="0"/>
        <pt x="935" y="759" on="1"/>
        <pt x="953" y="746" on="0"/>
        <pt x="968" y="716" on="0"/>
        <pt x="968" y="698" on="1"/>
        <pt x="968" y="680" on="0"/>
        <pt x="948" y="658" on="0"/>
      </contour>
    </TTGlyph>
    <TTGlyph name="glyph02399" xMin="157" yMin="-67" xMax="843" yMax="821">
      <contour>
        <pt x="490" y="-67" on="1"/>
        <pt x="427" y="-67" on="0"/>
        <pt x="324" y="-43" on="0"/>
        <pt x="250" y="3" on="0"/>
        <pt x="210" y="67" on="0"/>
        <pt x="210" y="107" on="1"/>
        <pt x="210" y="154" on="0"/>
        <pt x="272" y="232" on="0"/>
        <pt x="394" y="280" on="0"/>
        <pt x="484" y="280" on="1"/>
        <pt x="528" y="280" on="0"/>
        <pt x="620" y="269" on="0"/>
        <pt x="645" y="264" on="1"/>
        <pt x="653" y="262" on="0"/>
        <pt x="656" y="267" on="0"/>
        <pt x="653" y="273" on="1"/>
        <pt x="638" y="298" on="0"/>
        <pt x="584" y="379" on="0"/>
        <pt x="552" y="438" on="1"/>
        <pt x="534" y="473" on="0"/>
        <pt x="491" y="566" on="0"/>
        <pt x="450" y="660" on="0"/>
        <pt x="436" y="695" on="1"/>
        <pt x="427" y="717" on="0"/>
        <pt x="411" y="736" on="0"/>
        <pt x="388" y="743" on="1"/>
        <pt x="376" y="747" on="0"/>
        <pt x="336" y="754" on="0"/>
        <pt x="317" y="756" on="1"/>
        <pt x="314" y="766" on="1"/>
        <pt x="337" y="790" on="0"/>
        <pt x="393" y="821" on="0"/>
        <pt x="427" y="821" on="1"/>
        <pt x="475" y="821" on="0"/>
        <pt x="532" y="798" on="0"/>
        <pt x="536" y="765" on="1"/>
        <pt x="538" y="754" on="0"/>
        <pt x="543" y="711" on="0"/>
        <pt x="552" y="665" on="0"/>
        <pt x="557" y="647" on="1"/>
        <pt x="571" y="605" on="0"/>
        <pt x="594" y="546" on="0"/>
        <pt x="621" y="492" on="0"/>
        <pt x="640" y="457" on="1"/>
        <pt x="673" y="398" on="0"/>
        <pt x="732" y="325" on="0"/>
        <pt x="778" y="278" on="0"/>
        <pt x="805" y="244" on="0"/>
        <pt x="805" y="224" on="1"/>
        <pt x="805" y="195" on="0"/>
        <pt x="786" y="148" on="0"/>
        <pt x="754" y="121" on="0"/>
        <pt x="736" y="121" on="1"/>
        <pt x="719" y="121" on="0"/>
        <pt x="691" y="137" on="0"/>
        <pt x="653" y="167" on="0"/>
        <pt x="620" y="186" on="1"/>
        <pt x="595" y="203" on="0"/>
        <pt x="500" y="233" on="0"/>
        <pt x="444" y="233" on="1"/>
        <pt x="397" y="233" on="0"/>
        <pt x="332" y="208" on="0"/>
        <pt x="299" y="165" on="0"/>
        <pt x="299" y="139" on="1"/>
        <pt x="299" y="116" on="0"/>
        <pt x="326" y="85" on="0"/>
        <pt x="371" y="66" on="0"/>
        <pt x="425" y="57" on="0"/>
        <pt x="452" y="57" on="1"/>
        <pt x="488" y="57" on="0"/>
        <pt x="531" y="61" on="0"/>
        <pt x="559" y="67" on="0"/>
        <pt x="590" y="71" on="0"/>
        <pt x="614" y="71" on="1"/>
        <pt x="649" y="71" on="0"/>
        <pt x="706" y="44" on="0"/>
        <pt x="706" y="9" on="1"/>
        <pt x="706" y="-14" on="0"/>
        <pt x="666" y="-44" on="0"/>
        <pt x="602" y="-60" on="0"/>
        <pt x="526" y="-67" on="0"/>
      </contour>
      <contour>
        <pt x="335" y="346" on="1"/>
        <pt x="286" y="346" on="0"/>
        <pt x="216" y="382" on="0"/>
        <pt x="188" y="440" on="0"/>
        <pt x="216" y="508" on="0"/>
        <pt x="264" y="541" on="1"/>
        <pt x="276" y="533" on="1"/>
        <pt x="251" y="493" on="0"/>
        <pt x="277" y="451" on="0"/>
        <pt x="332" y="451" on="1"/>
        <pt x="365" y="451" on="0"/>
        <pt x="441" y="459" on="0"/>
        <pt x="530" y="478" on="0"/>
        <pt x="581" y="495" on="1"/>
        <pt x="643" y="515" on="0"/>
        <pt x="711" y="546" on="0"/>
        <pt x="740" y="565" on="0"/>
        <pt x="743" y="565" on="1"/>
        <pt x="765" y="568" on="0"/>
        <pt x="811" y="562" on="0"/>
        <pt x="843" y="538" on="0"/>
        <pt x="843" y="514" on="1"/>
        <pt x="843" y="501" on="0"/>
        <pt x="831" y="474" on="0"/>
        <pt x="811" y="461" on="1"/>
        <pt x="776" y="439" on="0"/>
        <pt x="669" y="397" on="0"/>
        <pt x="539" y="365" on="0"/>
        <pt x="401" y="346" on="0"/>
      </contour>
      <contour>
        <pt x="340" y="550" on="1"/>
        <pt x="287" y="550" on="0"/>
        <pt x="219" y="574" on="0"/>
        <pt x="175" y="631" on="0"/>
        <pt x="157" y="680" on="1"/>
        <pt x="166" y="687" on="1"/>
        <pt x="195" y="670" on="0"/>
        <pt x="238" y="651" on="0"/>
        <pt x="283" y="644" on="0"/>
        <pt x="313" y="644" on="1"/>
        <pt x="344" y="644" on="0"/>
        <pt x="428" y="657" on="0"/>
        <pt x="512" y="677" on="0"/>
        <pt x="540" y="687" on="1"/>
        <pt x="578" y="700" on="0"/>
        <pt x="623" y="727" on="0"/>
        <pt x="647" y="746" on="0"/>
        <pt x="651" y="746" on="1"/>
        <pt x="675" y="746" on="0"/>
        <pt x="720" y="739" on="0"/>
        <pt x="749" y="718" on="0"/>
        <pt x="749" y="696" on="1"/>
        <pt x="749" y="684" on="0"/>
        <pt x="735" y="657" on="0"/>
        <pt x="718" y="646" on="1"/>
        <pt x="693" y="628" on="0"/>
        <pt x="609" y="594" on="0"/>
        <pt x="506" y="566" on="0"/>
        <pt x="394" y="550" on="0"/>
      </contour>
    </TTGlyph>
    <TTGlyph name="glyph02401" xMin="237" yMin="-71" xMax="697" yMax="827">
      <contour>
        <pt x="614" y="-71" on="1"/>
        <pt x="590" y="-71" on="0"/>
        <pt x="555" y="-47" on="0"/>
        <pt x="545" y="-31" on="1"/>
        <pt x="535" y="-14" on="0"/>
        <pt x="514" y="25" on="0"/>
        <pt x="495" y="57" on="1"/>
        <pt x="470" y="101" on="0"/>
        <pt x="355" y="219" on="0"/>
        <pt x="271" y="292" on="1"/>
        <pt x="254" y="307" on="0"/>
        <pt x="237" y="342" on="0"/>
        <pt x="237" y="355" on="1"/>
        <pt x="237" y="372" on="0"/>
        <pt x="251" y="403" on="0"/>
        <pt x="267" y="425" on="1"/>
        <pt x="287" y="450" on="0"/>
        <pt x="352" y="525" on="0"/>
        <pt x="422" y="605" on="0"/>
        <pt x="479" y="673" on="0"/>
        <pt x="492" y="691" on="1"/>
        <pt x="503" y="705" on="0"/>
        <pt x="512" y="726" on="0"/>
        <pt x="512" y="737" on="1"/>
        <pt x="512" y="754" on="0"/>
        <pt x="480" y="795" on="0"/>
        <pt x="464" y="814" on="1"/>
        <pt x="472" y="827" on="1"/>
        <pt x="498" y="826" on="0"/>
        <pt x="546" y="819" on="0"/>
        <pt x="565" y="809" on="1"/>
        <pt x="599" y="793" on="0"/>
        <pt x="651" y="742" on="0"/>
        <pt x="682" y="690" on="0"/>
        <pt x="682" y="669" on="1"/>
        <pt x="682" y="651" on="0"/>
        <pt x="660" y="629" on="0"/>
        <pt x="623" y="610" on="0"/>
        <pt x="599" y="594" on="1"/>
        <pt x="571" y="576" on="0"/>
        <pt x="507" y="530" on="0"/>
        <pt x="444" y="482" on="0"/>
        <pt x="392" y="438" on="0"/>
        <pt x="376" y="423" on="1"/>
        <pt x="358" y="405" on="0"/>
        <pt x="341" y="382" on="0"/>
        <pt x="341" y="372" on="1"/>
        <pt x="341" y="361" on="0"/>
        <pt x="362" y="341" on="0"/>
        <pt x="377" y="331" on="1"/>
        <pt x="422" y="301" on="0"/>
        <pt x="525" y="237" on="0"/>
        <pt x="620" y="165" on="0"/>
        <pt x="652" y="123" on="1"/>
        <pt x="680" y="87" on="0"/>
        <pt x="697" y="38" on="0"/>
        <pt x="697" y="10" on="1"/>
        <pt x="697" y="-7" on="0"/>
        <pt x="682" y="-45" on="0"/>
        <pt x="646" y="-71" on="0"/>
      </contour>
    </TTGlyph>
    <TTGlyph name="glyph02403" xMin="132" yMin="-75" xMax="931" yMax="782">
      <contour>
        <pt x="462" y="-62" on="1"/>
        <pt x="514" y="-30" on="0"/>
        <pt x="588" y="42" on="0"/>
        <pt x="637" y="139" on="0"/>
        <pt x="649" y="208" on="1"/>
        <pt x="655" y="238" on="0"/>
        <pt x="659" y="301" on="0"/>
        <pt x="660" y="367" on="0"/>
        <pt x="658" y="436" on="0"/>
        <pt x="657" y="472" on="1"/>
        <pt x="656" y="503" on="0"/>
        <pt x="652" y="567" on="0"/>
        <pt x="648" y="627" on="0"/>
        <pt x="645" y="650" on="1"/>
        <pt x="643" y="667" on="0"/>
        <pt x="633" y="686" on="0"/>
        <pt x="625" y="692" on="1"/>
        <pt x="609" y="704" on="0"/>
        <pt x="576" y="718" on="0"/>
        <pt x="554" y="725" on="1"/>
        <pt x="552" y="737" on="1"/>
        <pt x="578" y="755" on="0"/>
        <pt x="632" y="782" on="0"/>
        <pt x="654" y="782" on="1"/>
        <pt x="680" y="782" on="0"/>
        <pt x="742" y="761" on="0"/>
        <pt x="787" y="726" on="0"/>
        <pt x="787" y="705" on="1"/>
        <pt x="787" y="692" on="0"/>
        <pt x="776" y="664" on="0"/>
        <pt x="774" y="639" on="1"/>
        <pt x="771" y="608" on="0"/>
        <pt x="774" y="524" on="0"/>
        <pt x="775" y="497" on="1"/>
        <pt x="777" y="455" on="0"/>
        <pt x="781" y="361" on="0"/>
        <pt x="782" y="266" on="0"/>
        <pt x="775" y="180" on="0"/>
        <pt x="764" y="147" on="1"/>
        <pt x="742" y="78" on="0"/>
        <pt x="659" y="-5" on="0"/>
        <pt x="542" y="-55" on="0"/>
        <pt x="468" y="-75" on="1"/>
      </contour>
      <contour>
        <pt x="269" y="-20" on="1"/>
        <pt x="246" y="-20" on="0"/>
        <pt x="202" y="17" on="0"/>
        <pt x="183" y="51" on="1"/>
        <pt x="164" y="86" on="0"/>
        <pt x="132" y="196" on="0"/>
        <pt x="132" y="272" on="1"/>
        <pt x="132" y="326" on="0"/>
        <pt x="147" y="423" on="0"/>
        <pt x="166" y="514" on="0"/>
        <pt x="181" y="603" on="0"/>
        <pt x="181" y="649" on="1"/>
        <pt x="181" y="688" on="0"/>
        <pt x="149" y="754" on="0"/>
        <pt x="133" y="772" on="1"/>
        <pt x="140" y="782" on="1"/>
        <pt x="169" y="777" on="0"/>
        <pt x="210" y="761" on="0"/>
        <pt x="230" y="748" on="1"/>
        <pt x="248" y="738" on="0"/>
        <pt x="291" y="694" on="0"/>
        <pt x="323" y="637" on="0"/>
        <pt x="323" y="607" on="1"/>
        <pt x="323" y="584" on="0"/>
        <pt x="305" y="545" on="0"/>
        <pt x="288" y="516" on="1"/>
        <pt x="257" y="464" on="0"/>
        <pt x="220" y="358" on="0"/>
        <pt x="220" y="302" on="1"/>
        <pt x="220" y="289" on="0"/>
        <pt x="225" y="255" on="0"/>
        <pt x="230" y="244" on="1"/>
        <pt x="235" y="234" on="0"/>
        <pt x="250" y="233" on="0"/>
        <pt x="257" y="242" on="1"/>
        <pt x="268" y="257" on="0"/>
        <pt x="291" y="299" on="0"/>
        <pt x="314" y="347" on="0"/>
        <pt x="334" y="395" on="0"/>
        <pt x="343" y="417" on="1"/>
        <pt x="363" y="409" on="1"/>
        <pt x="355" y="379" on="0"/>
        <pt x="339" y="316" on="0"/>
        <pt x="326" y="257" on="0"/>
        <pt x="321" y="232" on="1"/>
        <pt x="318" y="216" on="0"/>
        <pt x="315" y="188" on="0"/>
        <pt x="315" y="164" on="1"/>
        <pt x="315" y="145" on="0"/>
        <pt x="324" y="104" on="0"/>
        <pt x="333" y="63" on="0"/>
        <pt x="333" y="44" on="1"/>
        <pt x="333" y="14" on="0"/>
        <pt x="301" y="-20" on="0"/>
      </contour>
      <contour>
        <pt x="579" y="436" on="1"/>
        <pt x="548" y="436" on="0"/>
        <pt x="477" y="454" on="0"/>
        <pt x="414" y="518" on="0"/>
        <pt x="392" y="585" on="1"/>
        <pt x="400" y="592" on="1"/>
        <pt x="441" y="567" on="0"/>
        <pt x="511" y="545" on="0"/>
        <pt x="547" y="545" on="1"/>
        <pt x="582" y="545" on="0"/>
        <pt x="678" y="563" on="0"/>
        <pt x="770" y="590" on="0"/>
        <pt x="799" y="604" on="1"/>
        <pt x="822" y="615" on="0"/>
        <pt x="839" y="623" on="0"/>
        <pt x="842" y="623" on="1"/>
        <pt x="877" y="623" on="0"/>
        <pt x="931" y="587" on="0"/>
        <pt x="931" y="558" on="1"/>
        <pt x="931" y="542" on="0"/>
        <pt x="911" y="512" on="0"/>
        <pt x="883" y="498" on="1"/>
        <pt x="864" y="488" on="0"/>
        <pt x="793" y="467" on="0"/>
        <pt x="705" y="448" on="0"/>
        <pt x="617" y="436" on="0"/>
      </contour>
    </TTGlyph>
    <TTGlyph name="glyph02405" xMin="187" yMin="-25" xMax="828" yMax="731">
      <contour>
        <pt x="507" y="-25" on="1"/>
        <pt x="393" y="-25" on="0"/>
        <pt x="254" y="27" on="0"/>
        <pt x="189" y="122" on="0"/>
        <pt x="187" y="249" on="0"/>
        <pt x="211" y="324" on="1"/>
        <pt x="226" y="324" on="1"/>
        <pt x="232" y="269" on="0"/>
        <pt x="259" y="188" on="0"/>
        <pt x="311" y="136" on="0"/>
        <pt x="398" y="110" on="0"/>
        <pt x="464" y="110" on="1"/>
        <pt x="534" y="110" on="0"/>
        <pt x="634" y="133" on="0"/>
        <pt x="698" y="156" on="0"/>
        <pt x="712" y="156" on="1"/>
        <pt x="733" y="156" on="0"/>
        <pt x="787" y="139" on="0"/>
        <pt x="828" y="105" on="0"/>
        <pt x="828" y="78" on="1"/>
        <pt x="828" y="50" on="0"/>
        <pt x="804" y="21" on="0"/>
        <pt x="767" y="7" on="1"/>
        <pt x="724" y="-9" on="0"/>
        <pt x="582" y="-25" on="0"/>
      </contour>
      <contour>
        <pt x="336" y="484" on="1"/>
        <pt x="360" y="504" on="0"/>
        <pt x="418" y="557" on="0"/>
        <pt x="436" y="574" on="1"/>
        <pt x="447" y="585" on="0"/>
        <pt x="432" y="586" on="1"/>
        <pt x="385" y="590" on="0"/>
        <pt x="299" y="610" on="0"/>
        <pt x="238" y="667" on="0"/>
        <pt x="227" y="725" on="1"/>
        <pt x="237" y="731" on="1"/>
        <pt x="262" y="714" on="0"/>
        <pt x="306" y="694" on="0"/>
        <pt x="360" y="686" on="0"/>
        <pt x="399" y="686" on="1"/>
        <pt x="450" y="686" on="0"/>
        <pt x="515" y="695" on="0"/>
        <pt x="558" y="707" on="0"/>
        <pt x="593" y="716" on="0"/>
        <pt x="612" y="716" on="1"/>
        <pt x="638" y="716" on="0"/>
        <pt x="702" y="693" on="0"/>
        <pt x="750" y="656" on="0"/>
        <pt x="750" y="633" on="1"/>
        <pt x="750" y="585" on="0"/>
        <pt x="691" y="573" on="1"/>
        <pt x="666" y="569" on="0"/>
        <pt x="610" y="559" on="0"/>
        <pt x="588" y="554" on="1"/>
        <pt x="557" y="548" on="0"/>
        <pt x="480" y="525" on="0"/>
        <pt x="392" y="492" on="0"/>
        <pt x="344" y="471" on="1"/>
      </contour>
    </TTGlyph>
    <TTGlyph name="glyph02406" xMin="171" yMin="-35" xMax="959" yMax="839">
      <contour>
        <pt x="824" y="619" on="1"/>
        <pt x="812" y="620" on="0"/>
        <pt x="791" y="636" on="0"/>
        <pt x="780" y="652" on="1"/>
        <pt x="768" y="673" on="0"/>
        <pt x="730" y="730" on="0"/>
        <pt x="695" y="763" on="1"/>
        <pt x="703" y="774" on="1"/>
        <pt x="745" y="764" on="0"/>
        <pt x="817" y="737" on="0"/>
        <pt x="842" y="714" on="1"/>
        <pt x="856" y="701" on="0"/>
        <pt x="867" y="673" on="0"/>
        <pt x="866" y="659" on="1"/>
        <pt x="866" y="643" on="0"/>
        <pt x="842" y="619" on="0"/>
      </contour>
      <contour>
        <pt x="491" y="-35" on="1"/>
        <pt x="377" y="-35" on="0"/>
        <pt x="238" y="17" on="0"/>
        <pt x="173" y="112" on="0"/>
        <pt x="171" y="239" on="0"/>
        <pt x="195" y="314" on="1"/>
        <pt x="210" y="314" on="1"/>
        <pt x="216" y="259" on="0"/>
        <pt x="243" y="178" on="0"/>
        <pt x="295" y="126" on="0"/>
        <pt x="382" y="100" on="0"/>
        <pt x="448" y="100" on="1"/>
        <pt x="518" y="100" on="0"/>
        <pt x="618" y="123" on="0"/>
        <pt x="682" y="146" on="0"/>
        <pt x="696" y="146" on="1"/>
        <pt x="717" y="146" on="0"/>
        <pt x="771" y="129" on="0"/>
        <pt x="812" y="95" on="0"/>
        <pt x="812" y="68" on="1"/>
        <pt x="812" y="40" on="0"/>
        <pt x="788" y="11" on="0"/>
        <pt x="751" y="-3" on="1"/>
        <pt x="708" y="-19" on="0"/>
        <pt x="566" y="-35" on="0"/>
      </contour>
      <contour>
        <pt x="320" y="474" on="1"/>
        <pt x="344" y="494" on="0"/>
        <pt x="402" y="547" on="0"/>
        <pt x="420" y="564" on="1"/>
        <pt x="431" y="575" on="0"/>
        <pt x="416" y="576" on="1"/>
        <pt x="369" y="580" on="0"/>
        <pt x="283" y="600" on="0"/>
        <pt x="222" y="657" on="0"/>
        <pt x="211" y="715" on="1"/>
        <pt x="221" y="721" on="1"/>
        <pt x="246" y="704" on="0"/>
        <pt x="290" y="684" on="0"/>
        <pt x="344" y="676" on="0"/>
        <pt x="383" y="676" on="1"/>
        <pt x="434" y="676" on="0"/>
        <pt x="499" y="685" on="0"/>
        <pt x="542" y="697" on="0"/>
        <pt x="577" y="706" on="0"/>
        <pt x="596" y="706" on="1"/>
        <pt x="622" y="706" on="0"/>
        <pt x="686" y="683" on="0"/>
        <pt x="734" y="646" on="0"/>
        <pt x="734" y="623" on="1"/>
        <pt x="734" y="575" on="0"/>
        <pt x="675" y="563" on="1"/>
        <pt x="650" y="559" on="0"/>
        <pt x="594" y="549" on="0"/>
        <pt x="572" y="544" on="1"/>
        <pt x="541" y="538" on="0"/>
        <pt x="464" y="515" on="0"/>
        <pt x="376" y="482" on="0"/>
        <pt x="328" y="461" on="1"/>
      </contour>
      <contour>
        <pt x="922" y="694" on="1"/>
        <pt x="907" y="694" on="0"/>
        <pt x="886" y="712" on="0"/>
        <pt x="873" y="731" on="1"/>
        <pt x="861" y="747" on="0"/>
        <pt x="825" y="794" on="0"/>
        <pt x="784" y="828" on="1"/>
        <pt x="791" y="839" on="1"/>
        <pt x="835" y="833" on="0"/>
        <pt x="904" y="811" on="0"/>
        <pt x="926" y="795" on="1"/>
        <pt x="944" y="782" on="0"/>
        <pt x="959" y="751" on="0"/>
        <pt x="959" y="734" on="1"/>
        <pt x="959" y="716" on="0"/>
        <pt x="939" y="694" on="0"/>
      </contour>
    </TTGlyph>
    <TTGlyph name="glyph02407" xMin="112" yMin="-49" xMax="836" yMax="795">
      <contour>
        <pt x="523" y="-49" on="1"/>
        <pt x="450" y="-49" on="0"/>
        <pt x="333" y="-21" on="0"/>
        <pt x="249" y="32" on="0"/>
        <pt x="204" y="107" on="0"/>
        <pt x="204" y="153" on="1"/>
        <pt x="204" y="210" on="0"/>
        <pt x="277" y="301" on="0"/>
        <pt x="403" y="354" on="0"/>
        <pt x="484" y="354" on="1"/>
        <pt x="543" y="354" on="0"/>
        <pt x="638" y="342" on="0"/>
        <pt x="663" y="337" on="1"/>
        <pt x="683" y="334" on="0"/>
        <pt x="668" y="349" on="1"/>
        <pt x="655" y="363" on="0"/>
        <pt x="610" y="407" on="0"/>
        <pt x="559" y="459" on="0"/>
        <pt x="511" y="514" on="0"/>
        <pt x="495" y="539" on="1"/>
        <pt x="481" y="560" on="0"/>
        <pt x="453" y="615" on="0"/>
        <pt x="427" y="669" on="0"/>
        <pt x="416" y="686" on="1"/>
        <pt x="404" y="706" on="0"/>
        <pt x="342" y="727" on="0"/>
        <pt x="300" y="732" on="1"/>
        <pt x="297" y="745" on="1"/>
        <pt x="319" y="762" on="0"/>
        <pt x="380" y="795" on="0"/>
        <pt x="416" y="795" on="1"/>
        <pt x="466" y="795" on="0"/>
        <pt x="528" y="767" on="0"/>
        <pt x="533" y="747" on="1"/>
        <pt x="545" y="698" on="0"/>
        <pt x="561" y="638" on="0"/>
        <pt x="578" y="594" on="0"/>
        <pt x="591" y="569" on="1"/>
        <pt x="617" y="520" on="0"/>
        <pt x="698" y="440" on="0"/>
        <pt x="780" y="376" on="0"/>
        <pt x="805" y="350" on="1"/>
        <pt x="822" y="334" on="0"/>
        <pt x="836" y="305" on="0"/>
        <pt x="836" y="285" on="1"/>
        <pt x="836" y="266" on="0"/>
        <pt x="828" y="219" on="0"/>
        <pt x="806" y="185" on="0"/>
        <pt x="783" y="185" on="1"/>
        <pt x="758" y="185" on="0"/>
        <pt x="710" y="209" on="0"/>
        <pt x="684" y="227" on="1"/>
        <pt x="661" y="243" on="0"/>
        <pt x="598" y="279" on="0"/>
        <pt x="513" y="305" on="0"/>
        <pt x="457" y="305" on="1"/>
        <pt x="408" y="305" on="0"/>
        <pt x="337" y="275" on="0"/>
        <pt x="299" y="221" on="0"/>
        <pt x="299" y="186" on="1"/>
        <pt x="299" y="144" on="0"/>
        <pt x="387" y="86" on="0"/>
        <pt x="483" y="86" on="1"/>
        <pt x="532" y="86" on="0"/>
        <pt x="602" y="98" on="0"/>
        <pt x="633" y="98" on="1"/>
        <pt x="671" y="98" on="0"/>
        <pt x="731" y="67" on="0"/>
        <pt x="731" y="27" on="1"/>
        <pt x="731" y="-7" on="0"/>
        <pt x="639" y="-49" on="0"/>
      </contour>
      <contour>
        <pt x="322" y="462" on="1"/>
        <pt x="252" y="461" on="0"/>
        <pt x="175" y="493" on="0"/>
        <pt x="132" y="566" on="0"/>
        <pt x="112" y="623" on="1"/>
        <pt x="125" y="632" on="1"/>
        <pt x="158" y="604" on="0"/>
        <pt x="212" y="575" on="0"/>
        <pt x="266" y="567" on="0"/>
        <pt x="297" y="567" on="1"/>
        <pt x="324" y="568" on="0"/>
        <pt x="399" y="581" on="0"/>
        <pt x="480" y="605" on="0"/>
        <pt x="516" y="619" on="1"/>
        <pt x="575" y="642" on="0"/>
        <pt x="643" y="690" on="0"/>
        <pt x="680" y="722" on="0"/>
        <pt x="690" y="722" on="1"/>
        <pt x="710" y="723" on="0"/>
        <pt x="756" y="714" on="0"/>
        <pt x="769" y="698" on="1"/>
        <pt x="783" y="683" on="0"/>
        <pt x="782" y="640" on="0"/>
        <pt x="766" y="624" on="1"/>
        <pt x="750" y="607" on="0"/>
        <pt x="689" y="569" on="0"/>
        <pt x="613" y="533" on="0"/>
        <pt x="574" y="518" on="1"/>
        <pt x="540" y="505" on="0"/>
        <pt x="452" y="479" on="0"/>
        <pt x="362" y="463" on="0"/>
      </contour>
    </TTGlyph>
    <TTGlyph name="glyph02409" xMin="179" yMin="-49" xMax="893" yMax="795">
      <contour>
        <pt x="477" y="-49" on="1"/>
        <pt x="407" y="-49" on="0"/>
        <pt x="303" y="5" on="0"/>
        <pt x="246" y="123" on="0"/>
        <pt x="246" y="220" on="1"/>
        <pt x="246" y="261" on="0"/>
        <pt x="250" y="351" on="0"/>
        <pt x="255" y="442" on="0"/>
        <pt x="260" y="527" on="0"/>
        <pt x="264" y="598" on="0"/>
        <pt x="264" y="623" on="1"/>
        <pt x="264" y="664" on="0"/>
        <pt x="256" y="704" on="0"/>
        <pt x="242" y="718" on="1"/>
        <pt x="229" y="731" on="0"/>
        <pt x="206" y="746" on="0"/>
        <pt x="179" y="756" on="1"/>
        <pt x="179" y="769" on="1"/>
        <pt x="198" y="779" on="0"/>
        <pt x="239" y="795" on="0"/>
        <pt x="261" y="795" on="1"/>
        <pt x="290" y="795" on="0"/>
        <pt x="353" y="768" on="0"/>
        <pt x="408" y="725" on="0"/>
        <pt x="443" y="680" on="0"/>
        <pt x="443" y="662" on="1"/>
        <pt x="443" y="647" on="0"/>
        <pt x="427" y="619" on="0"/>
        <pt x="407" y="585" on="0"/>
        <pt x="400" y="558" on="1"/>
        <pt x="389" y="510" on="0"/>
        <pt x="368" y="400" on="0"/>
        <pt x="354" y="288" on="0"/>
        <pt x="354" y="236" on="1"/>
        <pt x="354" y="183" on="0"/>
        <pt x="377" y="118" on="0"/>
        <pt x="441" y="89" on="0"/>
        <pt x="500" y="89" on="1"/>
        <pt x="564" y="89" on="0"/>
        <pt x="702" y="138" on="0"/>
        <pt x="830" y="225" on="0"/>
        <pt x="878" y="280" on="1"/>
        <pt x="893" y="269" on="1"/>
        <pt x="871" y="207" on="0"/>
        <pt x="795" y="93" on="0"/>
        <pt x="690" y="3" on="0"/>
        <pt x="557" y="-49" on="0"/>
      </contour>
    </TTGlyph>
    <TTGlyph name="glyph02410" xMin="168" yMin="-49" xMax="882" yMax="795">
      <contour>
        <pt x="759" y="547" on="1"/>
        <pt x="743" y="547" on="0"/>
        <pt x="722" y="564" on="0"/>
        <pt x="710" y="584" on="1"/>
        <pt x="697" y="604" on="0"/>
        <pt x="655" y="663" on="0"/>
        <pt x="611" y="697" on="1"/>
        <pt x="619" y="709" on="1"/>
        <pt x="667" y="702" on="0"/>
        <pt x="741" y="672" on="0"/>
        <pt x="765" y="651" on="1"/>
        <pt x="799" y="623" on="0"/>
        <pt x="799" y="588" on="1"/>
        <pt x="799" y="569" on="0"/>
        <pt x="777" y="547" on="0"/>
      </contour>
      <contour>
        <pt x="654" y="451" on="1"/>
        <pt x="641" y="451" on="0"/>
        <pt x="620" y="467" on="0"/>
        <pt x="609" y="485" on="1"/>
        <pt x="595" y="508" on="0"/>
        <pt x="550" y="578" on="0"/>
        <pt x="513" y="612" on="1"/>
        <pt x="521" y="624" on="1"/>
        <pt x="566" y="614" on="0"/>
        <pt x="647" y="576" on="0"/>
        <pt x="672" y="550" on="1"/>
        <pt x="698" y="523" on="0"/>
        <pt x="698" y="494" on="1"/>
        <pt x="698" y="476" on="0"/>
        <pt x="675" y="451" on="0"/>
      </contour>
      <contour>
        <pt x="466" y="-49" on="1"/>
        <pt x="396" y="-49" on="0"/>
        <pt x="292" y="5" on="0"/>
        <pt x="235" y="123" on="0"/>
        <pt x="235" y="220" on="1"/>
        <pt x="235" y="261" on="0"/>
        <pt x="239" y="351" on="0"/>
        <pt x="244" y="442" on="0"/>
        <pt x="249" y="527" on="0"/>
        <pt x="253" y="598" on="0"/>
        <pt x="253" y="623" on="1"/>
        <pt x="253" y="664" on="0"/>
        <pt x="245" y="704" on="0"/>
        <pt x="231" y="718" on="1"/>
        <pt x="218" y="731" on="0"/>
        <pt x="195" y="746" on="0"/>
        <pt x="168" y="756" on="1"/>
        <pt x="168" y="769" on="1"/>
        <pt x="187" y="779" on="0"/>
        <pt x="228" y="795" on="0"/>
        <pt x="250" y="795" on="1"/>
        <pt x="279" y="795" on="0"/>
        <pt x="342" y="768" on="0"/>
        <pt x="397" y="725" on="0"/>
        <pt x="432" y="680" on="0"/>
        <pt x="432" y="662" on="1"/>
        <pt x="432" y="647" on="0"/>
        <pt x="416" y="619" on="0"/>
        <pt x="396" y="585" on="0"/>
        <pt x="389" y="558" on="1"/>
        <pt x="378" y="510" on="0"/>
        <pt x="357" y="400" on="0"/>
        <pt x="343" y="288" on="0"/>
        <pt x="343" y="236" on="1"/>
        <pt x="343" y="183" on="0"/>
        <pt x="366" y="118" on="0"/>
        <pt x="430" y="89" on="0"/>
        <pt x="489" y="89" on="1"/>
        <pt x="553" y="89" on="0"/>
        <pt x="691" y="138" on="0"/>
        <pt x="819" y="225" on="0"/>
        <pt x="867" y="280" on="1"/>
        <pt x="882" y="269" on="1"/>
        <pt x="860" y="207" on="0"/>
        <pt x="784" y="93" on="0"/>
        <pt x="679" y="3" on="0"/>
        <pt x="546" y="-49" on="0"/>
      </contour>
    </TTGlyph>
    <TTGlyph name="glyph02411" xMin="74" yMin="-74" xMax="944" yMax="813">
      <contour>
        <pt x="237" y="-58" on="1"/>
        <pt x="326" y="-26" on="0"/>
        <pt x="466" y="68" on="0"/>
        <pt x="495" y="136" on="1"/>
        <pt x="446" y="126" on="0"/>
        <pt x="370" y="169" on="0"/>
        <pt x="328" y="252" on="0"/>
        <pt x="328" y="301" on="1"/>
        <pt x="328" y="349" on="0"/>
        <pt x="368" y="421" on="0"/>
        <pt x="434" y="461" on="0"/>
        <pt x="474" y="461" on="1"/>
        <pt x="540" y="461" on="0"/>
        <pt x="616" y="405" on="0"/>
        <pt x="649" y="317" on="0"/>
        <pt x="649" y="268" on="1"/>
        <pt x="649" y="187" on="0"/>
        <pt x="586" y="65" on="0"/>
        <pt x="475" y="-18" on="0"/>
        <pt x="328" y="-66" on="0"/>
        <pt x="243" y="-74" on="1"/>
      </contour>
      <contour>
        <pt x="458" y="237" on="1"/>
        <pt x="492" y="237" on="0"/>
        <pt x="514" y="280" on="0"/>
        <pt x="514" y="319" on="1"/>
        <pt x="514" y="350" on="0"/>
        <pt x="493" y="403" on="0"/>
        <pt x="462" y="403" on="1"/>
        <pt x="430" y="403" on="0"/>
        <pt x="386" y="353" on="0"/>
        <pt x="386" y="314" on="1"/>
        <pt x="386" y="285" on="0"/>
        <pt x="425" y="237" on="0"/>
      </contour>
      <contour>
        <pt x="192" y="462" on="1"/>
        <pt x="172" y="462" on="0"/>
        <pt x="123" y="494" on="0"/>
        <pt x="84" y="542" on="0"/>
        <pt x="78" y="564" on="1"/>
        <pt x="74" y="583" on="0"/>
        <pt x="74" y="625" on="0"/>
        <pt x="75" y="642" on="1"/>
        <pt x="88" y="648" on="1"/>
        <pt x="118" y="614" on="0"/>
        <pt x="151" y="594" on="0"/>
        <pt x="176" y="593" on="1"/>
        <pt x="193" y="592" on="0"/>
        <pt x="272" y="599" on="0"/>
        <pt x="373" y="610" on="0"/>
        <pt x="474" y="622" on="0"/>
        <pt x="557" y="632" on="0"/>
        <pt x="578" y="634" on="1"/>
        <pt x="662" y="643" on="0"/>
        <pt x="753" y="658" on="0"/>
        <pt x="794" y="669" on="0"/>
        <pt x="806" y="675" on="0"/>
        <pt x="811" y="675" on="1"/>
        <pt x="842" y="675" on="0"/>
        <pt x="903" y="654" on="0"/>
        <pt x="944" y="615" on="0"/>
        <pt x="944" y="588" on="1"/>
        <pt x="944" y="557" on="0"/>
        <pt x="911" y="543" on="0"/>
        <pt x="885" y="543" on="1"/>
        <pt x="866" y="543" on="0"/>
        <pt x="822" y="551" on="0"/>
        <pt x="760" y="561" on="0"/>
        <pt x="669" y="563" on="0"/>
        <pt x="603" y="557" on="1"/>
        <pt x="530" y="551" on="0"/>
        <pt x="412" y="531" on="0"/>
        <pt x="325" y="510" on="0"/>
        <pt x="298" y="501" on="1"/>
        <pt x="275" y="494" on="0"/>
        <pt x="241" y="475" on="0"/>
        <pt x="211" y="462" on="0"/>
      </contour>
      <contour>
        <pt x="516" y="417" on="1"/>
        <pt x="516" y="426" on="0"/>
        <pt x="513" y="478" on="0"/>
        <pt x="509" y="549" on="0"/>
        <pt x="503" y="624" on="0"/>
        <pt x="496" y="687" on="0"/>
        <pt x="492" y="706" on="1"/>
        <pt x="490" y="718" on="0"/>
        <pt x="480" y="731" on="0"/>
        <pt x="469" y="737" on="1"/>
        <pt x="456" y="744" on="0"/>
        <pt x="421" y="754" on="0"/>
        <pt x="401" y="758" on="1"/>
        <pt x="400" y="769" on="1"/>
        <pt x="419" y="785" on="0"/>
        <pt x="471" y="813" on="0"/>
        <pt x="498" y="813" on="1"/>
        <pt x="530" y="813" on="0"/>
        <pt x="593" y="796" on="0"/>
        <pt x="636" y="767" on="0"/>
        <pt x="636" y="748" on="1"/>
        <pt x="636" y="727" on="0"/>
        <pt x="617" y="690" on="0"/>
        <pt x="615" y="672" on="1"/>
        <pt x="614" y="655" on="0"/>
        <pt x="610" y="573" on="0"/>
        <pt x="609" y="468" on="0"/>
        <pt x="609" y="364" on="0"/>
        <pt x="610" y="325" on="1"/>
      </contour>
    </TTGlyph>
    <TTGlyph name="glyph02413" xMin="32" yMin="-32" xMax="963" yMax="808">
      <contour>
        <pt x="569" y="-32" on="1"/>
        <pt x="481" y="-32" on="0"/>
        <pt x="356" y="-7" on="0"/>
        <pt x="289" y="67" on="0"/>
        <pt x="286" y="139" on="1"/>
        <pt x="285" y="172" on="0"/>
        <pt x="284" y="255" on="0"/>
        <pt x="283" y="352" on="0"/>
        <pt x="282" y="403" on="1"/>
        <pt x="281" y="456" on="0"/>
        <pt x="278" y="562" on="0"/>
        <pt x="274" y="602" on="1"/>
        <pt x="272" y="623" on="0"/>
        <pt x="263" y="642" on="0"/>
        <pt x="253" y="649" on="1"/>
        <pt x="240" y="657" on="0"/>
        <pt x="211" y="663" on="0"/>
        <pt x="195" y="667" on="1"/>
        <pt x="193" y="678" on="1"/>
        <pt x="214" y="692" on="0"/>
        <pt x="266" y="718" on="0"/>
        <pt x="288" y="718" on="1"/>
        <pt x="315" y="718" on="0"/>
        <pt x="368" y="696" on="0"/>
        <pt x="410" y="663" on="0"/>
        <pt x="436" y="628" on="0"/>
        <pt x="436" y="615" on="1"/>
        <pt x="436" y="603" on="0"/>
        <pt x="425" y="585" on="0"/>
        <pt x="411" y="562" on="0"/>
        <pt x="406" y="543" on="1"/>
        <pt x="402" y="527" on="0"/>
        <pt x="397" y="468" on="0"/>
        <pt x="395" y="433" on="1"/>
        <pt x="392" y="388" on="0"/>
        <pt x="387" y="288" on="0"/>
        <pt x="385" y="203" on="0"/>
        <pt x="385" y="179" on="1"/>
        <pt x="385" y="152" on="0"/>
        <pt x="393" y="116" on="0"/>
        <pt x="416" y="95" on="0"/>
        <pt x="458" y="86" on="0"/>
        <pt x="493" y="86" on="1"/>
        <pt x="554" y="86" on="0"/>
        <pt x="657" y="104" on="0"/>
        <pt x="725" y="122" on="0"/>
        <pt x="733" y="122" on="1"/>
        <pt x="757" y="122" on="0"/>
        <pt x="804" y="106" on="0"/>
        <pt x="835" y="74" on="0"/>
        <pt x="835" y="49" on="1"/>
        <pt x="835" y="28" on="0"/>
        <pt x="802" y="-5" on="0"/>
        <pt x="768" y="-14" on="1"/>
        <pt x="734" y="-23" on="0"/>
        <pt x="634" y="-32" on="0"/>
      </contour>
      <contour>
        <pt x="135" y="285" on="1"/>
        <pt x="109" y="285" on="0"/>
        <pt x="57" y="337" on="0"/>
        <pt x="42" y="369" on="1"/>
        <pt x="35" y="385" on="0"/>
        <pt x="32" y="428" on="0"/>
        <pt x="33" y="452" on="1"/>
        <pt x="46" y="457" on="1"/>
        <pt x="63" y="438" on="0"/>
        <pt x="95" y="421" on="0"/>
        <pt x="114" y="421" on="1"/>
        <pt x="123" y="421" on="0"/>
        <pt x="171" y="431" on="0"/>
        <pt x="235" y="446" on="0"/>
        <pt x="304" y="464" on="0"/>
        <pt x="335" y="472" on="1"/>
        <pt x="372" y="483" on="0"/>
        <pt x="466" y="506" on="0"/>
        <pt x="564" y="530" on="0"/>
        <pt x="650" y="551" on="0"/>
        <pt x="679" y="558" on="1"/>
        <pt x="738" y="573" on="0"/>
        <pt x="802" y="588" on="0"/>
        <pt x="829" y="593" on="0"/>
        <pt x="834" y="593" on="1"/>
        <pt x="861" y="593" on="0"/>
        <pt x="921" y="573" on="0"/>
        <pt x="963" y="534" on="0"/>
        <pt x="963" y="504" on="1"/>
        <pt x="963" y="475" on="0"/>
        <pt x="928" y="453" on="0"/>
        <pt x="896" y="453" on="1"/>
        <pt x="871" y="453" on="0"/>
        <pt x="828" y="462" on="0"/>
        <pt x="771" y="468" on="0"/>
        <pt x="722" y="464" on="1"/>
        <pt x="679" y="460" on="0"/>
        <pt x="580" y="444" on="0"/>
        <pt x="477" y="421" on="0"/>
        <pt x="379" y="391" on="0"/>
        <pt x="338" y="373" on="1"/>
        <pt x="283" y="349" on="0"/>
        <pt x="204" y="309" on="0"/>
        <pt x="152" y="285" on="0"/>
      </contour>
      <contour>
        <pt x="596" y="179" on="1"/>
        <pt x="574" y="179" on="0"/>
        <pt x="548" y="199" on="0"/>
        <pt x="540" y="223" on="1"/>
        <pt x="530" y="252" on="0"/>
        <pt x="474" y="298" on="0"/>
        <pt x="443" y="319" on="1"/>
        <pt x="447" y="330" on="1"/>
        <pt x="485" y="321" on="0"/>
        <pt x="557" y="308" on="0"/>
        <pt x="572" y="308" on="1"/>
        <pt x="590" y="308" on="0"/>
        <pt x="610" y="317" on="0"/>
        <pt x="615" y="342" on="1"/>
        <pt x="619" y="357" on="0"/>
        <pt x="624" y="417" on="0"/>
        <pt x="627" y="480" on="0"/>
        <pt x="627" y="497" on="1"/>
        <pt x="628" y="520" on="0"/>
        <pt x="630" y="595" on="0"/>
        <pt x="630" y="675" on="0"/>
        <pt x="628" y="704" on="1"/>
        <pt x="627" y="730" on="0"/>
        <pt x="596" y="741" on="1"/>
        <pt x="582" y="746" on="0"/>
        <pt x="556" y="750" on="0"/>
        <pt x="541" y="753" on="1"/>
        <pt x="539" y="764" on="1"/>
        <pt x="560" y="782" on="0"/>
        <pt x="608" y="808" on="0"/>
        <pt x="627" y="808" on="1"/>
        <pt x="661" y="808" on="0"/>
        <pt x="728" y="775" on="0"/>
        <pt x="772" y="729" on="0"/>
        <pt x="772" y="710" on="1"/>
        <pt x="772" y="694" on="0"/>
        <pt x="748" y="661" on="0"/>
        <pt x="744" y="634" on="1"/>
        <pt x="741" y="608" on="0"/>
        <pt x="733" y="540" on="0"/>
        <pt x="731" y="503" on="1"/>
        <pt x="729" y="473" on="0"/>
        <pt x="724" y="385" on="0"/>
        <pt x="715" y="299" on="0"/>
        <pt x="708" y="272" on="1"/>
        <pt x="698" y="235" on="0"/>
        <pt x="639" y="179" on="0"/>
      </contour>
    </TTGlyph>
    <TTGlyph name="glyph02415" xMin="104" yMin="-64" xMax="884" yMax="801">
      <contour>
        <pt x="647" y="-64" on="1"/>
        <pt x="604" y="-64" on="0"/>
        <pt x="527" y="-52" on="0"/>
        <pt x="506" y="-45" on="1"/>
        <pt x="462" y="-30" on="0"/>
        <pt x="396" y="24" on="0"/>
        <pt x="360" y="98" on="0"/>
        <pt x="360" y="143" on="1"/>
        <pt x="360" y="186" on="0"/>
        <pt x="387" y="252" on="0"/>
        <pt x="428" y="304" on="0"/>
        <pt x="448" y="324" on="1"/>
        <pt x="456" y="333" on="0"/>
        <pt x="453" y="341" on="0"/>
        <pt x="442" y="337" on="1"/>
        <pt x="405" y="327" on="0"/>
        <pt x="321" y="285" on="0"/>
        <pt x="294" y="266" on="1"/>
        <pt x="264" y="246" on="0"/>
        <pt x="229" y="211" on="0"/>
        <pt x="200" y="190" on="0"/>
        <pt x="179" y="190" on="1"/>
        <pt x="161" y="190" on="0"/>
        <pt x="127" y="220" on="0"/>
        <pt x="104" y="262" on="0"/>
        <pt x="104" y="279" on="1"/>
        <pt x="104" y="300" on="0"/>
        <pt x="120" y="326" on="0"/>
        <pt x="140" y="334" on="1"/>
        <pt x="157" y="341" on="0"/>
        <pt x="213" y="359" on="0"/>
        <pt x="231" y="369" on="1"/>
        <pt x="266" y="389" on="0"/>
        <pt x="362" y="470" on="0"/>
        <pt x="408" y="516" on="1"/>
        <pt x="420" y="527" on="0"/>
        <pt x="448" y="556" on="0"/>
        <pt x="480" y="590" on="0"/>
        <pt x="512" y="627" on="0"/>
        <pt x="541" y="665" on="0"/>
        <pt x="554" y="684" on="1"/>
        <pt x="566" y="701" on="0"/>
        <pt x="557" y="711" on="0"/>
        <pt x="538" y="703" on="1"/>
        <pt x="524" y="698" on="0"/>
        <pt x="484" y="671" on="0"/>
        <pt x="444" y="641" on="0"/>
        <pt x="431" y="630" on="1"/>
        <pt x="421" y="621" on="0"/>
        <pt x="397" y="604" on="0"/>
        <pt x="370" y="592" on="0"/>
        <pt x="353" y="592" on="1"/>
        <pt x="341" y="592" on="0"/>
        <pt x="303" y="614" on="0"/>
        <pt x="266" y="651" on="0"/>
        <pt x="243" y="696" on="0"/>
        <pt x="244" y="719" on="1"/>
        <pt x="245" y="735" on="0"/>
        <pt x="262" y="781" on="0"/>
        <pt x="271" y="796" on="1"/>
        <pt x="281" y="796" on="1"/>
        <pt x="287" y="782" on="0"/>
        <pt x="305" y="749" on="0"/>
        <pt x="326" y="725" on="0"/>
        <pt x="336" y="724" on="1"/>
        <pt x="346" y="723" on="0"/>
        <pt x="382" y="728" on="0"/>
        <pt x="430" y="738" on="0"/>
        <pt x="488" y="754" on="0"/>
        <pt x="521" y="765" on="1"/>
        <pt x="541" y="772" on="0"/>
        <pt x="562" y="788" on="0"/>
        <pt x="580" y="801" on="0"/>
        <pt x="593" y="801" on="1"/>
        <pt x="611" y="801" on="0"/>
        <pt x="660" y="775" on="0"/>
        <pt x="707" y="735" on="0"/>
        <pt x="737" y="691" on="0"/>
        <pt x="737" y="673" on="1"/>
        <pt x="737" y="660" on="0"/>
        <pt x="723" y="643" on="0"/>
        <pt x="704" y="633" on="0"/>
        <pt x="696" y="630" on="1"/>
        <pt x="678" y="623" on="0"/>
        <pt x="613" y="583" on="0"/>
        <pt x="534" y="528" on="0"/>
        <pt x="453" y="468" on="0"/>
        <pt x="381" y="411" on="0"/>
        <pt x="356" y="390" on="1"/>
        <pt x="353" y="386" on="0"/>
        <pt x="355" y="382" on="0"/>
        <pt x="359" y="383" on="1"/>
        <pt x="377" y="387" on="0"/>
        <pt x="430" y="403" on="0"/>
        <pt x="492" y="422" on="0"/>
        <pt x="553" y="443" on="0"/>
        <pt x="578" y="451" on="1"/>
        <pt x="630" y="468" on="0"/>
        <pt x="709" y="496" on="0"/>
        <pt x="748" y="496" on="1"/>
        <pt x="773" y="496" on="0"/>
        <pt x="837" y="479" on="0"/>
        <pt x="884" y="444" on="0"/>
        <pt x="884" y="417" on="1"/>
        <pt x="884" y="395" on="0"/>
        <pt x="851" y="367" on="0"/>
        <pt x="816" y="367" on="1"/>
        <pt x="797" y="367" on="0"/>
        <pt x="739" y="369" on="0"/>
        <pt x="712" y="369" on="1"/>
        <pt x="691" y="369" on="0"/>
        <pt x="615" y="363" on="0"/>
        <pt x="532" y="341" on="0"/>
        <pt x="500" y="318" on="1"/>
        <pt x="483" y="305" on="0"/>
        <pt x="453" y="270" on="0"/>
        <pt x="436" y="223" on="0"/>
        <pt x="436" y="190" on="1"/>
        <pt x="436" y="148" on="0"/>
        <pt x="493" y="102" on="0"/>
        <pt x="542" y="91" on="1"/>
        <pt x="582" y="82" on="0"/>
        <pt x="657" y="85" on="0"/>
        <pt x="681" y="81" on="1"/>
        <pt x="704" y="77" on="0"/>
        <pt x="745" y="30" on="0"/>
        <pt x="745" y="3" on="1"/>
        <pt x="745" y="-36" on="0"/>
        <pt x="694" y="-64" on="0"/>
      </contour>
    </TTGlyph>
    <TTGlyph name="glyph02417" xMin="80" yMin="-42" xMax="909" yMax="821">
      <contour>
        <pt x="170" y="-42" on="1"/>
        <pt x="142" y="-42" on="0"/>
        <pt x="105" y="12" on="0"/>
        <pt x="105" y="49" on="1"/>
        <pt x="105" y="74" on="0"/>
        <pt x="124" y="108" on="0"/>
        <pt x="154" y="145" on="0"/>
        <pt x="170" y="173" on="1"/>
        <pt x="192" y="211" on="0"/>
        <pt x="253" y="339" on="0"/>
        <pt x="283" y="428" on="1"/>
        <pt x="293" y="457" on="0"/>
        <pt x="312" y="536" on="0"/>
        <pt x="329" y="617" on="0"/>
        <pt x="339" y="685" on="0"/>
        <pt x="340" y="704" on="1"/>
        <pt x="341" y="724" on="0"/>
        <pt x="335" y="742" on="0"/>
        <pt x="323" y="753" on="1"/>
        <pt x="314" y="763" on="0"/>
        <pt x="287" y="780" on="0"/>
        <pt x="268" y="787" on="1"/>
        <pt x="268" y="798" on="1"/>
        <pt x="290" y="809" on="0"/>
        <pt x="335" y="821" on="0"/>
        <pt x="357" y="821" on="1"/>
        <pt x="393" y="821" on="0"/>
        <pt x="455" y="801" on="0"/>
        <pt x="492" y="771" on="0"/>
        <pt x="492" y="756" on="1"/>
        <pt x="492" y="741" on="0"/>
        <pt x="478" y="712" on="0"/>
        <pt x="455" y="662" on="0"/>
        <pt x="441" y="615" on="1"/>
        <pt x="436" y="599" on="0"/>
        <pt x="416" y="524" on="0"/>
        <pt x="391" y="431" on="0"/>
        <pt x="377" y="385" on="1"/>
        <pt x="365" y="347" on="0"/>
        <pt x="333" y="247" on="0"/>
        <pt x="298" y="142" on="0"/>
        <pt x="264" y="52" on="0"/>
        <pt x="250" y="25" on="1"/>
        <pt x="235" y="-5" on="0"/>
        <pt x="203" y="-42" on="0"/>
      </contour>
      <contour>
        <pt x="698" y="-36" on="1"/>
        <pt x="573" y="-36" on="0"/>
        <pt x="448" y="71" on="0"/>
        <pt x="448" y="162" on="1"/>
        <pt x="448" y="184" on="0"/>
        <pt x="457" y="236" on="0"/>
        <pt x="462" y="253" on="1"/>
        <pt x="474" y="253" on="1"/>
        <pt x="476" y="237" on="0"/>
        <pt x="489" y="188" on="0"/>
        <pt x="503" y="167" on="1"/>
        <pt x="533" y="124" on="0"/>
        <pt x="617" y="95" on="0"/>
        <pt x="674" y="95" on="1"/>
        <pt x="713" y="95" on="0"/>
        <pt x="767" y="105" on="0"/>
        <pt x="801" y="114" on="0"/>
        <pt x="808" y="114" on="1"/>
        <pt x="831" y="114" on="0"/>
        <pt x="878" y="99" on="0"/>
        <pt x="909" y="67" on="0"/>
        <pt x="909" y="40" on="1"/>
        <pt x="909" y="18" on="0"/>
        <pt x="875" y="-13" on="0"/>
        <pt x="842" y="-21" on="1"/>
        <pt x="818" y="-27" on="0"/>
        <pt x="751" y="-36" on="0"/>
      </contour>
      <contour>
        <pt x="237" y="482" on="1"/>
        <pt x="196" y="482" on="0"/>
        <pt x="137" y="501" on="0"/>
        <pt x="96" y="562" on="0"/>
        <pt x="80" y="625" on="1"/>
        <pt x="90" y="632" on="1"/>
        <pt x="131" y="604" on="0"/>
        <pt x="181" y="587" on="0"/>
        <pt x="209" y="586" on="1"/>
        <pt x="252" y="585" on="0"/>
        <pt x="339" y="599" on="0"/>
        <pt x="368" y="606" on="1"/>
        <pt x="427" y="620" on="0"/>
        <pt x="505" y="651" on="0"/>
        <pt x="534" y="667" on="1"/>
        <pt x="551" y="677" on="0"/>
        <pt x="575" y="694" on="0"/>
        <pt x="582" y="694" on="1"/>
        <pt x="597" y="694" on="0"/>
        <pt x="638" y="682" on="0"/>
        <pt x="669" y="654" on="0"/>
        <pt x="669" y="630" on="1"/>
        <pt x="669" y="605" on="0"/>
        <pt x="621" y="570" on="0"/>
        <pt x="554" y="547" on="1"/>
        <pt x="535" y="540" on="0"/>
        <pt x="472" y="522" on="0"/>
        <pt x="400" y="504" on="0"/>
        <pt x="365" y="497" on="1"/>
        <pt x="337" y="492" on="0"/>
        <pt x="263" y="482" on="0"/>
      </contour>
      <contour>
        <pt x="623" y="338" on="1"/>
        <pt x="636" y="347" on="0"/>
        <pt x="669" y="374" on="0"/>
        <pt x="696" y="399" on="0"/>
        <pt x="700" y="404" on="1"/>
        <pt x="707" y="413" on="0"/>
        <pt x="695" y="417" on="1"/>
        <pt x="682" y="422" on="0"/>
        <pt x="634" y="428" on="0"/>
        <pt x="613" y="428" on="1"/>
        <pt x="594" y="428" on="0"/>
        <pt x="539" y="422" on="0"/>
        <pt x="506" y="417" on="1"/>
        <pt x="501" y="427" on="1"/>
        <pt x="540" y="459" on="0"/>
        <pt x="661" y="506" on="0"/>
        <pt x="725" y="506" on="1"/>
        <pt x="772" y="506" on="0"/>
        <pt x="833" y="486" on="0"/>
        <pt x="847" y="476" on="1"/>
        <pt x="872" y="460" on="0"/>
        <pt x="892" y="423" on="0"/>
        <pt x="892" y="405" on="1"/>
        <pt x="892" y="381" on="0"/>
        <pt x="860" y="352" on="0"/>
        <pt x="820" y="352" on="1"/>
        <pt x="808" y="352" on="0"/>
        <pt x="773" y="352" on="0"/>
        <pt x="754" y="350" on="1"/>
        <pt x="717" y="347" on="0"/>
        <pt x="656" y="336" on="0"/>
        <pt x="630" y="328" on="1"/>
      </contour>
    </TTGlyph>
    <TTGlyph name="glyph02418" xMin="66" yMin="-49" xMax="962" yMax="814">
      <contour>
        <pt x="827" y="577" on="1"/>
        <pt x="814" y="578" on="0"/>
        <pt x="794" y="594" on="0"/>
        <pt x="783" y="611" on="1"/>
        <pt x="771" y="632" on="0"/>
        <pt x="733" y="688" on="0"/>
        <pt x="698" y="722" on="1"/>
        <pt x="706" y="733" on="1"/>
        <pt x="748" y="723" on="0"/>
        <pt x="820" y="695" on="0"/>
        <pt x="844" y="672" on="1"/>
        <pt x="859" y="659" on="0"/>
        <pt x="870" y="632" on="0"/>
        <pt x="869" y="618" on="1"/>
        <pt x="869" y="601" on="0"/>
        <pt x="845" y="577" on="0"/>
      </contour>
      <contour>
        <pt x="156" y="-49" on="1"/>
        <pt x="128" y="-49" on="0"/>
        <pt x="91" y="5" on="0"/>
        <pt x="91" y="42" on="1"/>
        <pt x="91" y="67" on="0"/>
        <pt x="110" y="101" on="0"/>
        <pt x="140" y="138" on="0"/>
        <pt x="156" y="166" on="1"/>
        <pt x="178" y="204" on="0"/>
        <pt x="239" y="332" on="0"/>
        <pt x="269" y="421" on="1"/>
        <pt x="279" y="450" on="0"/>
        <pt x="298" y="529" on="0"/>
        <pt x="315" y="610" on="0"/>
        <pt x="325" y="678" on="0"/>
        <pt x="326" y="697" on="1"/>
        <pt x="327" y="717" on="0"/>
        <pt x="321" y="735" on="0"/>
        <pt x="309" y="746" on="1"/>
        <pt x="300" y="756" on="0"/>
        <pt x="273" y="773" on="0"/>
        <pt x="254" y="780" on="1"/>
        <pt x="254" y="791" on="1"/>
        <pt x="276" y="802" on="0"/>
        <pt x="321" y="814" on="0"/>
        <pt x="343" y="814" on="1"/>
        <pt x="379" y="814" on="0"/>
        <pt x="441" y="794" on="0"/>
        <pt x="478" y="764" on="0"/>
        <pt x="478" y="749" on="1"/>
        <pt x="478" y="734" on="0"/>
        <pt x="464" y="705" on="0"/>
        <pt x="441" y="655" on="0"/>
        <pt x="427" y="608" on="1"/>
        <pt x="422" y="592" on="0"/>
        <pt x="402" y="517" on="0"/>
        <pt x="377" y="424" on="0"/>
        <pt x="363" y="378" on="1"/>
        <pt x="351" y="340" on="0"/>
        <pt x="319" y="240" on="0"/>
        <pt x="284" y="135" on="0"/>
        <pt x="250" y="45" on="0"/>
        <pt x="236" y="18" on="1"/>
        <pt x="221" y="-12" on="0"/>
        <pt x="189" y="-49" on="0"/>
      </contour>
      <contour>
        <pt x="684" y="-43" on="1"/>
        <pt x="559" y="-43" on="0"/>
        <pt x="434" y="64" on="0"/>
        <pt x="434" y="155" on="1"/>
        <pt x="434" y="177" on="0"/>
        <pt x="443" y="229" on="0"/>
        <pt x="448" y="246" on="1"/>
        <pt x="460" y="246" on="1"/>
        <pt x="462" y="230" on="0"/>
        <pt x="475" y="181" on="0"/>
        <pt x="489" y="160" on="1"/>
        <pt x="519" y="117" on="0"/>
        <pt x="603" y="88" on="0"/>
        <pt x="660" y="88" on="1"/>
        <pt x="699" y="88" on="0"/>
        <pt x="753" y="98" on="0"/>
        <pt x="787" y="107" on="0"/>
        <pt x="794" y="107" on="1"/>
        <pt x="817" y="107" on="0"/>
        <pt x="864" y="92" on="0"/>
        <pt x="895" y="60" on="0"/>
        <pt x="895" y="33" on="1"/>
        <pt x="895" y="11" on="0"/>
        <pt x="861" y="-20" on="0"/>
        <pt x="828" y="-28" on="1"/>
        <pt x="804" y="-34" on="0"/>
        <pt x="737" y="-43" on="0"/>
      </contour>
      <contour>
        <pt x="223" y="475" on="1"/>
        <pt x="182" y="475" on="0"/>
        <pt x="123" y="494" on="0"/>
        <pt x="82" y="555" on="0"/>
        <pt x="66" y="618" on="1"/>
        <pt x="76" y="625" on="1"/>
        <pt x="117" y="597" on="0"/>
        <pt x="167" y="580" on="0"/>
        <pt x="195" y="579" on="1"/>
        <pt x="238" y="578" on="0"/>
        <pt x="325" y="592" on="0"/>
        <pt x="354" y="599" on="1"/>
        <pt x="413" y="613" on="0"/>
        <pt x="491" y="644" on="0"/>
        <pt x="520" y="660" on="1"/>
        <pt x="537" y="670" on="0"/>
        <pt x="561" y="687" on="0"/>
        <pt x="568" y="687" on="1"/>
        <pt x="583" y="687" on="0"/>
        <pt x="624" y="675" on="0"/>
        <pt x="655" y="647" on="0"/>
        <pt x="655" y="623" on="1"/>
        <pt x="655" y="598" on="0"/>
        <pt x="607" y="563" on="0"/>
        <pt x="540" y="540" on="1"/>
        <pt x="521" y="533" on="0"/>
        <pt x="458" y="515" on="0"/>
        <pt x="386" y="497" on="0"/>
        <pt x="351" y="490" on="1"/>
        <pt x="323" y="485" on="0"/>
        <pt x="249" y="475" on="0"/>
      </contour>
      <contour>
        <pt x="609" y="331" on="1"/>
        <pt x="622" y="340" on="0"/>
        <pt x="655" y="367" on="0"/>
        <pt x="682" y="392" on="0"/>
        <pt x="686" y="397" on="1"/>
        <pt x="693" y="406" on="0"/>
        <pt x="681" y="410" on="1"/>
        <pt x="668" y="415" on="0"/>
        <pt x="620" y="421" on="0"/>
        <pt x="599" y="421" on="1"/>
        <pt x="580" y="421" on="0"/>
        <pt x="525" y="415" on="0"/>
        <pt x="492" y="410" on="1"/>
        <pt x="487" y="420" on="1"/>
        <pt x="526" y="452" on="0"/>
        <pt x="647" y="499" on="0"/>
        <pt x="711" y="499" on="1"/>
        <pt x="758" y="499" on="0"/>
        <pt x="819" y="479" on="0"/>
        <pt x="833" y="469" on="1"/>
        <pt x="858" y="453" on="0"/>
        <pt x="878" y="416" on="0"/>
        <pt x="878" y="398" on="1"/>
        <pt x="878" y="374" on="0"/>
        <pt x="846" y="345" on="0"/>
        <pt x="806" y="345" on="1"/>
        <pt x="794" y="345" on="0"/>
        <pt x="759" y="345" on="0"/>
        <pt x="740" y="343" on="1"/>
        <pt x="703" y="340" on="0"/>
        <pt x="642" y="329" on="0"/>
        <pt x="616" y="321" on="1"/>
      </contour>
      <contour>
        <pt x="925" y="652" on="1"/>
        <pt x="910" y="652" on="0"/>
        <pt x="889" y="670" on="0"/>
        <pt x="875" y="689" on="1"/>
        <pt x="864" y="706" on="0"/>
        <pt x="828" y="753" on="0"/>
        <pt x="787" y="786" on="1"/>
        <pt x="794" y="797" on="1"/>
        <pt x="838" y="791" on="0"/>
        <pt x="907" y="769" on="0"/>
        <pt x="929" y="753" on="1"/>
        <pt x="947" y="740" on="0"/>
        <pt x="962" y="710" on="0"/>
        <pt x="962" y="692" on="1"/>
        <pt x="962" y="674" on="0"/>
        <pt x="942" y="652" on="0"/>
      </contour>
    </TTGlyph>
    <TTGlyph name="glyph02419" xMin="96" yMin="-54" xMax="869" yMax="804">
      <contour>
        <pt x="346" y="-28" on="1"/>
        <pt x="400" y="-22" on="0"/>
        <pt x="513" y="7" on="0"/>
        <pt x="569" y="32" on="1"/>
        <pt x="633" y="60" on="0"/>
        <pt x="705" y="128" on="0"/>
        <pt x="736" y="204" on="0"/>
        <pt x="736" y="242" on="1"/>
        <pt x="736" y="270" on="0"/>
        <pt x="713" y="326" on="0"/>
        <pt x="663" y="363" on="0"/>
        <pt x="622" y="363" on="1"/>
        <pt x="583" y="363" on="0"/>
        <pt x="505" y="323" on="0"/>
        <pt x="432" y="260" on="0"/>
        <pt x="370" y="191" on="0"/>
        <pt x="348" y="163" on="1"/>
        <pt x="337" y="150" on="0"/>
        <pt x="321" y="119" on="0"/>
        <pt x="302" y="97" on="0"/>
        <pt x="284" y="97" on="1"/>
        <pt x="266" y="97" on="0"/>
        <pt x="231" y="135" on="0"/>
        <pt x="209" y="189" on="0"/>
        <pt x="209" y="213" on="1"/>
        <pt x="209" y="224" on="0"/>
        <pt x="221" y="237" on="0"/>
        <pt x="231" y="256" on="1"/>
        <pt x="240" y="271" on="0"/>
        <pt x="262" y="340" on="0"/>
        <pt x="285" y="425" on="0"/>
        <pt x="304" y="510" on="0"/>
        <pt x="311" y="542" on="1"/>
        <pt x="317" y="573" on="0"/>
        <pt x="327" y="629" on="0"/>
        <pt x="334" y="677" on="0"/>
        <pt x="336" y="695" on="1"/>
        <pt x="338" y="715" on="0"/>
        <pt x="331" y="731" on="0"/>
        <pt x="319" y="740" on="1"/>
        <pt x="299" y="753" on="0"/>
        <pt x="262" y="769" on="1"/>
        <pt x="262" y="780" on="1"/>
        <pt x="284" y="791" on="0"/>
        <pt x="320" y="804" on="0"/>
        <pt x="339" y="804" on="1"/>
        <pt x="378" y="804" on="0"/>
        <pt x="444" y="785" on="0"/>
        <pt x="484" y="757" on="0"/>
        <pt x="484" y="742" on="1"/>
        <pt x="484" y="727" on="0"/>
        <pt x="471" y="706" on="0"/>
        <pt x="454" y="679" on="0"/>
        <pt x="447" y="655" on="1"/>
        <pt x="440" y="633" on="0"/>
        <pt x="426" y="574" on="0"/>
        <pt x="418" y="541" on="1"/>
        <pt x="410" y="510" on="0"/>
        <pt x="392" y="442" on="0"/>
        <pt x="375" y="380" on="0"/>
        <pt x="362" y="333" on="0"/>
        <pt x="359" y="322" on="1"/>
        <pt x="358" y="316" on="0"/>
        <pt x="362" y="313" on="0"/>
        <pt x="367" y="316" on="1"/>
        <pt x="443" y="359" on="0"/>
        <pt x="565" y="409" on="0"/>
        <pt x="635" y="409" on="1"/>
        <pt x="715" y="409" on="0"/>
        <pt x="819" y="350" on="0"/>
        <pt x="869" y="255" on="0"/>
        <pt x="869" y="200" on="1"/>
        <pt x="869" y="139" on="0"/>
        <pt x="811" y="48" on="0"/>
        <pt x="710" y="-13" on="0"/>
        <pt x="577" y="-47" on="0"/>
        <pt x="426" y="-54" on="0"/>
        <pt x="348" y="-46" on="1"/>
      </contour>
      <contour>
        <pt x="257" y="497" on="1"/>
        <pt x="225" y="497" on="0"/>
        <pt x="175" y="511" on="0"/>
        <pt x="137" y="544" on="0"/>
        <pt x="108" y="604" on="0"/>
        <pt x="96" y="650" on="1"/>
        <pt x="108" y="657" on="1"/>
        <pt x="130" y="637" on="0"/>
        <pt x="177" y="610" on="0"/>
        <pt x="231" y="597" on="0"/>
        <pt x="261" y="597" on="1"/>
        <pt x="314" y="597" on="0"/>
        <pt x="421" y="617" on="0"/>
        <pt x="514" y="648" on="0"/>
        <pt x="544" y="664" on="1"/>
        <pt x="573" y="681" on="0"/>
        <pt x="599" y="695" on="0"/>
        <pt x="603" y="695" on="1"/>
        <pt x="614" y="695" on="0"/>
        <pt x="650" y="691" on="0"/>
        <pt x="686" y="680" on="0"/>
        <pt x="710" y="658" on="0"/>
        <pt x="710" y="639" on="1"/>
        <pt x="710" y="616" on="0"/>
        <pt x="682" y="584" on="0"/>
        <pt x="646" y="569" on="1"/>
        <pt x="622" y="560" on="0"/>
        <pt x="540" y="535" on="0"/>
        <pt x="435" y="512" on="0"/>
        <pt x="317" y="497" on="0"/>
      </contour>
    </TTGlyph>
    <TTGlyph name="glyph02420" xMin="312" yMin="149" xMax="963" yMax="598">
      <contour>
        <pt x="495" y="168" on="1"/>
        <pt x="564" y="178" on="0"/>
        <pt x="689" y="219" on="0"/>
        <pt x="786" y="281" on="0"/>
        <pt x="842" y="364" on="0"/>
        <pt x="842" y="415" on="1"/>
        <pt x="842" y="447" on="0"/>
        <pt x="818" y="506" on="0"/>
        <pt x="769" y="545" on="0"/>
        <pt x="733" y="545" on="1"/>
        <pt x="695" y="545" on="0"/>
        <pt x="622" y="509" on="0"/>
        <pt x="560" y="457" on="0"/>
        <pt x="514" y="410" on="0"/>
        <pt x="502" y="399" on="1"/>
        <pt x="475" y="375" on="0"/>
        <pt x="444" y="349" on="0"/>
        <pt x="424" y="349" on="1"/>
        <pt x="405" y="349" on="0"/>
        <pt x="359" y="373" on="0"/>
        <pt x="323" y="411" on="0"/>
        <pt x="317" y="432" on="1"/>
        <pt x="312" y="450" on="0"/>
        <pt x="316" y="486" on="0"/>
        <pt x="318" y="500" on="1"/>
        <pt x="327" y="503" on="1"/>
        <pt x="332" y="497" on="0"/>
        <pt x="358" y="477" on="0"/>
        <pt x="374" y="477" on="1"/>
        <pt x="379" y="477" on="0"/>
        <pt x="395" y="479" on="0"/>
        <pt x="402" y="482" on="1"/>
        <pt x="452" y="502" on="0"/>
        <pt x="558" y="556" on="0"/>
        <pt x="673" y="598" on="0"/>
        <pt x="736" y="598" on="1"/>
        <pt x="803" y="598" on="0"/>
        <pt x="905" y="541" on="0"/>
        <pt x="963" y="449" on="0"/>
        <pt x="963" y="397" on="1"/>
        <pt x="963" y="321" on="0"/>
        <pt x="888" y="229" on="0"/>
        <pt x="835" y="198" on="1"/>
        <pt x="791" y="173" on="0"/>
        <pt x="672" y="150" on="0"/>
        <pt x="549" y="149" on="0"/>
        <pt x="498" y="154" on="1"/>
      </contour>
    </TTGlyph>
    <TTGlyph name="glyph02421" xMin="62" yMin="41" xMax="929" yMax="639">
      <contour>
        <pt x="311" y="66" on="1"/>
        <pt x="415" y="81" on="0"/>
        <pt x="579" y="128" on="0"/>
        <pt x="655" y="179" on="1"/>
        <pt x="708" y="215" on="0"/>
        <pt x="783" y="320" on="0"/>
        <pt x="783" y="392" on="1"/>
        <pt x="783" y="437" on="0"/>
        <pt x="747" y="522" on="0"/>
        <pt x="678" y="577" on="0"/>
        <pt x="626" y="577" on="1"/>
        <pt x="586" y="577" on="0"/>
        <pt x="504" y="546" on="0"/>
        <pt x="428" y="498" on="0"/>
        <pt x="362" y="445" on="0"/>
        <pt x="313" y="398" on="0"/>
        <pt x="299" y="385" on="1"/>
        <pt x="267" y="355" on="0"/>
        <pt x="228" y="317" on="0"/>
        <pt x="198" y="317" on="1"/>
        <pt x="176" y="317" on="0"/>
        <pt x="122" y="347" on="0"/>
        <pt x="78" y="395" on="0"/>
        <pt x="69" y="420" on="1"/>
        <pt x="62" y="442" on="0"/>
        <pt x="65" y="487" on="0"/>
        <pt x="66" y="505" on="1"/>
        <pt x="80" y="510" on="1"/>
        <pt x="88" y="500" on="0"/>
        <pt x="123" y="473" on="0"/>
        <pt x="144" y="473" on="1"/>
        <pt x="150" y="473" on="0"/>
        <pt x="163" y="475" on="0"/>
        <pt x="180" y="481" on="0"/>
        <pt x="191" y="485" on="1"/>
        <pt x="239" y="505" on="0"/>
        <pt x="341" y="557" on="0"/>
        <pt x="450" y="607" on="0"/>
        <pt x="567" y="639" on="0"/>
        <pt x="630" y="639" on="1"/>
        <pt x="697" y="639" on="0"/>
        <pt x="807" y="595" on="0"/>
        <pt x="886" y="520" on="0"/>
        <pt x="929" y="424" on="0"/>
        <pt x="929" y="373" on="1"/>
        <pt x="929" y="306" on="0"/>
        <pt x="882" y="206" on="0"/>
        <pt x="803" y="133" on="0"/>
        <pt x="755" y="106" on="1"/>
        <pt x="712" y="82" on="0"/>
        <pt x="603" y="53" on="0"/>
        <pt x="484" y="41" on="0"/>
        <pt x="366" y="41" on="0"/>
        <pt x="314" y="46" on="1"/>
      </contour>
    </TTGlyph>
    <TTGlyph name="glyph02423" xMin="66" yMin="-29" xMax="896" yMax="746">
      <contour>
        <pt x="706" y="-29" on="1"/>
        <pt x="664" y="-29" on="0"/>
        <pt x="594" y="-20" on="0"/>
        <pt x="534" y="1" on="0"/>
        <pt x="505" y="18" on="1"/>
        <pt x="453" y="49" on="0"/>
        <pt x="386" y="165" on="0"/>
        <pt x="386" y="264" on="1"/>
        <pt x="386" y="342" on="0"/>
        <pt x="434" y="472" on="0"/>
        <pt x="520" y="574" on="0"/>
        <pt x="575" y="609" on="1"/>
        <pt x="581" y="614" on="0"/>
        <pt x="580" y="621" on="0"/>
        <pt x="573" y="619" on="1"/>
        <pt x="514" y="606" on="0"/>
        <pt x="394" y="566" on="0"/>
        <pt x="294" y="523" on="0"/>
        <pt x="265" y="503" on="1"/>
        <pt x="249" y="493" on="0"/>
        <pt x="215" y="463" on="0"/>
        <pt x="192" y="463" on="1"/>
        <pt x="174" y="463" on="0"/>
        <pt x="130" y="488" on="0"/>
        <pt x="91" y="528" on="0"/>
        <pt x="66" y="574" on="0"/>
        <pt x="66" y="595" on="1"/>
        <pt x="66" y="616" on="0"/>
        <pt x="76" y="653" on="0"/>
        <pt x="80" y="665" on="1"/>
        <pt x="89" y="668" on="1"/>
        <pt x="103" y="650" on="0"/>
        <pt x="133" y="618" on="0"/>
        <pt x="154" y="618" on="1"/>
        <pt x="177" y="618" on="0"/>
        <pt x="245" y="628" on="0"/>
        <pt x="334" y="647" on="0"/>
        <pt x="444" y="674" on="0"/>
        <pt x="510" y="690" on="1"/>
        <pt x="559" y="703" on="0"/>
        <pt x="660" y="728" on="0"/>
        <pt x="738" y="746" on="0"/>
        <pt x="752" y="746" on="1"/>
        <pt x="775" y="746" on="0"/>
        <pt x="820" y="738" on="0"/>
        <pt x="842" y="727" on="1"/>
        <pt x="864" y="717" on="0"/>
        <pt x="896" y="684" on="0"/>
        <pt x="896" y="659" on="1"/>
        <pt x="896" y="637" on="0"/>
        <pt x="863" y="605" on="0"/>
        <pt x="835" y="605" on="1"/>
        <pt x="813" y="605" on="0"/>
        <pt x="766" y="609" on="0"/>
        <pt x="748" y="609" on="1"/>
        <pt x="717" y="609" on="0"/>
        <pt x="637" y="597" on="0"/>
        <pt x="597" y="565" on="1"/>
        <pt x="586" y="556" on="0"/>
        <pt x="551" y="518" on="0"/>
        <pt x="516" y="457" on="0"/>
        <pt x="493" y="370" on="0"/>
        <pt x="493" y="313" on="1"/>
        <pt x="493" y="253" on="0"/>
        <pt x="522" y="186" on="0"/>
        <pt x="562" y="153" on="0"/>
        <pt x="578" y="145" on="1"/>
        <pt x="603" y="133" on="0"/>
        <pt x="664" y="124" on="0"/>
        <pt x="715" y="124" on="0"/>
        <pt x="726" y="124" on="1"/>
        <pt x="745" y="124" on="0"/>
        <pt x="784" y="100" on="0"/>
        <pt x="810" y="63" on="0"/>
        <pt x="810" y="41" on="1"/>
        <pt x="810" y="12" on="0"/>
        <pt x="776" y="-18" on="0"/>
        <pt x="728" y="-29" on="0"/>
      </contour>
    </TTGlyph>
</ttFont>
